<?xml version="1.0" encoding="UTF-8"?>
<svg id="Layer_1" data-name="Layer 1" xmlns="http://www.w3.org/2000/svg" viewBox="0 0 1567.86 400">
  <defs>
    <style>
      .cls-1 {
        fill: none;
      }

      .cls-2 {
        fill: #e95420;
      }

      .cls-3 {
        fill: #fff;
      }
    </style>
  </defs>
  <g>
    <path d="m476.38,262.04c0,15.08-2.2,28.37-6.61,39.89-4.41,11.52-10.38,21.13-17.91,28.84-7.54,7.71-16.3,13.51-26.3,17.4-10,3.89-20.58,5.84-31.76,5.84s-21.77-1.95-31.76-5.84c-10-3.89-18.76-9.69-26.29-17.4-7.54-7.71-13.51-17.32-17.91-28.84-4.41-11.52-6.61-24.81-6.61-39.89s2.2-28.33,6.61-39.76c4.4-11.43,10.37-21,17.91-28.71,7.53-7.71,16.3-13.5,26.29-17.4,9.99-3.89,20.58-5.84,31.76-5.84s21.76,1.95,31.76,5.84c9.99,3.9,18.76,9.7,26.3,17.4,7.53,7.71,13.5,17.28,17.91,28.71,4.4,11.43,6.61,24.69,6.61,39.76Zm-18.29,0c0-11.85-1.52-22.48-4.57-31.88s-7.37-17.4-12.96-24.01c-5.59-6.61-12.32-11.64-20.2-15.12-7.88-3.47-16.73-5.21-26.55-5.21s-18.67,1.74-26.55,5.21c-7.88,3.47-14.61,8.51-20.2,15.12-5.59,6.61-9.91,14.61-12.96,24.01s-4.57,20.03-4.57,31.88,1.52,22.49,4.57,31.89c3.05,9.4,7.37,17.4,12.96,24.01,5.59,6.61,12.32,11.69,20.2,15.24,7.88,3.56,16.72,5.34,26.55,5.34s18.67-1.78,26.55-5.34c7.88-3.56,14.61-8.64,20.2-15.24,5.59-6.61,9.91-14.61,12.96-24.01,3.05-9.4,4.57-20.03,4.57-31.89Z"/>
    <path d="m525.58,397.2h-16.51v-173.78c4.91-1.69,11.18-3.3,18.8-4.83,7.62-1.52,17.28-2.29,28.96-2.29,9.65,0,18.42,1.57,26.29,4.7,7.88,3.14,14.65,7.67,20.33,13.59,5.67,5.93,10.08,13.13,13.21,21.6,3.13,8.47,4.7,18.04,4.7,28.71,0,10-1.31,19.18-3.94,27.57-2.63,8.38-6.48,15.58-11.56,21.6-5.08,6.01-11.31,10.71-18.67,14.1-7.37,3.39-15.8,5.08-25.28,5.08-8.64,0-16.13-1.23-22.48-3.68-6.35-2.45-10.97-4.78-13.85-6.99v54.62Zm0-70.63c1.52,1.19,3.43,2.46,5.72,3.81,2.29,1.36,4.95,2.63,8,3.81,3.05,1.19,6.35,2.16,9.91,2.92,3.56.76,7.28,1.14,11.18,1.14,8.13,0,14.95-1.4,20.45-4.19,5.5-2.79,9.95-6.61,13.34-11.43,3.39-4.83,5.84-10.5,7.37-17.02,1.52-6.52,2.29-13.42,2.29-20.71,0-17.28-4.32-30.53-12.96-39.76-8.64-9.23-20.07-13.85-34.3-13.85-8.13,0-14.7.38-19.69,1.14-5,.76-8.76,1.57-11.31,2.41v91.72Z"/>
    <path d="m643.95,284.4c0-11.52,1.65-21.55,4.95-30.11,3.3-8.55,7.62-15.71,12.96-21.47,5.33-5.76,11.43-10.04,18.29-12.83,6.86-2.79,13.93-4.19,21.21-4.19,16.09,0,28.92,5.25,38.49,15.75,9.57,10.5,14.35,26.68,14.35,48.53,0,1.36-.04,2.71-.13,4.06-.09,1.36-.21,2.63-.38,3.81h-92.22c.51,16.09,4.49,28.46,11.94,37.09,7.45,8.64,19.31,12.96,35.57,12.96,8.98,0,16.09-.85,21.34-2.54,5.25-1.69,9.06-3.13,11.43-4.32l3.05,14.23c-2.37,1.36-6.82,2.97-13.34,4.83-6.52,1.86-14.19,2.79-22.99,2.79-11.52,0-21.34-1.7-29.47-5.08-8.13-3.39-14.82-8.13-20.07-14.23-5.25-6.1-9.06-13.34-11.43-21.72-2.37-8.38-3.56-17.57-3.56-27.57Zm93.24-10.42c-.34-13.72-3.56-24.39-9.65-32.01s-14.74-11.43-25.91-11.43c-5.93,0-11.22,1.19-15.88,3.56-4.66,2.37-8.73,5.55-12.2,9.53-3.47,3.98-6.18,8.6-8.13,13.85-1.95,5.25-3.09,10.76-3.43,16.51h75.2Z"/>
    <path d="m783.17,223.42c4.91-1.35,11.52-2.88,19.82-4.57,8.3-1.69,18.46-2.54,30.49-2.54,9.99,0,18.33,1.44,25.03,4.32,6.69,2.88,12.03,6.99,16.01,12.32,3.98,5.33,6.82,11.73,8.51,19.18,1.69,7.46,2.54,15.67,2.54,24.64v73.42h-16.51v-68.09c0-9.31-.64-17.19-1.91-23.63-1.27-6.43-3.39-11.69-6.35-15.75-2.96-4.06-6.86-6.99-11.69-8.76-4.83-1.78-10.88-2.67-18.16-2.67-7.79,0-14.53.42-20.2,1.27-5.68.85-9.36,1.61-11.05,2.29v115.34h-16.51v-126.78Z"/>
    <path d="m961.65,339.02c13.72,0,24.39-2.5,32.01-7.51,7.62-5.01,11.43-13.12,11.43-24.32,0-6.45-1.23-11.84-3.68-16.17-2.46-4.33-5.72-7.98-9.78-10.95-4.06-2.97-8.73-5.51-13.97-7.61-5.25-2.1-10.76-4.33-16.51-6.69-7.28-2.86-13.81-5.8-19.56-8.84-5.76-3.03-10.67-6.45-14.74-10.26-4.06-3.81-7.16-8.17-9.27-13.08-2.12-4.91-3.18-10.67-3.18-17.28,0-15.07,4.99-26.51,14.99-34.3,9.99-7.79,23.88-11.69,41.67-11.69,4.74,0,9.4.34,13.97,1.02,4.57.68,8.85,1.57,12.83,2.67,3.98,1.1,7.62,2.33,10.92,3.68,3.3,1.36,6.05,2.79,8.26,4.32l-6.1,14.48c-4.91-3.39-10.88-6.1-17.91-8.13-7.03-2.03-14.61-3.05-22.74-3.05-5.59,0-10.71.55-15.37,1.65-4.66,1.1-8.68,2.88-12.07,5.33-3.39,2.46-6.06,5.55-8,9.27-1.95,3.73-2.92,8.22-2.92,13.47s1.02,10,3.05,13.72c2.03,3.73,4.87,6.95,8.51,9.66,3.64,2.71,7.92,5.17,12.83,7.37,4.91,2.2,10.25,4.49,16.01,6.86,6.94,2.88,13.5,5.76,19.69,8.64,6.18,2.88,11.56,6.27,16.13,10.16,4.57,3.9,8.21,8.64,10.92,14.23,2.71,5.59,4.07,12.45,4.07,20.58,0,15.92-5.55,27.86-16.64,35.82-11.1,7.96-26.13,11.94-45.1,11.94-6.78,0-12.96-.42-18.55-1.27-5.59-.85-10.59-1.91-14.99-3.18-4.41-1.27-8.13-2.58-11.18-3.94-3.05-1.35-5.42-2.54-7.11-3.56l5.59-14.99c1.69,1.02,3.98,2.2,6.86,3.56,2.88,1.36,6.26,2.67,10.16,3.94,3.89,1.27,8.3,2.33,13.21,3.18,4.91.85,10.33,1.27,16.26,1.27Z"/>
    <path d="m1064.16,218.85h52.34v13.97h-52.34v69.87c0,7.46.63,13.51,1.91,18.17,1.27,4.66,3.09,8.26,5.46,10.8,2.37,2.54,5.25,4.24,8.64,5.08,3.39.85,7.11,1.27,11.18,1.27,6.94,0,12.53-.8,16.77-2.41,4.23-1.61,7.54-3.09,9.91-4.45l4.07,13.72c-2.37,1.52-6.52,3.26-12.45,5.21-5.93,1.95-12.37,2.92-19.31,2.92-8.13,0-14.95-1.06-20.45-3.18-5.51-2.12-9.91-5.34-13.21-9.65-3.3-4.32-5.63-9.69-6.99-16.13-1.36-6.44-2.03-14.06-2.03-22.87v-120.93l16.51-3.05v41.67Z"/>
    <path d="m1185.3,215.8c8.64,0,15.96,1.23,21.98,3.68,6.01,2.46,10.88,5.84,14.61,10.16,3.72,4.32,6.43,9.44,8.13,15.37,1.69,5.93,2.54,12.37,2.54,19.31v82.82c-1.7.51-4.15,1.06-7.37,1.65-3.22.6-6.95,1.23-11.18,1.91-4.24.67-8.94,1.23-14.1,1.65-5.17.42-10.46.64-15.88.64-6.95,0-13.34-.76-19.18-2.29s-10.92-3.94-15.24-7.24c-4.32-3.3-7.71-7.54-10.16-12.7-2.46-5.17-3.68-11.47-3.68-18.93s1.35-13.21,4.06-18.29c2.71-5.08,6.52-9.27,11.43-12.58,4.91-3.3,10.75-5.72,17.53-7.24,6.77-1.52,14.14-2.29,22.1-2.29,2.37,0,4.87.13,7.5.38,2.62.25,5.17.59,7.62,1.02,2.45.42,4.57.85,6.35,1.27,1.78.42,3,.81,3.68,1.14v-8.13c0-4.57-.34-9.02-1.02-13.34-.68-4.32-2.16-8.21-4.45-11.69-2.29-3.47-5.51-6.26-9.65-8.38-4.15-2.12-9.62-3.18-16.39-3.18-9.65,0-16.86.68-21.59,2.03-4.74,1.36-8.22,2.46-10.42,3.3l-2.29-14.48c2.88-1.35,7.32-2.62,13.34-3.81,6.01-1.18,13.25-1.78,21.72-1.78Zm1.52,122.46c6.43,0,12.07-.21,16.9-.63,4.83-.42,8.93-.97,12.32-1.65v-46.24c-1.87-.85-4.83-1.74-8.89-2.67-4.07-.93-9.65-1.4-16.77-1.4-4.06,0-8.3.3-12.7.89-4.41.6-8.47,1.87-12.2,3.81-3.73,1.95-6.78,4.62-9.15,8-2.37,3.39-3.56,7.88-3.56,13.47,0,4.91.8,9.06,2.41,12.45,1.61,3.39,3.89,6.1,6.86,8.13,2.96,2.03,6.52,3.52,10.67,4.45,4.15.93,8.85,1.4,14.1,1.4Z"/>
    <path d="m1323.56,353c-10.16,0-19.14-1.61-26.93-4.83-7.79-3.22-14.27-7.83-19.44-13.85-5.17-6.01-9.11-13.21-11.81-21.6-2.71-8.38-4.06-17.66-4.06-27.82s1.4-19.73,4.19-28.2c2.79-8.47,6.82-15.75,12.07-21.85,5.25-6.1,11.6-10.8,19.05-14.1,7.45-3.3,15.83-4.95,25.15-4.95,7.11,0,13.76.6,19.94,1.78,6.18,1.19,10.96,2.71,14.36,4.57l-4.32,14.23c-3.39-1.69-7.2-3.05-11.43-4.06-4.24-1.02-9.91-1.52-17.02-1.52-14.57,0-25.62,4.7-33.16,14.1-7.54,9.4-11.31,22.74-11.31,40.01,0,7.79.85,14.95,2.54,21.47,1.69,6.52,4.45,12.11,8.26,16.77,3.81,4.66,8.72,8.3,14.74,10.92,6.01,2.63,13.34,3.94,21.98,3.94,7.11,0,13.08-.8,17.91-2.41,4.83-1.61,8.34-3,10.54-4.19l3.56,14.23c-3.05,1.7-7.84,3.35-14.35,4.95-6.52,1.61-13.34,2.41-20.45,2.41Z"/>
    <path d="m1413.87,278.68c5.99,4.22,12.03,9.08,18.13,14.6,6.1,5.53,12.11,11.51,18.04,17.95,5.92,6.44,11.51,13.05,16.75,19.83s9.7,13.16,13.39,19.13h-19.84c-3.98-6.68-8.59-13.22-13.84-19.65-5.25-6.42-10.76-12.46-16.52-18.13-5.76-5.67-11.53-10.84-17.3-15.51-5.76-4.67-10.87-8.18-15.32-10.52v63.81h-16.51v-194.1l16.51-3.05v122.38c3.53-3.03,7.94-7.15,13.21-12.38,5.27-5.22,10.65-10.48,16.12-15.77,5.47-5.29,10.63-10.41,15.5-15.37,4.86-4.96,8.94-9.31,12.23-13.06h20.18c-3.89,4.07-8.35,8.59-13.39,13.54-5.03,4.96-10.28,10.13-15.74,15.51s-10.83,10.67-16.12,15.89-10.45,10.17-15.48,14.89Z"/>
  </g>
  <g>
    <path d="m346.66,131.23c-4.32,0-8.34-.77-12.05-2.32-3.71-1.55-6.94-3.81-9.68-6.78-2.74-2.97-4.9-6.63-6.48-10.98-1.58-4.36-2.37-9.34-2.37-14.95s.85-10.6,2.56-14.95c1.71-4.36,3.98-8.02,6.82-10.99,2.84-2.97,6.13-5.21,9.87-6.73,3.74-1.52,7.65-2.27,11.71-2.27,2.52,0,4.81.16,6.87.48,2.06.32,3.87.73,5.42,1.21,1.55.48,2.87.97,3.97,1.45,1.1.48,1.94.92,2.52,1.31l-2.13,5.71c-1.61-.97-3.66-1.92-6.15-2.86-2.48-.93-5.57-1.4-9.24-1.4-4.2,0-7.86.71-10.99,2.13-3.13,1.42-5.76,3.42-7.89,6-2.13,2.58-3.73,5.65-4.79,9.19-1.06,3.55-1.6,7.49-1.6,11.81s.53,8.47,1.6,12.05,2.63,6.63,4.69,9.15c2.06,2.52,4.6,4.45,7.6,5.81,3,1.35,6.44,2.03,10.31,2.03,4.26,0,7.82-.4,10.69-1.21,2.87-.81,5.05-1.63,6.53-2.47l1.84,5.61c-.45.32-1.23.69-2.32,1.11-1.1.42-2.49.86-4.16,1.31-1.68.45-3.61.82-5.81,1.11-2.19.29-4.65.44-7.36.44Z"/>
    <path d="m391.44,78.58c3.29,0,6.08.47,8.37,1.4,2.29.94,4.15,2.23,5.57,3.87,1.42,1.65,2.45,3.6,3.1,5.86.64,2.26.97,4.71.97,7.36v31.55c-.65.19-1.58.4-2.81.63-1.23.23-2.65.47-4.26.73-1.61.26-3.4.47-5.37.63-1.97.16-3.99.24-6.05.24-2.65,0-5.08-.29-7.31-.87-2.23-.58-4.16-1.5-5.81-2.76-1.64-1.26-2.94-2.87-3.87-4.84-.94-1.97-1.4-4.37-1.4-7.21s.52-5.03,1.55-6.97c1.03-1.94,2.48-3.53,4.36-4.79,1.87-1.26,4.1-2.18,6.68-2.76,2.58-.58,5.39-.87,8.42-.87.9,0,1.85.05,2.85.15,1,.1,1.97.23,2.9.39.94.16,1.74.32,2.42.48.68.16,1.14.31,1.4.44v-3.1c0-1.74-.13-3.44-.39-5.08-.26-1.65-.82-3.13-1.69-4.45-.87-1.32-2.1-2.39-3.68-3.19-1.58-.81-3.66-1.21-6.24-1.21-3.68,0-6.42.26-8.23.77-1.81.52-3.13.94-3.97,1.26l-.87-5.52c1.1-.52,2.79-1,5.08-1.45,2.29-.45,5.05-.68,8.28-.68Zm.58,46.65c2.45,0,4.6-.08,6.44-.24,1.84-.16,3.4-.37,4.69-.63v-17.62c-.71-.32-1.84-.66-3.39-1.02-1.55-.35-3.68-.53-6.39-.53-1.55,0-3.16.11-4.84.34-1.68.23-3.23.71-4.65,1.45-1.42.74-2.58,1.76-3.48,3.05-.9,1.29-1.36,3-1.36,5.13,0,1.87.31,3.45.92,4.74.61,1.29,1.48,2.32,2.61,3.1,1.13.77,2.48,1.34,4.06,1.69,1.58.36,3.37.53,5.37.53Z"/>
    <path d="m423.03,81.48c1.87-.52,4.39-1.1,7.55-1.74,3.16-.64,7.03-.97,11.61-.97,3.81,0,6.98.55,9.53,1.65,2.55,1.1,4.58,2.66,6.1,4.69,1.51,2.03,2.6,4.47,3.24,7.31.64,2.84.97,5.97.97,9.39v27.97h-6.29v-25.94c0-3.55-.24-6.55-.73-9-.48-2.45-1.29-4.45-2.42-6-1.13-1.55-2.61-2.66-4.45-3.34s-4.15-1.02-6.92-1.02c-2.97,0-5.53.16-7.7.48-2.16.32-3.57.61-4.21.87v43.94h-6.29v-48.3Z"/>
    <path d="m518.5,104.81c0,3.94-.57,7.52-1.69,10.74-1.13,3.23-2.71,5.97-4.74,8.23-2.03,2.26-4.44,4.02-7.21,5.28-2.77,1.26-5.84,1.89-9.19,1.89s-6.42-.63-9.19-1.89c-2.78-1.26-5.18-3.02-7.21-5.28-2.03-2.26-3.61-5-4.74-8.23-1.13-3.23-1.69-6.81-1.69-10.74s.56-7.52,1.69-10.74c1.13-3.23,2.71-5.98,4.74-8.28,2.03-2.29,4.44-4.06,7.21-5.32,2.77-1.26,5.84-1.89,9.19-1.89s6.42.63,9.19,1.89c2.77,1.26,5.18,3.03,7.21,5.32,2.03,2.29,3.61,5.05,4.74,8.28,1.13,3.23,1.69,6.81,1.69,10.74Zm-6.68,0c0-6.26-1.45-11.24-4.36-14.95-2.9-3.71-6.84-5.57-11.81-5.57s-8.9,1.86-11.81,5.57c-2.9,3.71-4.36,8.7-4.36,14.95s1.45,11.23,4.36,14.91c2.9,3.68,6.84,5.52,11.81,5.52s8.9-1.84,11.81-5.52,4.36-8.65,4.36-14.91Z"/>
    <path d="m529.83,81.48c1.87-.52,4.39-1.1,7.55-1.74,3.16-.64,7.03-.97,11.61-.97,3.81,0,6.98.55,9.53,1.65,2.55,1.1,4.58,2.66,6.1,4.69,1.52,2.03,2.6,4.47,3.24,7.31.64,2.84.97,5.97.97,9.39v27.97h-6.29v-25.94c0-3.55-.24-6.55-.73-9-.48-2.45-1.29-4.45-2.42-6-1.13-1.55-2.61-2.66-4.45-3.34s-4.15-1.02-6.92-1.02c-2.97,0-5.53.16-7.69.48-2.16.32-3.57.61-4.21.87v43.94h-6.29v-48.3Z"/>
    <path d="m589.91,64.64c0,1.49-.45,2.66-1.36,3.53-.9.87-2,1.31-3.29,1.31s-2.39-.44-3.29-1.31c-.9-.87-1.36-2.05-1.36-3.53s.45-2.66,1.36-3.53c.9-.87,2-1.31,3.29-1.31s2.39.44,3.29,1.31c.9.87,1.36,2.05,1.36,3.53Zm-1.45,65.14h-6.29v-50.04h6.29v50.04Z"/>
    <path d="m623.21,130.84c-3.87,0-7.29-.61-10.26-1.84-2.97-1.22-5.44-2.98-7.4-5.27-1.97-2.29-3.47-5.03-4.5-8.23-1.03-3.19-1.55-6.73-1.55-10.6s.53-7.52,1.6-10.74c1.06-3.23,2.6-6,4.6-8.32,2-2.32,4.42-4.11,7.26-5.37,2.84-1.26,6.03-1.89,9.58-1.89,2.71,0,5.24.23,7.6.68,2.35.45,4.18,1.03,5.47,1.74l-1.65,5.42c-1.29-.64-2.74-1.16-4.36-1.55-1.61-.39-3.77-.58-6.48-.58-5.55,0-9.76,1.79-12.63,5.37-2.87,3.58-4.31,8.66-4.31,15.24,0,2.97.32,5.7.97,8.18.64,2.48,1.69,4.61,3.15,6.39,1.45,1.78,3.32,3.16,5.61,4.16,2.29,1,5.08,1.5,8.37,1.5,2.71,0,4.98-.31,6.82-.92,1.84-.61,3.18-1.14,4.02-1.6l1.36,5.42c-1.16.65-2.99,1.27-5.47,1.89-2.48.61-5.08.92-7.79.92Z"/>
    <path d="m661.08,78.58c3.29,0,6.08.47,8.37,1.4,2.29.94,4.15,2.23,5.57,3.87,1.42,1.65,2.45,3.6,3.1,5.86.64,2.26.97,4.71.97,7.36v31.55c-.65.19-1.58.4-2.81.63-1.23.23-2.65.47-4.26.73-1.61.26-3.4.47-5.37.63-1.97.16-3.99.24-6.05.24-2.65,0-5.08-.29-7.31-.87-2.23-.58-4.16-1.5-5.81-2.76-1.64-1.26-2.94-2.87-3.87-4.84-.94-1.97-1.4-4.37-1.4-7.21s.52-5.03,1.55-6.97c1.03-1.94,2.48-3.53,4.36-4.79,1.87-1.26,4.1-2.18,6.68-2.76,2.58-.58,5.39-.87,8.42-.87.9,0,1.85.05,2.85.15,1,.1,1.97.23,2.9.39.94.16,1.74.32,2.42.48.68.16,1.14.31,1.4.44v-3.1c0-1.74-.13-3.44-.39-5.08-.26-1.65-.82-3.13-1.69-4.45-.87-1.32-2.1-2.39-3.68-3.19-1.58-.81-3.66-1.21-6.24-1.21-3.68,0-6.42.26-8.23.77-1.81.52-3.13.94-3.97,1.26l-.87-5.52c1.1-.52,2.79-1,5.08-1.45,2.29-.45,5.05-.68,8.28-.68Zm.58,46.65c2.45,0,4.6-.08,6.44-.24,1.84-.16,3.4-.37,4.69-.63v-17.62c-.71-.32-1.84-.66-3.39-1.02-1.55-.35-3.68-.53-6.39-.53-1.55,0-3.16.11-4.84.34-1.68.23-3.23.71-4.65,1.45-1.42.74-2.58,1.76-3.48,3.05-.9,1.29-1.36,3-1.36,5.13,0,1.87.31,3.45.92,4.74.61,1.29,1.48,2.32,2.61,3.1,1.13.77,2.48,1.34,4.06,1.69,1.58.36,3.37.53,5.37.53Z"/>
    <path d="m705.23,130.65c-2.13-.07-3.98-.34-5.56-.82-1.58-.48-2.9-1.23-3.97-2.23-1.06-1-1.87-2.29-2.42-3.87-.55-1.58-.82-3.56-.82-5.95v-61.94l6.29-1.16v62.91c0,1.55.15,2.79.44,3.73.29.94.73,1.68,1.31,2.23.58.55,1.34.95,2.27,1.21.93.26,2.05.48,3.34.68l-.87,5.23Z"/>
  </g>
  <rect class="cls-2" x="0" width="254.06" height="387.14"/>
  <g>
    <rect class="cls-2" x="0" width="254.06" height="400"/>
    <rect class="cls-1" x="30.25" y="169.38" width="193.57" height="193.57"/>
    <circle class="cls-3" cx="58.09" cy="255.92" r="26.3"/>
    <circle class="cls-3" cx="167.63" cy="198.24" r="26.3"/>
    <path class="cls-3" d="m117.41,323.61c-18.95-4.06-34.78-16.16-43.68-33.32-7.01,3.19-14.9,4.16-22.49,2.76,10.77,26.45,33.61,45.66,61.65,51.67,6.15,1.32,12.42,1.96,18.68,1.92-4.83-6.35-7.52-14.01-7.7-21.99-2.17-.24-4.33-.59-6.45-1.05Z"/>
    <circle class="cls-3" cx="161.71" cy="323.76" r="26.3"/>
    <path class="cls-3" d="m198.31,314.1c8.18-10.31,13.94-22.5,16.71-35.45,4.84-22.59.32-46.29-12.4-65.51-3.03,7.14-8.17,13.17-14.79,17.32,7.1,13.38,9.26,28.82,6.08,43.67-1.56,7.27-4.31,14.12-8.18,20.38,6.19,5.08,10.56,11.91,12.59,19.6Z"/>
    <path class="cls-3" d="m56.06,218.2c.67-.04,1.34-.05,2-.05,2.66,0,5.31.28,7.94.85,4.29.92,8.32,2.54,12.01,4.83,11.84-17.03,30.95-27.25,51.65-27.63.11-1.99.38-3.97.79-5.92,1.21-5.63,3.67-10.9,7.19-15.41-33.08-2.62-65.22,14.45-81.58,43.33Z"/>
  </g>
</svg>