<?xml version="1.0" encoding="UTF-8" standalone="no"?>
<svg
   id="Layer_1"
   data-name="Layer 1"
   viewBox="0 0 1400 400"
   version="1.1"
   xml:space="preserve"
   width="1400"
   height="400"
   xmlns:xlink="http://www.w3.org/1999/xlink"
   xmlns="http://www.w3.org/2000/svg"
   xmlns:svg="http://www.w3.org/2000/svg"><defs
     id="defs1"><style
       id="style1">
      .cls-1 {
        fill: none;
      }
      .cls-2 {
        fill: #e95420;
      }
      .cls-3 {
        fill: #fff;
      }
    </style>
  </defs>
  <g
     id="g9"
     transform="translate(2)">
    <path
       class="cls-3"
       d="m391.55,354.31c-11.28,0-21.75-2.02-31.43-6.06-9.68-4.04-18.09-9.93-25.24-17.67-7.15-7.74-12.79-17.29-16.91-28.65-4.13-11.36-6.18-24.36-6.18-39s2.23-27.64,6.69-39c4.46-11.36,10.39-20.91,17.8-28.65,7.4-7.74,15.99-13.59,25.75-17.54,9.76-3.95,19.94-5.93,30.54-5.93,6.56,0,12.53.42,17.92,1.26,5.38.84,10.1,1.89,14.14,3.16,4.04,1.26,7.49,2.52,10.35,3.79,2.86,1.26,5.05,2.4,6.56,3.41l-5.55,14.89c-4.21-2.52-9.55-5-16.03-7.45-6.48-2.44-14.51-3.66-24.11-3.66-10.94,0-20.49,1.85-28.65,5.55-8.16,3.7-15.02,8.92-20.57,15.65-5.55,6.73-9.72,14.73-12.5,23.98-2.78,9.26-4.17,19.52-4.17,30.8s1.39,22.09,4.17,31.43c2.78,9.34,6.86,17.29,12.24,23.86,5.38,6.56,11.99,11.61,19.82,15.15,7.83,3.53,16.79,5.3,26.88,5.3,11.11,0,20.4-1.05,27.89-3.16,7.49-2.1,13.17-4.25,17.04-6.44l4.8,14.64c-1.18.84-3.2,1.81-6.06,2.9-2.86,1.1-6.48,2.23-10.85,3.41-4.38,1.18-9.43,2.15-15.15,2.9-5.72.76-12.12,1.14-19.19,1.14Z"
       id="path1" />
    <path
       class="cls-3"
       d="m508.35,216.99c8.58,0,15.86,1.22,21.84,3.66,5.97,2.44,10.81,5.81,14.51,10.1,3.7,4.29,6.39,9.38,8.08,15.27,1.68,5.89,2.52,12.29,2.52,19.18v82.29c-1.68.5-4.13,1.05-7.32,1.64-3.2.59-6.9,1.22-11.11,1.89-4.21.67-8.88,1.22-14.01,1.64-5.14.42-10.39.63-15.78.63-6.9,0-13.25-.76-19.06-2.27-5.81-1.51-10.85-3.91-15.15-7.19-4.29-3.28-7.66-7.49-10.1-12.62-2.44-5.13-3.66-11.4-3.66-18.81s1.35-13.13,4.04-18.17c2.69-5.05,6.48-9.21,11.36-12.5,4.88-3.28,10.69-5.68,17.42-7.19,6.73-1.51,14.05-2.27,21.96-2.27,2.35,0,4.84.13,7.45.38,2.61.25,5.13.59,7.57,1.01,2.44.42,4.54.84,6.31,1.26,1.77.42,2.99.8,3.66,1.14v-8.08c0-4.54-.34-8.96-1.01-13.25-.67-4.29-2.15-8.16-4.42-11.61-2.27-3.45-5.47-6.22-9.59-8.33-4.13-2.1-9.55-3.16-16.28-3.16-9.59,0-16.75.67-21.46,2.02-4.71,1.35-8.16,2.44-10.35,3.28l-2.27-14.39c2.86-1.34,7.28-2.61,13.25-3.79,5.97-1.17,13.17-1.77,21.58-1.77Zm1.51,121.67c6.39,0,11.99-.21,16.79-.63,4.8-.42,8.87-.97,12.24-1.64v-45.94c-1.85-.84-4.8-1.72-8.84-2.65-4.04-.92-9.59-1.39-16.66-1.39-4.04,0-8.25.3-12.62.88-4.38.59-8.42,1.85-12.12,3.79-3.7,1.94-6.73,4.59-9.09,7.95-2.36,3.37-3.53,7.83-3.53,13.38,0,4.88.8,9,2.4,12.37,1.6,3.37,3.87,6.06,6.82,8.08,2.94,2.02,6.48,3.5,10.6,4.42,4.12.93,8.79,1.39,14.01,1.39Z"
       id="path2" />
    <path
       class="cls-3"
       d="m590.74,224.56c4.88-1.34,11.44-2.86,19.69-4.54,8.24-1.68,18.34-2.52,30.29-2.52,9.93,0,18.21,1.43,24.86,4.29,6.65,2.86,11.95,6.94,15.9,12.24,3.95,5.3,6.77,11.66,8.46,19.06,1.68,7.41,2.52,15.57,2.52,24.49v72.95h-16.41v-67.65c0-9.25-.63-17.08-1.89-23.48-1.26-6.39-3.37-11.61-6.31-15.65-2.95-4.04-6.82-6.94-11.61-8.71-4.8-1.77-10.81-2.65-18.05-2.65-7.74,0-14.43.42-20.07,1.26-5.64.84-9.3,1.6-10.98,2.27v114.6h-16.41v-125.96Z"
       id="path3" />
    <path
       class="cls-3"
       d="m839.74,285.4c0,10.27-1.47,19.61-4.42,28.02-2.95,8.42-7.07,15.57-12.37,21.46-5.3,5.89-11.57,10.48-18.81,13.76-7.24,3.28-15.23,4.92-23.98,4.92s-16.75-1.64-23.98-4.92c-7.24-3.28-13.5-7.86-18.81-13.76-5.3-5.89-9.43-13.04-12.37-21.46-2.95-8.41-4.42-17.75-4.42-28.02s1.47-19.6,4.42-28.02c2.94-8.41,7.07-15.61,12.37-21.58,5.3-5.97,11.57-10.6,18.81-13.88,7.23-3.28,15.23-4.92,23.98-4.92s16.74,1.64,23.98,4.92c7.23,3.28,13.5,7.91,18.81,13.88,5.3,5.98,9.42,13.17,12.37,21.58,2.94,8.42,4.42,17.76,4.42,28.02Zm-17.42,0c0-16.32-3.79-29.32-11.36-39-7.57-9.68-17.84-14.51-30.8-14.51s-23.22,4.84-30.8,14.51c-7.57,9.68-11.36,22.68-11.36,39s3.79,29.28,11.36,38.88c7.57,9.59,17.84,14.39,30.8,14.39s23.22-4.8,30.8-14.39c7.57-9.59,11.36-22.55,11.36-38.88Z"
       id="path4" />
    <path
       class="cls-3"
       d="m869.29,224.56c4.88-1.34,11.44-2.86,19.69-4.54,8.24-1.68,18.34-2.52,30.29-2.52,9.93,0,18.21,1.43,24.86,4.29,6.65,2.86,11.95,6.94,15.9,12.24,3.95,5.3,6.77,11.66,8.46,19.06,1.68,7.41,2.52,15.57,2.52,24.49v72.95h-16.41v-67.65c0-9.25-.63-17.08-1.89-23.48-1.26-6.39-3.37-11.61-6.31-15.65-2.95-4.04-6.82-6.94-11.61-8.71-4.8-1.77-10.81-2.65-18.05-2.65-7.74,0-14.43.42-20.07,1.26-5.64.84-9.3,1.6-10.98,2.27v114.6h-16.41v-125.96Z"
       id="path5" />
    <path
       class="cls-3"
       d="m1025.97,180.64c0,3.87-1.18,6.94-3.53,9.21-2.36,2.27-5.22,3.41-8.58,3.41s-6.23-1.14-8.58-3.41c-2.36-2.27-3.53-5.34-3.53-9.21s1.18-6.94,3.53-9.21c2.35-2.27,5.21-3.41,8.58-3.41s6.22,1.14,8.58,3.41c2.36,2.27,3.53,5.34,3.53,9.21Zm-3.79,169.89h-16.41v-130.51h16.41v130.51Z"
       id="path6" />
    <path
       class="cls-3"
       d="m1112.84,353.3c-10.1,0-19.02-1.6-26.76-4.8-7.74-3.2-14.18-7.78-19.31-13.76-5.14-5.97-9.05-13.13-11.74-21.46-2.69-8.33-4.04-17.54-4.04-27.64s1.39-19.6,4.17-28.02c2.78-8.41,6.77-15.65,11.99-21.71,5.21-6.06,11.53-10.73,18.93-14.01,7.4-3.28,15.73-4.92,24.99-4.92,7.07,0,13.67.59,19.82,1.77,6.14,1.18,10.89,2.69,14.26,4.54l-4.29,14.14c-3.37-1.68-7.15-3.03-11.36-4.04-4.21-1.01-9.84-1.51-16.91-1.51-14.47,0-25.46,4.67-32.94,14.01-7.49,9.34-11.23,22.59-11.23,39.76,0,7.74.84,14.85,2.52,21.33,1.68,6.48,4.42,12.03,8.2,16.66,3.79,4.63,8.67,8.25,14.64,10.85,5.97,2.61,13.25,3.91,21.83,3.91,7.07,0,13-.8,17.8-2.4,4.8-1.6,8.29-2.99,10.48-4.17l3.53,14.14c-3.03,1.68-7.79,3.33-14.26,4.92-6.48,1.6-13.25,2.4-20.32,2.4Z"
       id="path7" />
    <path
       class="cls-3"
       d="m1211.61,216.99c8.58,0,15.86,1.22,21.83,3.66,5.97,2.44,10.81,5.81,14.52,10.1,3.7,4.29,6.39,9.38,8.08,15.27,1.68,5.89,2.52,12.29,2.52,19.18v82.29c-1.68.5-4.13,1.05-7.32,1.64-3.2.59-6.9,1.22-11.11,1.89-4.21.67-8.88,1.22-14.01,1.64-5.13.42-10.39.63-15.78.63-6.9,0-13.25-.76-19.06-2.27-5.81-1.51-10.85-3.91-15.15-7.19-4.29-3.28-7.66-7.49-10.1-12.62-2.44-5.13-3.66-11.4-3.66-18.81s1.34-13.13,4.04-18.17c2.69-5.05,6.48-9.21,11.36-12.5,4.88-3.28,10.69-5.68,17.42-7.19,6.73-1.51,14.05-2.27,21.96-2.27,2.35,0,4.83.13,7.45.38,2.61.25,5.13.59,7.57,1.01,2.44.42,4.54.84,6.31,1.26,1.77.42,2.99.8,3.66,1.14v-8.08c0-4.54-.34-8.96-1.01-13.25-.67-4.29-2.15-8.16-4.42-11.61-2.27-3.45-5.47-6.22-9.59-8.33-4.13-2.1-9.55-3.16-16.28-3.16-9.59,0-16.75.67-21.46,2.02-4.71,1.35-8.17,2.44-10.35,3.28l-2.27-14.39c2.86-1.34,7.28-2.61,13.25-3.79,5.97-1.17,13.17-1.77,21.58-1.77Zm1.51,121.67c6.39,0,11.99-.21,16.79-.63,4.8-.42,8.87-.97,12.24-1.64v-45.94c-1.85-.84-4.8-1.72-8.83-2.65-4.04-.92-9.59-1.39-16.66-1.39-4.04,0-8.25.3-12.62.88-4.38.59-8.42,1.85-12.12,3.79-3.7,1.94-6.73,4.59-9.09,7.95-2.36,3.37-3.53,7.83-3.53,13.38,0,4.88.8,9,2.4,12.37,1.6,3.37,3.87,6.06,6.82,8.08,2.94,2.02,6.48,3.5,10.6,4.42,4.12.93,8.79,1.39,14.01,1.39Z"
       id="path8" />
    <path
       class="cls-3"
       d="m1326.74,352.8c-5.55-.17-10.39-.88-14.51-2.15-4.13-1.26-7.57-3.2-10.35-5.81-2.78-2.61-4.88-5.97-6.31-10.1-1.43-4.12-2.15-9.3-2.15-15.52v-161.56l16.41-3.03v164.08c0,4.04.38,7.28,1.14,9.72.76,2.44,1.89,4.38,3.41,5.81,1.51,1.43,3.49,2.49,5.93,3.16,2.44.67,5.34,1.26,8.71,1.77l-2.27,13.63Z"
       id="path9" />
  </g>
  <g
     id="CoF-rect"><rect
       class="cls-2"
       width="254"
       height="400"
       id="rect15"
       x="0"
       y="0" /><g
       id="CoF"
       transform="matrix(0.36538462,0,0,0.36538462,31.999999,168.96923)"><path
         id="circle"
         class="cls-3"
         d="M 280,16 C 184.66864,16 102.01684,72.109047 63.339844,152.97656 A 104,104 0 0 1 72,152 104,104 0 0 1 127.09961,168.56641 C 157.3438,115.56655 214.30843,80 280,80 c 0.24767,0 0.49086,0.01657 0.73828,0.01758 a 104,104 0 0 1 13.19531,-56.15039 104,104 0 0 1 5.18946,-7.033204 C 292.80616,16.331285 286.44221,16 280,16 Z m 197.90234,104.5625 a 104,104 0 0 1 -3.83593,7.30469 104,104 0 0 1 -41.89258,39.43164 C 447.30725,193.31207 456,223.58627 456,256 c 0,32.41373 -8.69275,62.68793 -23.82617,88.70117 a 104,104 0 0 1 41.89258,39.43164 104,104 0 0 1 3.83593,7.30469 C 504.42506,352.84086 520,306.18553 520,256 520,205.81447 504.42506,159.15914 477.90234,120.5625 Z M 127.4043,343.96289 A 104,104 0 0 1 72,360 104,104 0 0 1 63.339844,359.02344 C 102.01684,439.89095 184.66864,496 280,496 c 6.44221,0 12.80616,-0.33128 19.12305,-0.83398 a 104,104 0 0 1 -5.18946,-7.03321 104,104 0 0 1 -13.19531,-56.15039 C 280.49086,431.98343 280.24767,432 280,432 214.52761,432 157.72537,396.66958 127.4043,343.96289 Z" /><circle
         class="cls-3"
         id="head"
         cx="72"
         cy="256"
         r="72" /><use
         x="0"
         y="0"
         xlink:href="#head"
         id="use3"
         transform="rotate(120,280,256)" /><use
         x="0"
         y="0"
         xlink:href="#head"
         id="use4"
         transform="rotate(-120,280,256)" /></g></g>
</svg>
