<?xml version="1.0" encoding="UTF-8" standalone="no"?>
<svg
   id="Layer_1"
   data-name="Layer 1"
   viewBox="0 0 1568 400"
   version="1.1"
   xml:space="preserve"
   width="1568"
   height="400"
   xmlns:xlink="http://www.w3.org/1999/xlink"
   xmlns="http://www.w3.org/2000/svg"
   xmlns:svg="http://www.w3.org/2000/svg"><defs
     id="defs1"><style
       id="style1">
      .cls-1 {
        fill: none;
      }

      .cls-2 {
        fill: #e95420;
      }

      .cls-3 {
        fill: #fff;
      }
    </style>
  </defs>
  <g
     id="g9">
    <path
       class="cls-3"
       d="m 476.38,262.04 c 0,15.08 -2.2,28.37 -6.61,39.89 -4.41,11.52 -10.38,21.13 -17.91,28.84 -7.54,7.71 -16.3,13.51 -26.29,17.4 -10,3.89 -20.58,5.84 -31.76,5.84 -11.18,0 -21.77,-1.95 -31.76,-5.84 -10,-3.89 -18.76,-9.69 -26.3,-17.4 -7.54,-7.71 -13.51,-17.32 -17.91,-28.84 -4.41,-11.52 -6.61,-24.81 -6.61,-39.89 0,-15.08 2.2,-28.33 6.61,-39.76 4.4,-11.43 10.37,-21 17.91,-28.71 7.53,-7.71 16.3,-13.5 26.3,-17.4 9.99,-3.89 20.58,-5.84 31.76,-5.84 11.18,0 21.76,1.95 31.76,5.84 9.99,3.9 18.76,9.7 26.29,17.4 7.54,7.71 13.5,17.28 17.91,28.71 4.4,11.43 6.61,24.69 6.61,39.76 z m -18.29,0 c 0,-11.85 -1.52,-22.48 -4.57,-31.88 -3.05,-9.4 -7.37,-17.4 -12.96,-24.01 -5.59,-6.61 -12.32,-11.64 -20.2,-15.12 -7.88,-3.47 -16.73,-5.21 -26.55,-5.21 -9.82,0 -18.67,1.74 -26.55,5.21 -7.88,3.47 -14.61,8.51 -20.2,15.12 -5.59,6.61 -9.91,14.61 -12.96,24.01 -3.05,9.4 -4.57,20.03 -4.57,31.88 0,11.85 1.52,22.49 4.57,31.89 3.05,9.4 7.37,17.4 12.96,24.01 5.59,6.61 12.32,11.69 20.2,15.24 7.88,3.56 16.72,5.34 26.55,5.34 9.83,0 18.67,-1.78 26.55,-5.34 7.88,-3.56 14.61,-8.64 20.2,-15.24 5.59,-6.6 9.91,-14.61 12.96,-24.01 3.05,-9.4 4.57,-20.03 4.57,-31.89 z"
       id="path1" />
    <path
       class="cls-3"
       d="M 525.58,397.2 H 509.07 V 223.42 c 4.91,-1.69 11.18,-3.3 18.8,-4.83 7.62,-1.52 17.28,-2.29 28.96,-2.29 9.65,0 18.42,1.57 26.3,4.7 7.88,3.14 14.65,7.67 20.32,13.59 5.67,5.93 10.08,13.13 13.21,21.6 3.13,8.47 4.7,18.04 4.7,28.71 0,10 -1.31,19.18 -3.94,27.57 -2.63,8.38 -6.48,15.58 -11.56,21.6 -5.08,6.01 -11.31,10.71 -18.67,14.1 -7.37,3.39 -15.79,5.08 -25.28,5.08 -8.64,0 -16.13,-1.23 -22.48,-3.68 -6.35,-2.45 -10.97,-4.78 -13.85,-6.99 z m 0,-70.63 c 1.52,1.19 3.43,2.46 5.72,3.81 2.29,1.36 4.95,2.63 8,3.81 3.05,1.19 6.35,2.16 9.91,2.92 3.56,0.76 7.28,1.14 11.18,1.14 8.13,0 14.95,-1.4 20.45,-4.19 5.5,-2.79 9.95,-6.61 13.34,-11.43 3.39,-4.83 5.84,-10.5 7.37,-17.02 1.52,-6.52 2.29,-13.42 2.29,-20.71 0,-17.28 -4.32,-30.53 -12.96,-39.76 -8.64,-9.23 -20.07,-13.85 -34.3,-13.85 -8.13,0 -14.7,0.38 -19.69,1.14 -5,0.76 -8.76,1.57 -11.31,2.41 v 91.72 z"
       id="path2" />
    <path
       class="cls-3"
       d="m 643.95,284.4 c 0,-11.52 1.65,-21.55 4.95,-30.11 3.3,-8.55 7.62,-15.71 12.96,-21.47 5.33,-5.76 11.43,-10.04 18.29,-12.83 6.86,-2.79 13.93,-4.19 21.21,-4.19 16.09,0 28.92,5.25 38.49,15.75 9.57,10.5 14.36,26.68 14.36,48.53 0,1.36 -0.04,2.71 -0.13,4.06 -0.09,1.36 -0.21,2.63 -0.38,3.81 h -92.22 c 0.51,16.09 4.49,28.46 11.94,37.09 7.45,8.64 19.31,12.96 35.57,12.96 8.98,0 16.09,-0.85 21.34,-2.54 5.25,-1.69 9.06,-3.13 11.43,-4.32 l 3.05,14.23 c -2.38,1.36 -6.82,2.97 -13.34,4.83 -6.52,1.86 -14.19,2.79 -22.99,2.79 -11.52,0 -21.34,-1.7 -29.47,-5.08 -8.13,-3.39 -14.82,-8.13 -20.07,-14.23 -5.25,-6.1 -9.06,-13.34 -11.43,-21.72 -2.37,-8.38 -3.56,-17.57 -3.56,-27.57 z m 93.24,-10.42 c -0.34,-13.72 -3.56,-24.39 -9.65,-32.01 -6.09,-7.62 -14.74,-11.43 -25.91,-11.43 -5.93,0 -11.22,1.19 -15.88,3.56 -4.66,2.37 -8.72,5.55 -12.2,9.53 -3.47,3.98 -6.18,8.6 -8.13,13.85 -1.95,5.25 -3.09,10.76 -3.43,16.51 h 75.2 z"
       id="path3" />
    <path
       class="cls-3"
       d="m 783.17,223.42 c 4.91,-1.35 11.52,-2.88 19.82,-4.57 8.3,-1.69 18.46,-2.54 30.49,-2.54 9.99,0 18.33,1.44 25.03,4.32 6.69,2.88 12.03,6.99 16.01,12.32 3.98,5.33 6.82,11.73 8.51,19.18 1.69,7.46 2.54,15.67 2.54,24.64 v 73.42 H 869.06 V 282.1 c 0,-9.31 -0.64,-17.19 -1.91,-23.63 -1.27,-6.43 -3.39,-11.69 -6.35,-15.75 -2.96,-4.06 -6.86,-6.99 -11.69,-8.76 -4.83,-1.78 -10.88,-2.67 -18.16,-2.67 -7.79,0 -14.53,0.42 -20.2,1.27 -5.68,0.85 -9.36,1.61 -11.05,2.29 V 350.19 H 783.19 V 223.41 Z"
       id="path4" />
    <path
       class="cls-3"
       d="m 961.65,339.02 c 13.72,0 24.39,-2.5 32.01,-7.51 7.62,-5.01 11.43,-13.12 11.43,-24.32 0,-6.45 -1.23,-11.84 -3.68,-16.17 -2.46,-4.33 -5.72,-7.98 -9.78,-10.95 -4.06,-2.97 -8.73,-5.51 -13.97,-7.61 -5.25,-2.1 -10.76,-4.33 -16.51,-6.69 -7.28,-2.86 -13.81,-5.8 -19.56,-8.84 -5.76,-3.03 -10.67,-6.45 -14.74,-10.26 -4.06,-3.81 -7.16,-8.17 -9.27,-13.08 -2.12,-4.91 -3.18,-10.67 -3.18,-17.28 0,-15.07 4.99,-26.51 14.99,-34.3 9.99,-7.79 23.88,-11.69 41.67,-11.69 4.74,0 9.4,0.34 13.97,1.02 4.57,0.68 8.85,1.57 12.83,2.67 3.98,1.1 7.62,2.33 10.92,3.68 3.3,1.36 6.05,2.79 8.26,4.32 l -6.1,14.48 c -4.91,-3.39 -10.88,-6.1 -17.91,-8.13 -7.03,-2.03 -14.61,-3.05 -22.74,-3.05 -5.59,0 -10.71,0.55 -15.37,1.65 -4.66,1.1 -8.68,2.88 -12.07,5.33 -3.39,2.46 -6.06,5.55 -8,9.27 -1.95,3.73 -2.92,8.22 -2.92,13.47 0,5.25 1.02,10 3.05,13.72 2.03,3.73 4.87,6.95 8.51,9.66 3.64,2.71 7.91,5.17 12.83,7.37 4.91,2.2 10.25,4.49 16.01,6.86 6.94,2.88 13.5,5.76 19.69,8.64 6.18,2.88 11.56,6.27 16.13,10.16 4.57,3.9 8.21,8.64 10.92,14.23 2.71,5.59 4.07,12.45 4.07,20.58 0,15.92 -5.55,27.86 -16.64,35.82 -11.1,7.96 -26.13,11.94 -45.1,11.94 -6.78,0 -12.96,-0.42 -18.55,-1.27 -5.59,-0.85 -10.59,-1.91 -14.99,-3.18 -4.41,-1.27 -8.13,-2.58 -11.18,-3.94 -3.05,-1.35 -5.42,-2.54 -7.11,-3.56 l 5.59,-14.99 c 1.69,1.02 3.98,2.2 6.86,3.56 2.88,1.36 6.26,2.67 10.16,3.94 3.89,1.27 8.3,2.33 13.21,3.18 4.91,0.85 10.33,1.27 16.26,1.27 z"
       id="path5" />
    <path
       class="cls-3"
       d="m 1064.16,218.85 h 52.34 v 13.97 h -52.34 v 69.87 c 0,7.46 0.63,13.51 1.9,18.17 1.27,4.66 3.09,8.26 5.46,10.8 2.37,2.54 5.25,4.24 8.64,5.08 3.38,0.85 7.11,1.27 11.18,1.27 6.94,0 12.53,-0.8 16.77,-2.41 4.23,-1.61 7.54,-3.09 9.91,-4.45 l 4.07,13.72 c -2.38,1.52 -6.52,3.26 -12.45,5.21 -5.93,1.95 -12.37,2.92 -19.31,2.92 -8.13,0 -14.95,-1.06 -20.45,-3.18 -5.51,-2.12 -9.91,-5.34 -13.21,-9.65 -3.3,-4.32 -5.63,-9.69 -6.99,-16.13 -1.36,-6.44 -2.03,-14.06 -2.03,-22.87 V 180.24 l 16.52,-3.05 v 41.67 z"
       id="path6" />
    <path
       class="cls-3"
       d="m 1185.3,215.8 c 8.64,0 15.96,1.23 21.98,3.68 6.01,2.46 10.88,5.84 14.61,10.16 3.72,4.32 6.43,9.44 8.13,15.37 1.69,5.93 2.54,12.37 2.54,19.31 v 82.82 c -1.7,0.51 -4.15,1.06 -7.37,1.65 -3.22,0.6 -6.95,1.23 -11.18,1.91 -4.23,0.67 -8.94,1.23 -14.1,1.65 -5.17,0.42 -10.46,0.64 -15.88,0.64 -6.95,0 -13.34,-0.76 -19.18,-2.29 -5.84,-1.53 -10.93,-3.94 -15.24,-7.24 -4.31,-3.3 -7.71,-7.54 -10.16,-12.7 -2.46,-5.17 -3.68,-11.47 -3.68,-18.93 0,-7.46 1.35,-13.21 4.06,-18.29 2.71,-5.08 6.52,-9.27 11.43,-12.58 4.91,-3.3 10.76,-5.72 17.53,-7.24 6.77,-1.52 14.14,-2.29 22.1,-2.29 2.37,0 4.87,0.13 7.49,0.38 2.62,0.25 5.17,0.59 7.62,1.02 2.45,0.42 4.57,0.85 6.35,1.27 1.78,0.42 3,0.81 3.68,1.14 v -8.13 c 0,-4.57 -0.34,-9.02 -1.02,-13.34 -0.68,-4.32 -2.16,-8.21 -4.45,-11.69 -2.29,-3.47 -5.51,-6.26 -9.65,-8.38 -4.15,-2.12 -9.62,-3.18 -16.39,-3.18 -9.65,0 -16.86,0.68 -21.6,2.03 -4.74,1.36 -8.22,2.46 -10.42,3.3 l -2.29,-14.48 c 2.88,-1.35 7.32,-2.62 13.34,-3.81 6.01,-1.18 13.25,-1.78 21.72,-1.78 z m 1.53,122.46 c 6.43,0 12.07,-0.21 16.89,-0.63 4.83,-0.42 8.93,-0.97 12.32,-1.65 v -46.24 c -1.87,-0.85 -4.83,-1.74 -8.89,-2.67 -4.06,-0.93 -9.65,-1.4 -16.77,-1.4 -4.06,0 -8.3,0.3 -12.7,0.89 -4.41,0.6 -8.47,1.87 -12.2,3.81 -3.73,1.95 -6.78,4.62 -9.15,8 -2.37,3.39 -3.56,7.88 -3.56,13.47 0,4.91 0.8,9.06 2.41,12.45 1.61,3.39 3.89,6.1 6.86,8.13 2.96,2.03 6.52,3.52 10.67,4.45 4.15,0.93 8.85,1.4 14.1,1.4 z"
       id="path7" />
    <path
       class="cls-3"
       d="m 1323.56,353 c -10.16,0 -19.14,-1.61 -26.93,-4.83 -7.79,-3.22 -14.27,-7.83 -19.44,-13.85 -5.17,-6.01 -9.11,-13.21 -11.81,-21.6 -2.71,-8.38 -4.06,-17.66 -4.06,-27.82 0,-10.16 1.4,-19.73 4.19,-28.2 2.79,-8.47 6.82,-15.75 12.07,-21.85 5.25,-6.1 11.6,-10.8 19.05,-14.1 7.45,-3.3 15.84,-4.95 25.15,-4.95 7.11,0 13.76,0.6 19.94,1.78 6.18,1.19 10.96,2.71 14.36,4.57 l -4.32,14.23 c -3.39,-1.69 -7.2,-3.05 -11.43,-4.06 -4.24,-1.02 -9.91,-1.52 -17.02,-1.52 -14.57,0 -25.62,4.7 -33.16,14.1 -7.54,9.4 -11.3,22.74 -11.3,40.01 0,7.79 0.85,14.95 2.54,21.47 1.69,6.52 4.45,12.11 8.26,16.77 3.81,4.66 8.72,8.3 14.74,10.92 6.01,2.63 13.34,3.94 21.98,3.94 7.11,0 13.08,-0.8 17.91,-2.41 4.83,-1.61 8.34,-3 10.54,-4.19 l 3.56,14.23 c -3.05,1.7 -7.84,3.35 -14.36,4.95 -6.52,1.61 -13.34,2.41 -20.45,2.41 z"
       id="path8" />
    <path
       class="cls-3"
       d="m 1413.87,278.68 c 5.99,4.22 12.03,9.08 18.13,14.6 6.1,5.53 12.11,11.51 18.04,17.95 5.92,6.44 11.51,13.05 16.75,19.83 5.24,6.78 9.7,13.16 13.39,19.13 h -19.85 c -3.98,-6.68 -8.59,-13.22 -13.84,-19.65 -5.25,-6.42 -10.76,-12.46 -16.52,-18.13 -5.76,-5.67 -11.53,-10.84 -17.3,-15.51 -5.76,-4.67 -10.87,-8.18 -15.32,-10.52 v 63.81 h -16.51 v -194.1 l 16.51,-3.05 v 122.38 c 3.53,-3.03 7.94,-7.15 13.21,-12.38 5.27,-5.22 10.65,-10.48 16.12,-15.77 5.47,-5.29 10.63,-10.41 15.5,-15.37 4.86,-4.96 8.94,-9.31 12.23,-13.06 h 20.18 c -3.89,4.07 -8.35,8.59 -13.38,13.54 -5.04,4.96 -10.28,10.13 -15.74,15.51 -5.46,5.38 -10.83,10.67 -16.12,15.89 -5.29,5.21 -10.45,10.17 -15.48,14.89 z"
       id="path9" />
  </g>
  <g
     id="g18">
    <path
       class="cls-3"
       d="m 346.66,131.23 c -4.32,0 -8.34,-0.77 -12.05,-2.32 -3.71,-1.55 -6.94,-3.81 -9.68,-6.78 -2.74,-2.97 -4.9,-6.63 -6.48,-10.98 -1.58,-4.36 -2.37,-9.34 -2.37,-14.95 0,-5.61 0.85,-10.6 2.56,-14.95 1.71,-4.36 3.98,-8.02 6.82,-10.99 2.84,-2.97 6.13,-5.21 9.87,-6.73 3.74,-1.52 7.65,-2.27 11.71,-2.27 2.52,0 4.81,0.16 6.87,0.48 2.06,0.32 3.87,0.73 5.42,1.21 1.55,0.48 2.87,0.97 3.97,1.45 1.1,0.48 1.94,0.92 2.52,1.31 l -2.13,5.71 c -1.61,-0.97 -3.66,-1.92 -6.15,-2.86 -2.48,-0.93 -5.56,-1.4 -9.24,-1.4 -4.2,0 -7.86,0.71 -10.99,2.13 -3.13,1.42 -5.76,3.42 -7.89,6 -2.13,2.58 -3.73,5.65 -4.79,9.19 -1.07,3.55 -1.6,7.49 -1.6,11.81 0,4.32 0.53,8.47 1.6,12.05 1.06,3.58 2.63,6.63 4.69,9.15 2.06,2.52 4.6,4.45 7.6,5.81 3,1.35 6.44,2.03 10.31,2.03 4.26,0 7.82,-0.4 10.69,-1.21 2.87,-0.81 5.05,-1.63 6.53,-2.47 l 1.84,5.61 c -0.45,0.32 -1.23,0.69 -2.32,1.11 -1.1,0.42 -2.49,0.86 -4.16,1.31 -1.68,0.45 -3.62,0.82 -5.81,1.11 -2.19,0.29 -4.65,0.44 -7.36,0.44 z"
       id="path10" />
    <path
       class="cls-3"
       d="m 391.44,78.58 c 3.29,0 6.08,0.47 8.37,1.4 2.29,0.94 4.15,2.23 5.57,3.87 1.42,1.65 2.45,3.6 3.1,5.86 0.64,2.26 0.97,4.71 0.97,7.36 v 31.55 c -0.65,0.19 -1.58,0.4 -2.81,0.63 -1.23,0.23 -2.65,0.47 -4.26,0.73 -1.61,0.26 -3.4,0.47 -5.37,0.63 -1.97,0.16 -3.98,0.24 -6.05,0.24 -2.65,0 -5.08,-0.29 -7.31,-0.87 -2.23,-0.58 -4.16,-1.5 -5.81,-2.76 -1.64,-1.26 -2.94,-2.87 -3.87,-4.84 -0.94,-1.97 -1.4,-4.37 -1.4,-7.21 0,-2.84 0.52,-5.03 1.55,-6.97 1.03,-1.94 2.48,-3.53 4.36,-4.79 1.87,-1.26 4.1,-2.18 6.68,-2.76 2.58,-0.58 5.39,-0.87 8.42,-0.87 0.9,0 1.85,0.05 2.86,0.15 1,0.1 1.97,0.23 2.9,0.39 0.94,0.16 1.74,0.32 2.42,0.48 0.68,0.16 1.14,0.31 1.4,0.44 v -3.1 c 0,-1.74 -0.13,-3.44 -0.39,-5.08 -0.26,-1.65 -0.82,-3.13 -1.69,-4.45 -0.87,-1.32 -2.1,-2.39 -3.68,-3.19 -1.58,-0.81 -3.66,-1.21 -6.24,-1.21 -3.68,0 -6.42,0.26 -8.23,0.77 -1.81,0.52 -3.13,0.94 -3.97,1.26 l -0.87,-5.52 c 1.1,-0.52 2.79,-1 5.08,-1.45 2.29,-0.45 5.05,-0.68 8.28,-0.68 z m 0.58,46.65 c 2.45,0 4.6,-0.08 6.44,-0.24 1.84,-0.16 3.4,-0.37 4.69,-0.63 v -17.62 c -0.71,-0.32 -1.84,-0.66 -3.39,-1.02 -1.55,-0.35 -3.68,-0.53 -6.39,-0.53 -1.55,0 -3.16,0.11 -4.84,0.34 -1.68,0.23 -3.23,0.71 -4.65,1.45 -1.42,0.74 -2.58,1.76 -3.48,3.05 -0.9,1.29 -1.35,3 -1.35,5.13 0,1.87 0.3,3.45 0.92,4.74 0.61,1.29 1.48,2.32 2.61,3.1 1.13,0.77 2.48,1.34 4.07,1.69 1.58,0.36 3.37,0.53 5.37,0.53 z"
       id="path11" />
    <path
       class="cls-3"
       d="m 423.03,81.48 c 1.87,-0.52 4.39,-1.1 7.55,-1.74 3.16,-0.64 7.03,-0.97 11.61,-0.97 3.81,0 6.98,0.55 9.53,1.65 2.55,1.1 4.58,2.66 6.1,4.69 1.51,2.03 2.6,4.47 3.24,7.31 0.64,2.84 0.97,5.97 0.97,9.39 v 27.97 h -6.29 v -25.94 c 0,-3.55 -0.24,-6.55 -0.73,-9 -0.48,-2.45 -1.29,-4.45 -2.42,-6 -1.13,-1.55 -2.61,-2.66 -4.45,-3.34 -1.84,-0.68 -4.15,-1.02 -6.92,-1.02 -2.97,0 -5.53,0.16 -7.7,0.48 -2.16,0.32 -3.57,0.61 -4.21,0.87 v 43.94 h -6.29 v -48.3 z"
       id="path12" />
    <path
       class="cls-3"
       d="m 518.5,104.81 c 0,3.94 -0.56,7.52 -1.69,10.74 -1.13,3.23 -2.71,5.97 -4.74,8.23 -2.03,2.26 -4.44,4.02 -7.21,5.28 -2.77,1.26 -5.84,1.89 -9.19,1.89 -3.35,0 -6.42,-0.63 -9.19,-1.89 -2.78,-1.26 -5.18,-3.02 -7.21,-5.28 -2.03,-2.26 -3.61,-5 -4.74,-8.23 -1.13,-3.23 -1.69,-6.81 -1.69,-10.74 0,-3.93 0.56,-7.52 1.69,-10.74 1.13,-3.23 2.71,-5.98 4.74,-8.28 2.03,-2.29 4.44,-4.06 7.21,-5.32 2.77,-1.26 5.84,-1.89 9.19,-1.89 3.35,0 6.42,0.63 9.19,1.89 2.77,1.26 5.18,3.03 7.21,5.32 2.03,2.29 3.61,5.05 4.74,8.28 1.13,3.23 1.69,6.81 1.69,10.74 z m -6.68,0 c 0,-6.26 -1.45,-11.24 -4.36,-14.95 -2.9,-3.71 -6.84,-5.57 -11.81,-5.57 -4.97,0 -8.9,1.86 -11.81,5.57 -2.9,3.71 -4.36,8.7 -4.36,14.95 0,6.25 1.45,11.23 4.36,14.91 2.9,3.68 6.84,5.52 11.81,5.52 4.97,0 8.9,-1.84 11.81,-5.52 2.9,-3.68 4.36,-8.65 4.36,-14.91 z"
       id="path13" />
    <path
       class="cls-3"
       d="m 529.83,81.48 c 1.87,-0.52 4.39,-1.1 7.55,-1.74 3.16,-0.64 7.03,-0.97 11.61,-0.97 3.81,0 6.98,0.55 9.53,1.65 2.55,1.1 4.58,2.66 6.1,4.69 1.52,2.03 2.6,4.47 3.24,7.31 0.64,2.84 0.97,5.97 0.97,9.39 v 27.97 h -6.29 v -25.94 c 0,-3.55 -0.24,-6.55 -0.73,-9 -0.48,-2.45 -1.29,-4.45 -2.42,-6 -1.13,-1.55 -2.61,-2.66 -4.45,-3.34 -1.84,-0.68 -4.15,-1.02 -6.92,-1.02 -2.97,0 -5.53,0.16 -7.7,0.48 -2.16,0.32 -3.57,0.61 -4.21,0.87 v 43.94 h -6.29 v -48.3 z"
       id="path14" />
    <path
       class="cls-3"
       d="m 589.91,64.64 c 0,1.49 -0.45,2.66 -1.36,3.53 -0.9,0.87 -2,1.31 -3.29,1.31 -1.29,0 -2.39,-0.44 -3.29,-1.31 -0.9,-0.87 -1.35,-2.05 -1.35,-3.53 0,-1.48 0.45,-2.66 1.35,-3.53 0.9,-0.87 2,-1.31 3.29,-1.31 1.29,0 2.39,0.44 3.29,1.31 0.9,0.87 1.36,2.05 1.36,3.53 z m -1.45,65.14 h -6.29 V 79.74 h 6.29 z"
       id="path15" />
    <path
       class="cls-3"
       d="m 623.21,130.84 c -3.87,0 -7.29,-0.61 -10.26,-1.84 -2.97,-1.22 -5.44,-2.98 -7.4,-5.27 -1.97,-2.29 -3.47,-5.03 -4.5,-8.23 -1.03,-3.19 -1.55,-6.73 -1.55,-10.6 0,-3.87 0.53,-7.52 1.6,-10.74 1.06,-3.23 2.6,-6 4.6,-8.32 2,-2.32 4.42,-4.11 7.26,-5.37 2.84,-1.26 6.03,-1.89 9.58,-1.89 2.71,0 5.24,0.23 7.6,0.68 2.35,0.45 4.18,1.03 5.47,1.74 l -1.65,5.42 c -1.29,-0.64 -2.74,-1.16 -4.36,-1.55 -1.61,-0.39 -3.77,-0.58 -6.48,-0.58 -5.55,0 -9.76,1.79 -12.63,5.37 -2.87,3.58 -4.31,8.66 -4.31,15.24 0,2.97 0.32,5.7 0.97,8.18 0.64,2.48 1.69,4.61 3.15,6.39 1.45,1.78 3.32,3.16 5.61,4.16 2.29,1 5.08,1.5 8.37,1.5 2.71,0 4.98,-0.31 6.82,-0.92 1.84,-0.61 3.18,-1.14 4.02,-1.6 l 1.35,5.42 c -1.16,0.65 -2.99,1.27 -5.47,1.89 -2.49,0.61 -5.08,0.92 -7.79,0.92 z"
       id="path16" />
    <path
       class="cls-3"
       d="m 661.08,78.58 c 3.29,0 6.08,0.47 8.37,1.4 2.29,0.94 4.15,2.23 5.57,3.87 1.42,1.65 2.45,3.6 3.1,5.86 0.64,2.26 0.97,4.71 0.97,7.36 v 31.55 c -0.65,0.19 -1.58,0.4 -2.81,0.63 -1.23,0.23 -2.65,0.47 -4.26,0.73 -1.61,0.26 -3.4,0.47 -5.37,0.63 -1.97,0.16 -3.98,0.24 -6.05,0.24 -2.65,0 -5.08,-0.29 -7.31,-0.87 -2.23,-0.58 -4.16,-1.5 -5.81,-2.76 -1.64,-1.26 -2.94,-2.87 -3.87,-4.84 -0.94,-1.97 -1.4,-4.37 -1.4,-7.21 0,-2.84 0.52,-5.03 1.55,-6.97 1.03,-1.94 2.48,-3.53 4.36,-4.79 1.87,-1.26 4.1,-2.18 6.68,-2.76 2.58,-0.58 5.39,-0.87 8.42,-0.87 0.9,0 1.85,0.05 2.86,0.15 1,0.1 1.97,0.23 2.9,0.39 0.94,0.16 1.74,0.32 2.42,0.48 0.68,0.16 1.14,0.31 1.4,0.44 v -3.1 c 0,-1.74 -0.13,-3.44 -0.39,-5.08 -0.26,-1.65 -0.82,-3.13 -1.69,-4.45 -0.87,-1.32 -2.1,-2.39 -3.68,-3.19 -1.58,-0.81 -3.66,-1.21 -6.24,-1.21 -3.68,0 -6.42,0.26 -8.23,0.77 -1.81,0.52 -3.13,0.94 -3.97,1.26 l -0.87,-5.52 c 1.1,-0.52 2.79,-1 5.08,-1.45 2.29,-0.45 5.05,-0.68 8.28,-0.68 z m 0.58,46.65 c 2.45,0 4.6,-0.08 6.44,-0.24 1.84,-0.16 3.4,-0.37 4.69,-0.63 v -17.62 c -0.71,-0.32 -1.84,-0.66 -3.39,-1.02 -1.55,-0.35 -3.68,-0.53 -6.39,-0.53 -1.55,0 -3.16,0.11 -4.84,0.34 -1.68,0.23 -3.23,0.71 -4.65,1.45 -1.42,0.74 -2.58,1.76 -3.48,3.05 -0.9,1.29 -1.35,3 -1.35,5.13 0,1.87 0.3,3.45 0.92,4.74 0.61,1.29 1.48,2.32 2.61,3.1 1.13,0.77 2.48,1.34 4.07,1.69 1.58,0.36 3.37,0.53 5.37,0.53 z"
       id="path17" />
    <path
       class="cls-3"
       d="m 705.23,130.65 c -2.13,-0.07 -3.99,-0.34 -5.57,-0.82 -1.58,-0.48 -2.9,-1.23 -3.97,-2.23 -1.07,-1 -1.87,-2.29 -2.42,-3.87 -0.55,-1.58 -0.82,-3.56 -0.82,-5.95 V 55.84 l 6.29,-1.16 v 62.91 c 0,1.55 0.14,2.79 0.44,3.73 0.29,0.94 0.72,1.68 1.31,2.23 0.58,0.55 1.34,0.95 2.27,1.21 0.94,0.26 2.05,0.48 3.34,0.68 l -0.87,5.23 z"
       id="path18" />
  </g>
  <g
     id="CoF-rect"><rect
       class="cls-2"
       width="254"
       height="400"
       id="rect15"
       x="0"
       y="0" /><g
       id="CoF"
       transform="matrix(0.36538462,0,0,0.36538462,31.999999,168.96923)"><path
         id="circle"
         class="cls-3"
         d="M 280,16 C 184.66864,16 102.01684,72.109047 63.339844,152.97656 A 104,104 0 0 1 72,152 104,104 0 0 1 127.09961,168.56641 C 157.3438,115.56655 214.30843,80 280,80 c 0.24767,0 0.49086,0.01657 0.73828,0.01758 a 104,104 0 0 1 13.19531,-56.15039 104,104 0 0 1 5.18946,-7.033204 C 292.80616,16.331285 286.44221,16 280,16 Z m 197.90234,104.5625 a 104,104 0 0 1 -3.83593,7.30469 104,104 0 0 1 -41.89258,39.43164 C 447.30725,193.31207 456,223.58627 456,256 c 0,32.41373 -8.69275,62.68793 -23.82617,88.70117 a 104,104 0 0 1 41.89258,39.43164 104,104 0 0 1 3.83593,7.30469 C 504.42506,352.84086 520,306.18553 520,256 520,205.81447 504.42506,159.15914 477.90234,120.5625 Z M 127.4043,343.96289 A 104,104 0 0 1 72,360 104,104 0 0 1 63.339844,359.02344 C 102.01684,439.89095 184.66864,496 280,496 c 6.44221,0 12.80616,-0.33128 19.12305,-0.83398 a 104,104 0 0 1 -5.18946,-7.03321 104,104 0 0 1 -13.19531,-56.15039 C 280.49086,431.98343 280.24767,432 280,432 214.52761,432 157.72537,396.66958 127.4043,343.96289 Z" /><circle
         class="cls-3"
         id="head"
         cx="72"
         cy="256"
         r="72" /><use
         x="0"
         y="0"
         xlink:href="#head"
         id="use3"
         transform="rotate(120,280,256)" /><use
         x="0"
         y="0"
         xlink:href="#head"
         id="use4"
         transform="rotate(-120,280,256)" /></g></g>
</svg>
