<?xml version="1.0" encoding="UTF-8" standalone="no"?>
<svg
   id="Layer_1"
   viewBox="0 0 1114 400"
   version="1.1"
   xml:space="preserve"
   width="1114"
   height="400"
   xmlns:xlink="http://www.w3.org/1999/xlink"
   xmlns="http://www.w3.org/2000/svg"
   xmlns:svg="http://www.w3.org/2000/svg"><defs
     id="defs1"><style
       id="style1">
      .cls-1 {
        fill: none;
      }
      .cls-2 {
        fill: #e95420;
      }
      .cls-3 {
        fill: #fff;
      }
    </style></defs><g
     id="g6"><path
       d="m 381.86,354.01 c -11.69,0 -21.64,-1.78 -29.85,-5.33 -8.22,-3.56 -14.86,-8.47 -19.94,-14.74 -5.08,-6.26 -8.77,-13.59 -11.05,-21.98 -2.29,-8.38 -3.43,-17.4 -3.43,-27.06 V 174.13 h 17.28 v 108.49 c 0,9.65 1.14,18 3.43,25.03 2.29,7.03 5.46,12.83 9.53,17.4 4.06,4.57 8.98,7.96 14.74,10.16 5.76,2.21 12.2,3.3 19.31,3.3 7.11,0 13.55,-1.1 19.31,-3.3 5.76,-2.2 10.67,-5.59 14.74,-10.16 4.07,-4.57 7.24,-10.37 9.53,-17.4 2.29,-7.03 3.43,-15.37 3.43,-25.03 V 174.13 h 17.28 V 284.9 c 0,9.66 -1.14,18.67 -3.43,27.06 -2.29,8.38 -5.97,15.71 -11.05,21.98 -5.08,6.27 -11.73,11.18 -19.94,14.74 -8.22,3.56 -18.17,5.33 -29.85,5.33 z"
       id="path1" /><path
       d="m 500.61,226.73 c 2.88,-2.2 7.49,-4.53 13.85,-6.99 6.35,-2.45 13.85,-3.68 22.48,-3.68 9.48,0 17.91,1.69 25.28,5.08 7.37,3.39 13.59,8.13 18.67,14.23 5.08,6.1 8.93,13.34 11.56,21.72 2.62,8.38 3.94,17.57 3.94,27.56 0,10.67 -1.57,20.24 -4.7,28.71 -3.14,8.47 -7.54,15.67 -13.21,21.59 -5.68,5.93 -12.45,10.46 -20.33,13.59 -7.88,3.13 -16.64,4.7 -26.3,4.7 -11.69,0 -21.34,-0.76 -28.96,-2.29 -7.62,-1.52 -13.89,-3.13 -18.8,-4.83 V 156.08 l 16.51,-3.05 v 73.68 z m 0,107.98 c 2.54,0.85 6.31,1.65 11.31,2.41 4.99,0.76 11.56,1.14 19.69,1.14 14.23,0 25.66,-4.61 34.3,-13.85 8.64,-9.23 12.96,-22.48 12.96,-39.76 0,-7.28 -0.76,-14.18 -2.29,-20.71 -1.52,-6.52 -3.98,-12.2 -7.37,-17.02 -3.39,-4.83 -7.84,-8.68 -13.34,-11.56 -5.51,-2.88 -12.32,-4.32 -20.45,-4.32 -3.9,0 -7.62,0.38 -11.18,1.14 -3.56,0.76 -6.86,1.74 -9.91,2.92 -3.05,1.19 -5.72,2.46 -8,3.81 -2.29,1.36 -4.19,2.63 -5.72,3.81 v 91.97 z"
       id="path2" /><path
       d="m 726.96,345.63 c -4.91,1.36 -11.52,2.88 -19.82,4.57 -8.3,1.69 -18.46,2.54 -30.49,2.54 -9.83,0 -18.04,-1.44 -24.64,-4.32 -6.61,-2.88 -11.94,-6.94 -16.01,-12.2 -4.06,-5.25 -6.99,-11.6 -8.76,-19.05 -1.78,-7.45 -2.67,-15.67 -2.67,-24.64 v -73.68 h 16.51 v 68.34 c 0,9.32 0.68,17.19 2.03,23.63 1.35,6.44 3.56,11.65 6.61,15.62 3.05,3.98 6.99,6.86 11.81,8.64 4.83,1.78 10.71,2.67 17.66,2.67 7.79,0 14.56,-0.42 20.33,-1.27 5.76,-0.85 9.4,-1.61 10.92,-2.29 V 218.84 h 16.51 v 126.78 z"
       id="path3" /><path
       d="m 763.38,223.43 c 4.91,-1.35 11.52,-2.88 19.82,-4.57 8.3,-1.69 18.46,-2.54 30.49,-2.54 9.99,0 18.33,1.44 25.03,4.32 6.69,2.88 12.02,6.99 16.01,12.32 3.98,5.34 6.82,11.73 8.51,19.18 1.69,7.46 2.54,15.67 2.54,24.64 v 73.42 h -16.51 v -68.09 c 0,-9.31 -0.64,-17.19 -1.91,-23.63 -1.27,-6.44 -3.39,-11.69 -6.35,-15.75 -2.96,-4.06 -6.86,-6.99 -11.69,-8.77 -4.83,-1.78 -10.88,-2.67 -18.17,-2.67 -7.79,0 -14.53,0.43 -20.2,1.27 -5.68,0.85 -9.36,1.61 -11.05,2.29 V 350.19 H 763.39 V 223.41 Z"
       id="path4" /><path
       d="m 916.61,218.85 h 52.34 v 13.97 h -52.34 v 69.87 c 0,7.46 0.63,13.51 1.91,18.17 1.27,4.66 3.09,8.26 5.46,10.8 2.37,2.54 5.25,4.24 8.64,5.08 3.39,0.85 7.11,1.27 11.18,1.27 6.94,0 12.53,-0.8 16.77,-2.41 4.23,-1.61 7.53,-3.09 9.91,-4.45 l 4.07,13.72 c -2.37,1.52 -6.52,3.26 -12.45,5.21 -5.93,1.95 -12.37,2.92 -19.31,2.92 -8.13,0 -14.95,-1.06 -20.45,-3.18 -5.51,-2.12 -9.91,-5.34 -13.21,-9.65 -3.3,-4.31 -5.63,-9.69 -6.99,-16.13 -1.36,-6.44 -2.03,-14.06 -2.03,-22.87 V 180.23 l 16.51,-3.05 v 41.67 z"
       id="path5" /><path
       d="m 1094.4,345.63 c -4.91,1.36 -11.52,2.88 -19.82,4.57 -8.3,1.69 -18.46,2.54 -30.49,2.54 -9.83,0 -18.04,-1.44 -24.64,-4.32 -6.61,-2.88 -11.94,-6.94 -16.01,-12.2 -4.06,-5.25 -6.99,-11.6 -8.76,-19.05 -1.78,-7.45 -2.67,-15.67 -2.67,-24.64 v -73.68 h 16.51 v 68.34 c 0,9.32 0.68,17.19 2.03,23.63 1.35,6.44 3.56,11.65 6.61,15.62 3.05,3.98 6.99,6.86 11.81,8.64 4.83,1.78 10.71,2.67 17.66,2.67 7.79,0 14.56,-0.42 20.33,-1.27 5.76,-0.85 9.4,-1.61 10.92,-2.29 V 218.84 h 16.51 v 126.78 z"
       id="path6" /></g><g
     id="g15"><path
       d="m 346.66,131.23 c -4.32,0 -8.34,-0.78 -12.05,-2.32 -3.71,-1.55 -6.94,-3.81 -9.68,-6.78 -2.74,-2.97 -4.9,-6.63 -6.48,-10.98 -1.58,-4.36 -2.37,-9.34 -2.37,-14.95 0,-5.61 0.85,-10.6 2.56,-14.95 1.71,-4.36 3.98,-8.02 6.82,-10.99 2.84,-2.97 6.13,-5.21 9.87,-6.73 3.74,-1.52 7.65,-2.27 11.71,-2.27 2.52,0 4.81,0.16 6.87,0.48 2.06,0.32 3.87,0.73 5.42,1.21 1.55,0.48 2.87,0.97 3.97,1.45 1.1,0.48 1.94,0.92 2.52,1.31 l -2.13,5.71 c -1.61,-0.97 -3.66,-1.92 -6.15,-2.86 -2.48,-0.94 -5.56,-1.4 -9.24,-1.4 -4.19,0 -7.86,0.71 -10.98,2.13 -3.13,1.42 -5.76,3.42 -7.89,6 -2.13,2.58 -3.73,5.65 -4.79,9.2 -1.06,3.55 -1.6,7.48 -1.6,11.81 0,4.33 0.53,8.47 1.6,12.05 1.06,3.58 2.63,6.63 4.69,9.15 2.06,2.52 4.6,4.45 7.6,5.81 3,1.36 6.44,2.03 10.31,2.03 4.26,0 7.82,-0.4 10.69,-1.21 2.87,-0.8 5.05,-1.63 6.53,-2.47 l 1.84,5.61 c -0.45,0.32 -1.23,0.69 -2.32,1.11 -1.1,0.42 -2.48,0.86 -4.16,1.31 -1.68,0.45 -3.61,0.82 -5.81,1.11 -2.19,0.29 -4.65,0.44 -7.36,0.44 z"
       id="path7" /><path
       d="m 391.44,78.58 c 3.29,0 6.08,0.47 8.37,1.4 2.29,0.94 4.15,2.23 5.57,3.87 1.42,1.64 2.45,3.6 3.1,5.86 0.64,2.26 0.97,4.71 0.97,7.36 v 31.55 c -0.65,0.19 -1.58,0.4 -2.81,0.63 -1.23,0.23 -2.65,0.47 -4.26,0.72 -1.61,0.26 -3.4,0.47 -5.37,0.63 -1.97,0.16 -3.98,0.24 -6.05,0.24 -2.65,0 -5.08,-0.29 -7.31,-0.87 -2.23,-0.58 -4.16,-1.5 -5.81,-2.76 -1.65,-1.26 -2.94,-2.87 -3.87,-4.84 -0.94,-1.97 -1.4,-4.37 -1.4,-7.21 0,-2.84 0.52,-5.03 1.55,-6.97 1.03,-1.94 2.48,-3.53 4.36,-4.79 1.87,-1.26 4.1,-2.18 6.68,-2.76 2.58,-0.58 5.39,-0.87 8.42,-0.87 0.9,0 1.85,0.05 2.85,0.15 1,0.1 1.97,0.23 2.9,0.39 0.93,0.16 1.74,0.32 2.42,0.48 0.68,0.16 1.15,0.31 1.4,0.44 v -3.1 c 0,-1.74 -0.13,-3.44 -0.39,-5.08 -0.26,-1.64 -0.82,-3.13 -1.69,-4.45 -0.87,-1.32 -2.1,-2.39 -3.68,-3.2 -1.58,-0.8 -3.66,-1.21 -6.24,-1.21 -3.68,0 -6.42,0.26 -8.23,0.77 -1.81,0.52 -3.13,0.94 -3.97,1.26 l -0.87,-5.52 c 1.1,-0.52 2.79,-1 5.08,-1.45 2.29,-0.45 5.05,-0.68 8.28,-0.68 z m 0.58,46.65 c 2.45,0 4.6,-0.08 6.44,-0.24 1.84,-0.16 3.4,-0.37 4.69,-0.63 v -17.62 c -0.71,-0.32 -1.84,-0.66 -3.39,-1.02 -1.55,-0.35 -3.68,-0.53 -6.39,-0.53 -1.55,0 -3.16,0.11 -4.84,0.34 -1.68,0.23 -3.23,0.71 -4.65,1.45 -1.42,0.74 -2.58,1.76 -3.48,3.05 -0.9,1.29 -1.35,3 -1.35,5.13 0,1.87 0.31,3.45 0.92,4.74 0.61,1.29 1.48,2.32 2.61,3.1 1.13,0.78 2.48,1.34 4.06,1.7 1.58,0.36 3.37,0.53 5.37,0.53 z"
       id="path8" /><path
       d="m 423.03,81.48 c 1.87,-0.52 4.39,-1.1 7.55,-1.74 3.16,-0.64 7.03,-0.97 11.61,-0.97 3.81,0 6.98,0.55 9.53,1.64 2.55,1.1 4.58,2.66 6.1,4.7 1.52,2.03 2.6,4.47 3.24,7.31 0.64,2.84 0.97,5.97 0.97,9.39 v 27.97 h -6.29 v -25.94 c 0,-3.55 -0.24,-6.55 -0.73,-9 -0.48,-2.45 -1.29,-4.45 -2.42,-6 -1.13,-1.55 -2.61,-2.66 -4.45,-3.34 -1.84,-0.68 -4.15,-1.02 -6.92,-1.02 -2.97,0 -5.53,0.16 -7.69,0.48 -2.16,0.32 -3.57,0.62 -4.21,0.87 v 43.94 h -6.29 v -48.3 z"
       id="path9" /><path
       d="m 518.5,104.81 c 0,3.94 -0.57,7.52 -1.69,10.74 -1.13,3.23 -2.71,5.97 -4.74,8.23 -2.03,2.26 -4.44,4.02 -7.21,5.28 -2.77,1.26 -5.84,1.89 -9.19,1.89 -3.35,0 -6.42,-0.63 -9.19,-1.89 -2.77,-1.26 -5.18,-3.02 -7.21,-5.28 -2.03,-2.26 -3.61,-5 -4.74,-8.23 -1.13,-3.23 -1.69,-6.81 -1.69,-10.74 0,-3.93 0.56,-7.52 1.69,-10.74 1.13,-3.23 2.71,-5.98 4.74,-8.28 2.03,-2.29 4.44,-4.07 7.21,-5.32 2.77,-1.26 5.84,-1.89 9.19,-1.89 3.35,0 6.42,0.63 9.19,1.89 2.77,1.26 5.18,3.03 7.21,5.32 2.03,2.29 3.61,5.05 4.74,8.28 1.13,3.23 1.69,6.81 1.69,10.74 z m -6.68,0 c 0,-6.26 -1.45,-11.24 -4.36,-14.95 -2.9,-3.71 -6.84,-5.56 -11.81,-5.56 -4.97,0 -8.9,1.86 -11.81,5.56 -2.9,3.71 -4.36,8.7 -4.36,14.95 0,6.25 1.45,11.23 4.36,14.91 2.9,3.68 6.84,5.52 11.81,5.52 4.97,0 8.9,-1.84 11.81,-5.52 2.9,-3.68 4.36,-8.65 4.36,-14.91 z"
       id="path10" /><path
       d="m 529.83,81.48 c 1.87,-0.52 4.39,-1.1 7.55,-1.74 3.16,-0.64 7.03,-0.97 11.61,-0.97 3.81,0 6.98,0.55 9.53,1.64 2.55,1.1 4.58,2.66 6.1,4.7 1.52,2.03 2.6,4.47 3.24,7.31 0.64,2.84 0.97,5.97 0.97,9.39 v 27.97 h -6.29 v -25.94 c 0,-3.55 -0.24,-6.55 -0.73,-9 -0.48,-2.45 -1.29,-4.45 -2.42,-6 -1.13,-1.55 -2.61,-2.66 -4.45,-3.34 -1.84,-0.68 -4.15,-1.02 -6.92,-1.02 -2.97,0 -5.53,0.16 -7.69,0.48 -2.16,0.32 -3.57,0.62 -4.21,0.87 v 43.94 h -6.29 v -48.3 z"
       id="path11" /><path
       d="m 589.91,64.64 c 0,1.48 -0.45,2.66 -1.35,3.53 -0.9,0.87 -2,1.31 -3.29,1.31 -1.29,0 -2.39,-0.44 -3.29,-1.31 -0.9,-0.87 -1.35,-2.05 -1.35,-3.53 0,-1.48 0.45,-2.66 1.35,-3.53 0.9,-0.87 2,-1.31 3.29,-1.31 1.29,0 2.39,0.44 3.29,1.31 0.9,0.87 1.35,2.05 1.35,3.53 z m -1.45,65.14 h -6.29 V 79.74 h 6.29 z"
       id="path12" /><path
       d="m 623.21,130.85 c -3.87,0 -7.29,-0.61 -10.26,-1.84 -2.97,-1.22 -5.44,-2.98 -7.4,-5.28 -1.97,-2.29 -3.47,-5.03 -4.5,-8.23 -1.03,-3.19 -1.55,-6.73 -1.55,-10.6 0,-3.87 0.53,-7.52 1.6,-10.74 1.07,-3.22 2.6,-6 4.6,-8.32 2,-2.32 4.42,-4.11 7.26,-5.37 2.84,-1.26 6.03,-1.89 9.58,-1.89 2.71,0 5.24,0.23 7.6,0.68 2.35,0.45 4.18,1.03 5.47,1.74 l -1.65,5.42 c -1.29,-0.64 -2.74,-1.16 -4.36,-1.55 -1.61,-0.39 -3.77,-0.58 -6.48,-0.58 -5.55,0 -9.76,1.79 -12.63,5.37 -2.87,3.58 -4.31,8.66 -4.31,15.24 0,2.97 0.32,5.7 0.97,8.18 0.64,2.48 1.69,4.61 3.15,6.39 1.45,1.78 3.32,3.16 5.61,4.16 2.29,1 5.08,1.5 8.37,1.5 2.71,0 4.98,-0.31 6.82,-0.92 1.84,-0.61 3.18,-1.14 4.02,-1.6 l 1.36,5.42 c -1.16,0.65 -2.99,1.28 -5.47,1.89 -2.48,0.61 -5.08,0.92 -7.79,0.92 z"
       id="path13" /><path
       d="m 661.08,78.58 c 3.29,0 6.08,0.47 8.37,1.4 2.29,0.94 4.14,2.23 5.56,3.87 1.42,1.64 2.45,3.6 3.1,5.86 0.64,2.26 0.97,4.71 0.97,7.36 v 31.55 c -0.65,0.19 -1.58,0.4 -2.81,0.63 -1.23,0.23 -2.65,0.47 -4.26,0.72 -1.61,0.26 -3.4,0.47 -5.37,0.63 -1.97,0.16 -3.98,0.24 -6.05,0.24 -2.65,0 -5.08,-0.29 -7.31,-0.87 -2.23,-0.58 -4.16,-1.5 -5.81,-2.76 -1.65,-1.26 -2.94,-2.87 -3.87,-4.84 -0.94,-1.97 -1.4,-4.37 -1.4,-7.21 0,-2.84 0.52,-5.03 1.55,-6.97 1.03,-1.94 2.48,-3.53 4.36,-4.79 1.87,-1.26 4.1,-2.18 6.68,-2.76 2.58,-0.58 5.39,-0.87 8.42,-0.87 0.9,0 1.85,0.05 2.86,0.15 1,0.1 1.97,0.23 2.9,0.39 0.93,0.16 1.74,0.32 2.42,0.48 0.68,0.16 1.14,0.31 1.4,0.44 v -3.1 c 0,-1.74 -0.13,-3.44 -0.39,-5.08 -0.26,-1.64 -0.82,-3.13 -1.69,-4.45 -0.87,-1.32 -2.1,-2.39 -3.68,-3.2 -1.58,-0.8 -3.66,-1.21 -6.24,-1.21 -3.68,0 -6.42,0.26 -8.23,0.77 -1.81,0.52 -3.13,0.94 -3.97,1.26 l -0.87,-5.52 c 1.1,-0.52 2.79,-1 5.08,-1.45 2.29,-0.45 5.05,-0.68 8.28,-0.68 z m 0.58,46.65 c 2.45,0 4.6,-0.08 6.44,-0.24 1.84,-0.16 3.4,-0.37 4.69,-0.63 v -17.62 c -0.71,-0.32 -1.84,-0.66 -3.39,-1.02 -1.55,-0.35 -3.68,-0.53 -6.39,-0.53 -1.55,0 -3.16,0.11 -4.84,0.34 -1.68,0.23 -3.23,0.71 -4.65,1.45 -1.42,0.74 -2.58,1.76 -3.48,3.05 -0.9,1.29 -1.35,3 -1.35,5.13 0,1.87 0.3,3.45 0.92,4.74 0.61,1.29 1.48,2.32 2.61,3.1 1.13,0.78 2.48,1.34 4.07,1.7 1.58,0.36 3.37,0.53 5.37,0.53 z"
       id="path14" /><path
       d="m 705.23,130.65 c -2.13,-0.06 -3.99,-0.34 -5.57,-0.82 -1.58,-0.48 -2.9,-1.22 -3.97,-2.23 -1.06,-1 -1.87,-2.29 -2.42,-3.87 -0.55,-1.58 -0.82,-3.56 -0.82,-5.95 V 55.84 l 6.29,-1.16 v 62.91 c 0,1.55 0.15,2.79 0.44,3.73 0.29,0.94 0.73,1.68 1.31,2.23 0.58,0.55 1.34,0.95 2.27,1.21 0.93,0.26 2.05,0.48 3.34,0.68 l -0.87,5.23 z"
       id="path15" /></g><g
     id="CoF-rect"><rect
       class="cls-2"
       width="254"
       height="400"
       id="rect15"
       x="0"
       y="0" /><g
       id="CoF"
       transform="matrix(0.36538462,0,0,0.36538462,31.999999,168.96923)"><path
         id="circle"
         class="cls-3"
         d="M 280,16 C 184.66864,16 102.01684,72.109047 63.339844,152.97656 A 104,104 0 0 1 72,152 104,104 0 0 1 127.09961,168.56641 C 157.3438,115.56655 214.30843,80 280,80 c 0.24767,0 0.49086,0.01657 0.73828,0.01758 a 104,104 0 0 1 13.19531,-56.15039 104,104 0 0 1 5.18946,-7.033204 C 292.80616,16.331285 286.44221,16 280,16 Z m 197.90234,104.5625 a 104,104 0 0 1 -3.83593,7.30469 104,104 0 0 1 -41.89258,39.43164 C 447.30725,193.31207 456,223.58627 456,256 c 0,32.41373 -8.69275,62.68793 -23.82617,88.70117 a 104,104 0 0 1 41.89258,39.43164 104,104 0 0 1 3.83593,7.30469 C 504.42506,352.84086 520,306.18553 520,256 520,205.81447 504.42506,159.15914 477.90234,120.5625 Z M 127.4043,343.96289 A 104,104 0 0 1 72,360 104,104 0 0 1 63.339844,359.02344 C 102.01684,439.89095 184.66864,496 280,496 c 6.44221,0 12.80616,-0.33128 19.12305,-0.83398 a 104,104 0 0 1 -5.18946,-7.03321 104,104 0 0 1 -13.19531,-56.15039 C 280.49086,431.98343 280.24767,432 280,432 214.52761,432 157.72537,396.66958 127.4043,343.96289 Z" /><circle
         class="cls-3"
         id="head"
         cx="72"
         cy="256"
         r="72" /><use
         x="0"
         y="0"
         xlink:href="#head"
         id="use3"
         transform="rotate(120,280,256)" /><use
         x="0"
         y="0"
         xlink:href="#head"
         id="use4"
         transform="rotate(-120,280,256)" /></g></g></svg>
