<?xml version="1.0" encoding="UTF-8" standalone="no"?>
<!-- Created with Inkscape (http://www.inkscape.org/) -->

<svg
   width="1660"
   height="128"
   viewBox="0 0 1660 128"
   version="1.1"
   id="svg1"
   inkscape:version="1.3.2 (1:1.3.2+202404261509+091e20ef0f)"
   xml:space="preserve"
   sodipodi:docname="Dash-preview.svg"
   xmlns:inkscape="http://www.inkscape.org/namespaces/inkscape"
   xmlns:sodipodi="http://sodipodi.sourceforge.net/DTD/sodipodi-0.dtd"
   xmlns="http://www.w3.org/2000/svg"
   xmlns:svg="http://www.w3.org/2000/svg"><sodipodi:namedview
     id="namedview1"
     pagecolor="#ffffff"
     bordercolor="#000000"
     borderopacity="0.25"
     inkscape:showpageshadow="2"
     inkscape:pageopacity="0.0"
     inkscape:pagecheckerboard="0"
     inkscape:deskcolor="#d1d1d1"
     inkscape:document-units="px"
     inkscape:zoom="1"
     inkscape:cx="830"
     inkscape:cy="-29.5"
     inkscape:window-width="1920"
     inkscape:window-height="1011"
     inkscape:window-x="0"
     inkscape:window-y="0"
     inkscape:window-maximized="1"
     inkscape:current-layer="layer1" /><defs
     id="defs1" /><g
     inkscape:label="Layer 1"
     inkscape:groupmode="layer"
     id="layer1"><rect
       style="fill:#772953;stroke:none;stroke-width:0;stroke-linejoin:bevel;fill-opacity:1.0"
       id="rect4"
       width="1660"
       height="128"
       x="0"
       y="0" /><g
       id="g1"
       transform="matrix(6,0,0,6,783.5,16)"><circle
         style="fill:#ffffff;fill-opacity:1;stroke:none;stroke-width:0;stroke-linejoin:bevel"
         id="path1"
         cx="8"
         cy="8"
         r="8" /><path
         id="circle13"
         style="color:#000000;fill:#e95420;fill-opacity:1;stroke:none;stroke-width:0;stroke-linejoin:bevel;stroke-dasharray:none"
         d="m 8.0000006,1.142857 c -2.7237533,0 -5.0852334,1.6031157 -6.1902905,3.9136162 a 2.9714287,2.9714287 0 0 1 0.2474331,-0.027902 2.9714287,2.9714287 0 0 1 1.58298,0.4582032 C 4.5064396,3.9808691 6.1293608,2.9714285 8.0000006,2.9714285 c 0.00708,0 0.014025,4.734e-4 0.021094,5.023e-4 A 2.9714287,2.9714287 0 0 1 8.3981032,1.3676338 2.9714287,2.9714287 0 0 1 8.5463735,1.1666851 C 8.3658909,1.1523223 8.1840638,1.142857 8.0000006,1.142857 Z m 5.6543524,2.9875001 a 2.9714287,2.9714287 0 0 1 -0.109598,0.2087055 2.9714287,2.9714287 0 0 1 -1.19693,1.1266183 c 0.432383,0.7432355 0.680747,1.6082127 0.680747,2.5343193 0,0.9261066 -0.248364,1.7910838 -0.680747,2.5343188 a 2.9714287,2.9714287 0 0 1 1.19693,1.126619 2.9714287,2.9714287 0 0 1 0.109598,0.208705 c 0.757792,-1.102761 1.202791,-2.4357705 1.202791,-3.8696428 0,-1.4338724 -0.444999,-2.7668819 -1.202791,-3.8696431 z M 3.6314178,10.498103 a 2.9714287,2.9714287 0 0 1 -1.5742746,0.473326 2.9714287,2.9714287 0 0 1 -0.2474331,-0.0279 c 1.1050571,2.310501 3.4665372,3.913616 6.1902905,3.913616 0.1840632,0 0.3658903,-0.0095 0.5463729,-0.02383 A 2.9714287,2.9714287 0 0 1 8.3981032,14.632367 2.9714287,2.9714287 0 0 1 8.0210943,13.02807 c -0.00707,2.8e-5 -0.014017,5.02e-4 -0.021094,5.02e-4 -1.8769021,0 -3.504463,-1.016187 -4.3685825,-2.530469 z" /><circle
         style="fill:#e95420;fill-opacity:1;stroke:none;stroke-width:0;stroke-linejoin:bevel;stroke-dasharray:none;stroke-opacity:1"
         id="circle15"
         cx="2.0571432"
         cy="8"
         r="2.057143" /><circle
         style="fill:#e95420;fill-opacity:1;stroke:none;stroke-width:0;stroke-linejoin:bevel;stroke-dasharray:none;stroke-opacity:1"
         id="circle17"
         cx="-3.0146534"
         cy="-10.928202"
         r="2.0571425"
         transform="rotate(120)" /><circle
         style="fill:#e95420;fill-opacity:1;stroke:none;stroke-width:0;stroke-linejoin:bevel;stroke-dasharray:none;stroke-opacity:1"
         id="circle19"
         cx="-16.871058"
         cy="2.9282029"
         r="2.0571425"
         transform="rotate(-120)" /></g><g
       id="g2"
       transform="matrix(6,0,0,6,1007.5,16.00001)"><circle
         style="fill:#ffffff;fill-opacity:1;stroke:none;stroke-width:0;stroke-linejoin:bevel"
         id="path1-6"
         cx="8.6153841"
         cy="8"
         r="7.3846159" /><path
         id="circle13-2"
         style="color:#000000;fill:#e95420;fill-opacity:1;stroke:none;stroke-width:0;stroke-linejoin:bevel;stroke-dasharray:none"
         d="m 8.6153846,0.61538479 c -2.9332726,0 -5.4764048,1.72643221 -6.6664662,4.21466331 a 3.1999999,3.1999999 0 0 1 0.2664663,-0.030048 3.1999999,3.1999999 0 0 1 1.7047477,0.4934495 c 0.932956,-1.6217443 2.6807171,-2.7088341 4.6952522,-2.7088341 0.00762,0 0.015103,5.099e-4 0.022716,5.409e-4 A 3.1999999,3.1999999 0 0 1 9.0441104,0.85745217 3.1999999,3.1999999 0 0 1 9.2037861,0.6410459 C 9.0094203,0.62557817 8.8136064,0.61538479 8.6153846,0.61538479 Z M 14.704687,3.8326924 A 3.1999999,3.1999999 0 0 1 14.586659,4.0574521 3.1999999,3.1999999 0 0 1 13.297656,5.2707333 C 13.7633,6.0711407 14.030769,7.0026545 14.030769,8 c 0,0.9973455 -0.267469,1.9288593 -0.733113,2.729267 a 3.1999999,3.1999999 0 0 1 1.289003,1.213281 3.1999999,3.1999999 0 0 1 0.118028,0.22476 C 15.520771,10.979719 16,9.5441701 16,8 16,6.4558299 15.520771,5.0202813 14.704687,3.8326924 Z M 3.9107573,10.690264 A 3.1999999,3.1999999 0 0 1 2.2153847,11.2 3.1999999,3.1999999 0 0 1 1.9489184,11.169952 c 1.1900614,2.488231 3.7331936,4.214663 6.6664662,4.214663 0.1982218,0 0.3940357,-0.01019 0.5884015,-0.02566 A 3.1999999,3.1999999 0 0 1 9.0441104,15.142548 3.1999999,3.1999999 0 0 1 8.6381009,13.414844 c -0.00761,3.1e-5 -0.015096,5.4e-4 -0.022716,5.4e-4 -2.0212791,0 -3.7740369,-1.094355 -4.7046276,-2.72512 z" /><circle
         style="fill:#e95420;fill-opacity:1;stroke:none;stroke-width:0;stroke-linejoin:bevel;stroke-dasharray:none;stroke-opacity:1"
         id="circle15-9"
         cx="2.2153847"
         cy="8"
         r="2.2153845" /><circle
         style="fill:#e95420;fill-opacity:1;stroke:none;stroke-width:0;stroke-linejoin:bevel;stroke-dasharray:none;stroke-opacity:1"
         id="circle17-1"
         cx="-3.7794878"
         cy="-11.46114"
         r="2.215384"
         transform="rotate(120)" /><circle
         style="fill:#e95420;fill-opacity:1;stroke:none;stroke-width:0;stroke-linejoin:bevel;stroke-dasharray:none;stroke-opacity:1"
         id="circle19-2"
         cx="-17.635891"
         cy="3.4611409"
         r="2.215384"
         transform="rotate(-120)" /></g><g
       id="g3"
       transform="matrix(6,0,0,6,1231.5,15.999992)"><circle
         style="fill:#ffffff;fill-opacity:1;stroke:#e95420;stroke-width:1.73913;stroke-linejoin:bevel;stroke-dasharray:none;stroke-opacity:1"
         id="circle"
         cx="8.978261"
         cy="7.9999995"
         r="5.652173" /><circle
         style="fill:#ffffff;fill-opacity:1;stroke:none;stroke-width:0;stroke-linejoin:bevel;stroke-dasharray:none;stroke-opacity:1"
         id="aura"
         cx="3.3260875"
         cy="7.9999995"
         r="2.8260865" /><circle
         style="fill:#e95420;fill-opacity:1;stroke:none;stroke-width:0;stroke-linejoin:bevel;stroke-dasharray:none;stroke-opacity:1"
         id="head"
         cx="3.3260875"
         cy="7.9999995"
         r="1.9565215" /><circle
         style="fill:#ffffff;fill-opacity:1;stroke:none;stroke-width:0;stroke-linejoin:bevel;stroke-dasharray:none;stroke-opacity:1"
         id="circle9"
         cx="-3.2130964"
         cy="-11.775403"
         r="2.8260868"
         transform="rotate(119.99999)" /><circle
         style="fill:#e95420;fill-opacity:1;stroke:none;stroke-width:0;stroke-linejoin:bevel;stroke-dasharray:none;stroke-opacity:1"
         id="circle10"
         cx="-3.2130964"
         cy="-11.775403"
         r="1.9565215"
         transform="rotate(119.99999)" /><circle
         style="fill:#ffffff;fill-opacity:1;stroke:none;stroke-width:0;stroke-linejoin:bevel;stroke-dasharray:none;stroke-opacity:1"
         id="circle11"
         cx="-17.069508"
         cy="3.7754061"
         r="2.8260868"
         transform="rotate(-119.99999)" /><circle
         style="fill:#e95420;fill-opacity:1;stroke:none;stroke-width:0;stroke-linejoin:bevel;stroke-dasharray:none;stroke-opacity:1"
         id="circle12"
         cx="-17.069508"
         cy="3.7754066"
         r="1.9565215"
         transform="rotate(-119.99999)" /></g><path
       id="path1-60"
       style="fill:#ffffff;fill-opacity:1;stroke:none;stroke-width:0;stroke-linejoin:bevel"
       d="M 607.5,16 A 48,48 0 0 0 559.5,64 12.342858,12.342858 0 0 1 571.8398,51.660159 12.342858,12.342858 0 0 1 584.1914,64 12.342858,12.342858 0 0 1 571.8398,76.339839 12.342858,12.342858 0 0 1 559.5,64 a 48,48 0 0 0 48,48 48,48 0 0 0 23.0976,-6.05862 12.342855,12.342855 0 0 1 -15.9609,-4.8867 12.342855,12.342855 0 0 1 4.5234,-16.863301 12.342855,12.342855 0 0 1 16.8633,4.51176 12.342855,12.342855 0 0 1 -3.4101,16.136701 48,48 0 0 0 22.8867,-40.839841 48,48 0 0 0 -23.8008,-41.4375 12.342855,12.342855 0 0 1 4.3242,16.73436 12.342855,12.342855 0 0 1 -16.8633,4.5117 12.342855,12.342855 0 0 1 -4.5234,-16.86324 12.342855,12.342855 0 0 1 16.7696,-4.54692 A 48,48 0 0 0 607.5,16 Z m 0,6.85548 c 1.1043,0 2.1984,0.054 3.2813,0.140399 a 17.828572,17.828572 0 0 0 -0.8906,1.20702 17.828572,17.828572 0 0 0 -2.2618,9.632821 c -0.042,-1.8e-4 -0.087,-0.012 -0.129,-0.012 -11.2238,-6e-5 -20.9583,6.05832 -26.1563,15.093719 a 17.828572,17.828572 0 0 0 -9.5039,-2.742179 17.828572,17.828572 0 0 0 -1.4765,0.1638 C 576.9936,32.476359 591.1575,22.855 607.5,22.855 Z m 33.9258,17.92968 c 4.5468,6.61656 7.2188,14.61162 7.2188,23.21484 0,8.603219 -2.672,16.59828 -7.2188,23.214839 a 17.828572,17.828572 0 0 0 -0.6562,-1.25394 17.828572,17.828572 0 0 0 -7.1837,-6.75 c 2.5944,-4.45938 4.0899,-9.654299 4.0899,-15.2109 0,-5.55666 -1.4955,-10.75158 -4.0899,-15.21096 a 17.828572,17.828572 0 0 0 7.1837,-6.75 17.828572,17.828572 0 0 0 0.6562,-1.253879 z m -60.1406,38.20308 c 5.1847,9.08568 14.9534,15.1875 26.2148,15.1875 0.042,-1.2e-4 0.087,-0.012 0.129,-0.012 a 17.828572,17.828572 0 0 0 2.2617,9.63282 17.828572,17.828572 0 0 0 0.8907,1.20708 c -1.083,0.0864 -2.1769,0.141 -3.2812,0.141 -16.3425,0 -30.5065,-9.62142 -37.1368,-23.48442 a 17.828572,17.828572 0 0 0 1.4766,0.1638 17.828572,17.828572 0 0 0 9.4453,-2.8359 z" /><g
       id="g4"
       transform="matrix(6,0,0,6,335.5,16.000012)"><path
         id="circle13-1"
         style="color:#000000;fill:#ffffff;fill-opacity:1;stroke:none;stroke-width:0;stroke-linejoin:bevel;stroke-dasharray:none"
         d="m 8.6153846,0.61538448 c -2.9332725,0 -5.4764048,1.72643222 -6.6664662,4.21466332 A 3.1999999,3.1999999 0 0 1 2.2153848,4.7999998 3.1999999,3.1999999 0 0 1 3.9201324,5.2934493 C 4.8530884,3.671705 6.6008496,2.5846152 8.6153846,2.5846152 c 0.00762,0 0.015103,5.098e-4 0.022716,5.409e-4 A 3.1999999,3.1999999 0 0 1 9.0441104,0.85745186 3.1999999,3.1999999 0 0 1 9.2037861,0.64104559 C 9.0094203,0.62557786 8.8136064,0.61538448 8.6153846,0.61538448 Z M 14.704687,3.8326921 A 3.1999999,3.1999999 0 0 1 14.586659,4.0574518 3.1999999,3.1999999 0 0 1 13.297656,5.270733 c 0.465644,0.8004073 0.733113,1.7319212 0.733113,2.7292667 0,0.9973455 -0.267469,1.9288593 -0.733113,2.7292663 a 3.1999999,3.1999999 0 0 1 1.289003,1.213282 3.1999999,3.1999999 0 0 1 0.118028,0.224759 C 15.520771,10.979718 16,9.5441698 16,7.9999997 16,6.4558296 15.520771,5.020281 14.704687,3.8326921 Z M 3.9107573,10.690264 A 3.1999999,3.1999999 0 0 1 2.2153848,11.2 3.1999999,3.1999999 0 0 1 1.9489184,11.169952 c 1.1900614,2.488231 3.7331937,4.214663 6.6664662,4.214663 0.1982218,0 0.3940357,-0.01019 0.5884015,-0.02566 A 3.1999999,3.1999999 0 0 1 9.0441104,15.142548 3.1999999,3.1999999 0 0 1 8.6381009,13.414843 c -0.00761,3.1e-5 -0.015096,5.41e-4 -0.022716,5.41e-4 -2.021279,0 -3.7740368,-1.094355 -4.7046276,-2.72512 z" /><circle
         style="fill:#ffffff;fill-opacity:1;stroke:none;stroke-width:0;stroke-linejoin:bevel;stroke-dasharray:none;stroke-opacity:1"
         id="circle15-8"
         cx="2.2153847"
         cy="7.9999995"
         r="2.2153845" /><circle
         style="fill:#ffffff;fill-opacity:1;stroke:none;stroke-width:0;stroke-linejoin:bevel;stroke-dasharray:none;stroke-opacity:1"
         id="circle17-7"
         cx="-3.7794883"
         cy="-11.46114"
         r="2.215384"
         transform="rotate(120)" /><circle
         style="fill:#ffffff;fill-opacity:1;stroke:none;stroke-width:0;stroke-linejoin:bevel;stroke-dasharray:none;stroke-opacity:1"
         id="circle19-9"
         cx="-17.635891"
         cy="3.4611411"
         r="2.215384"
         transform="rotate(-120)" /></g></g></svg>
