<?xml version="1.0" encoding="UTF-8" standalone="no"?>
<svg
   version="1.1"
   viewBox="0 0 520 512"
   id="svg6"
   sodipodi:docname="Ubuntu-logo-v2024-source.svg"
   width="520"
   height="512"
   inkscape:version="1.3.2 (1:1.3.2+202404261509+091e20ef0f)"
   xmlns:inkscape="http://www.inkscape.org/namespaces/inkscape"
   xmlns:sodipodi="http://sodipodi.sourceforge.net/DTD/sodipodi-0.dtd"
   xmlns="http://www.w3.org/2000/svg"
   xmlns:svg="http://www.w3.org/2000/svg">
  <sodipodi:namedview
     id="namedview1"
     pagecolor="#ffffff"
     bordercolor="#000000"
     borderopacity="0.25"
     inkscape:showpageshadow="2"
     inkscape:pageopacity="0.0"
     inkscape:pagecheckerboard="0"
     inkscape:deskcolor="#d1d1d1"
     inkscape:zoom="1.6503906"
     inkscape:cx="256"
     inkscape:cy="256"
     inkscape:window-width="1920"
     inkscape:window-height="1011"
     inkscape:window-x="0"
     inkscape:window-y="0"
     inkscape:window-maximized="1"
     inkscape:current-layer="g20"
     showgrid="false">
    <inkscape:grid
       id="grid1"
       units="px"
       originx="0"
       originy="0"
       spacingx="8"
       spacingy="8"
       empcolor="#0099e5"
       empopacity="0.30196078"
       color="#0099e5"
       opacity="0.14901961"
       empspacing="4"
       dotted="false"
       gridanglex="30"
       gridanglez="30"
       visible="false" />
  </sodipodi:namedview>
  <defs
     id="defs6" />
  <g
     inkscape:groupmode="layer"
     id="layer1"
     inkscape:label="v2022"
     style="display:none"
     sodipodi:insensitive="true">
    <text
       xml:space="preserve"
       style="font-size:10.6667px;line-height:13.3333px;font-family:'DejaVu Sans';-inkscape-font-specification:'DejaVu Sans';text-align:center;text-anchor:middle;display:inline;opacity:1;fill:#000000;fill-opacity:1;stroke:#ffffff;stroke-width:0;stroke-linejoin:bevel;stroke-dasharray:none;stroke-opacity:1"
       x="543.41144"
       y="40.104191"
       id="text11"><tspan
         sodipodi:role="line"
         id="tspan11"
         x="543.41144"
         y="40.104191"
         style="font-size:10.6667px;line-height:13.3333px;text-align:start;text-anchor:start;fill:#000000;fill-opacity:1;stroke:none">circle: 480 total width, 64 stroke width</tspan><tspan
         sodipodi:role="line"
         x="543.41144"
         y="53.437489"
         style="font-size:10.6667px;line-height:13.3333px;text-align:start;text-anchor:start;fill:#000000;fill-opacity:1;stroke:none"
         id="tspan12">head: 144 + (2x32) = 208 total width</tspan></text>
    <g
       fill="#808080"
       id="g6"
       transform="matrix(43.529955,0,0,43.529955,-83.316323,-102.36253)"
       style="opacity:0.25;fill:#ff0101;fill-opacity:1;stroke:none;stroke-width:0;stroke-dasharray:none">
      <path
         d="M 10.176,10.551 A 1.675,1.675 0 0 1 11.8498,12.2248 1.675,1.675 0 0 1 10.176,13.9006 1.675,1.675 0 0 1 8.5002,12.2248 1.675,1.675 0 0 1 10.176,10.551 Z"
         id="path1"
         style="fill:#ff0101;fill-opacity:1;stroke:none;stroke-width:0;stroke-dasharray:none" />
      <path
         d="m 4.5898,10.086 a 4.04,4.04 0 0 0 2.7754,2.125 1.445,1.445 0 0 0 0.41016,0.06445 2.355,2.355 0 0 0 0.5,1.4004 5.5,5.5 0 0 1 -1.1855,-0.125 5.435,5.435 0 0 1 -3.9258,-3.291 2.415,2.415 0 0 0 1.4258,-0.17383 z"
         id="path2"
         style="fill:#ff0101;fill-opacity:1;stroke:none;stroke-width:0;stroke-dasharray:none" />
      <path
         d="M 3.5898,6.2344 A 1.675,1.675 0 0 1 5.2656,7.9102 1.675,1.675 0 0 1 3.5898,9.586 1.675,1.675 0 0 1 1.914,7.9102 1.675,1.675 0 0 1 3.5898,6.2344 Z"
         id="path3"
         style="fill:#ff0101;fill-opacity:1;stroke:none;stroke-width:0;stroke-dasharray:none" />
      <path
         d="M 12.775,5.1992 A 5.5,5.5 0 0 1 12.49961,11.6152 2.29,2.29 0 0 0 11.69883,10.375 4.04,4.04 0 0 0 12.22422,9.0742 4.11,4.11 0 0 0 11.83555,6.3008 2.425,2.425 0 0 0 12.775,5.1992 Z"
         id="path4"
         style="fill:#ff0101;fill-opacity:1;stroke:none;stroke-width:0;stroke-dasharray:none" />
      <path
         d="m 8.1191,2.7402 a 5.5,5.5 0 0 1 0.51562,0.015625 2.315,2.315 0 0 0 -0.45898,0.97461 3.21,3.21 0 0 0 -0.050781,0.375 4.06,4.06 0 0 0 -3.2891,1.7598 2.42,2.42 0 0 0 -0.76172,-0.31445 2.325,2.325 0 0 0 -0.5,-0.050781 h -0.125 a 5.5,5.5 0 0 1 4.6699,-2.7598 z"
         id="path5"
         style="fill:#ff0101;fill-opacity:1;stroke:none;stroke-width:0;stroke-dasharray:none" />
      <path
         d="M 10.551,2.5645 A 1.675,1.675 0 0 1 12.2248,4.2403 1.675,1.675 0 0 1 10.551,5.9141 1.675,1.675 0 0 1 8.8752,4.2403 1.675,1.675 0 0 1 10.551,2.5645 Z"
         id="path6"
         style="fill:#ff0101;fill-opacity:1;stroke:none;stroke-width:0;stroke-dasharray:none" />
    </g>
  </g>
  <g
     inkscape:groupmode="layer"
     id="layer2"
     inkscape:label="v2024"
     style="display:none"
     sodipodi:insensitive="true">
    <circle
       style="opacity:0.25;fill:none;fill-opacity:1;stroke:#00ff80;stroke-width:64;stroke-linejoin:bevel;stroke-dasharray:none;stroke-opacity:1"
       id="circle"
       cx="280"
       cy="256"
       r="208" />
    <g
       id="head-aura-0"
       inkscape:transform-center-x="208"
       inkscape:transform-center-y="-1.5258789e-05">
      <circle
         style="opacity:1;fill:#ffffff;fill-opacity:1;stroke:none;stroke-width:0;stroke-linejoin:bevel;stroke-dasharray:none;stroke-opacity:1"
         id="aura"
         cx="72"
         cy="255.99998"
         r="104" />
      <circle
         style="opacity:0.5;fill:#00ff80;fill-opacity:1;stroke:none;stroke-width:0;stroke-linejoin:bevel;stroke-dasharray:none;stroke-opacity:1"
         id="head"
         cx="72"
         cy="256"
         r="72" />
    </g>
    <g
       id="head-aura-1"
       inkscape:transform-center-x="208"
       inkscape:transform-center-y="-1.5258789e-05"
       transform="rotate(120,280,256)">
      <circle
         style="opacity:1;fill:#ffffff;fill-opacity:1;stroke:none;stroke-width:0;stroke-linejoin:bevel;stroke-dasharray:none;stroke-opacity:1"
         id="circle9"
         cx="72"
         cy="255.99998"
         r="104" />
      <circle
         style="opacity:0.5;fill:#00ff80;fill-opacity:1;stroke:none;stroke-width:0;stroke-linejoin:bevel;stroke-dasharray:none;stroke-opacity:1"
         id="circle10"
         cx="72"
         cy="256"
         r="72" />
    </g>
    <g
       id="head-aura-2"
       inkscape:transform-center-x="208"
       inkscape:transform-center-y="-1.5258789e-05"
       transform="rotate(-120,280,256)">
      <circle
         style="opacity:1;fill:#ffffff;fill-opacity:1;stroke:none;stroke-width:0;stroke-linejoin:bevel;stroke-dasharray:none;stroke-opacity:1"
         id="circle11"
         cx="72"
         cy="255.99998"
         r="104" />
      <circle
         style="opacity:0.5;fill:#00ff80;fill-opacity:1;stroke:none;stroke-width:0;stroke-linejoin:bevel;stroke-dasharray:none;stroke-opacity:1"
         id="circle12"
         cx="72"
         cy="256"
         r="72" />
    </g>
  </g>
  <g
     inkscape:groupmode="layer"
     id="g20"
     inkscape:label="final"
     style="display:inline"
     sodipodi:insensitive="true">
    <g
       id="Circle-of-Friends"
       style="fill:#e95420;fill-opacity:1;stroke:none;stroke-width:0;stroke-dasharray:none">
      <path
         id="circle13"
         style="color:#000000;opacity:1;fill:#e95420;fill-opacity:1;stroke:none;stroke-width:0;stroke-linejoin:bevel;stroke-dasharray:none"
         d="M 280,16 C 184.66864,16 102.01684,72.109047 63.339844,152.97656 A 104,104 0 0 1 72,152 104,104 0 0 1 127.4043,168.03711 C 157.72537,115.33042 214.52761,80 280,80 c 0.24767,0 0.49086,0.01657 0.73828,0.01758 a 104,104 0 0 1 13.19531,-56.15039 104,104 0 0 1 5.18946,-7.033204 C 292.80616,16.331285 286.44221,16 280,16 Z m 197.90234,104.5625 a 104,104 0 0 1 -3.83593,7.30469 104,104 0 0 1 -41.89258,39.43164 C 447.30725,193.31207 456,223.58627 456,256 c 0,32.41373 -8.69275,62.68793 -23.82617,88.70117 a 104,104 0 0 1 41.89258,39.43164 104,104 0 0 1 3.83593,7.30469 C 504.42506,352.84086 520,306.18553 520,256 520,205.81447 504.42506,159.15914 477.90234,120.5625 Z M 127.09961,343.43359 A 104,104 0 0 1 72,360 104,104 0 0 1 63.339844,359.02344 C 102.01684,439.89095 184.66864,496 280,496 c 6.44221,0 12.80616,-0.33128 19.12305,-0.83398 a 104,104 0 0 1 -5.18946,-7.03321 104,104 0 0 1 -13.19531,-56.15039 C 280.49086,431.98343 280.24767,432 280,432 214.30843,432 157.3438,396.43345 127.09961,343.43359 Z" />
      <circle
         style="opacity:1;fill:#e95420;fill-opacity:1;stroke:none;stroke-width:0;stroke-linejoin:bevel;stroke-dasharray:none;stroke-opacity:1"
         id="circle15"
         cx="72"
         cy="256"
         r="72" />
      <circle
         style="opacity:1;fill:#e95420;fill-opacity:1;stroke:none;stroke-width:0;stroke-linejoin:bevel;stroke-dasharray:none;stroke-opacity:1"
         id="circle17"
         cx="-126.29749"
         cy="-370.48712"
         r="72"
         transform="rotate(120)" />
      <circle
         style="opacity:1;fill:#e95420;fill-opacity:1;stroke:none;stroke-width:0;stroke-linejoin:bevel;stroke-dasharray:none;stroke-opacity:1"
         id="circle19"
         cx="-569.70251"
         cy="114.48711"
         r="72"
         transform="rotate(-120)" />
    </g>
  </g>
</svg>
