<?xml version="1.0" encoding="UTF-8" standalone="no"?>
<svg
   version="1.1"
   viewBox="0 0 511.99999 512.00002"
   id="svg6"
   sodipodi:docname="Ubuntu-logo-wrong.svg"
   width="512"
   height="512"
   inkscape:version="1.3.2 (1:1.3.2+202404261509+091e20ef0f)"
   xmlns:inkscape="http://www.inkscape.org/namespaces/inkscape"
   xmlns:sodipodi="http://sodipodi.sourceforge.net/DTD/sodipodi-0.dtd"
   xmlns="http://www.w3.org/2000/svg"
   xmlns:svg="http://www.w3.org/2000/svg">
  <sodipodi:namedview
     id="namedview1"
     pagecolor="#ffffff"
     bordercolor="#000000"
     borderopacity="0.25"
     inkscape:showpageshadow="2"
     inkscape:pageopacity="0.0"
     inkscape:pagecheckerboard="0"
     inkscape:deskcolor="#d1d1d1"
     inkscape:zoom="1"
     inkscape:cx="255.5"
     inkscape:cy="255.5"
     inkscape:window-width="1920"
     inkscape:window-height="1011"
     inkscape:window-x="0"
     inkscape:window-y="0"
     inkscape:window-maximized="1"
     inkscape:current-layer="svg6" />
  <defs
     id="defs6" />
  <rect
     style="fill:#ffffff;stroke-linejoin:bevel;stroke:none"
     id="rect1"
     width="512"
     height="512"
     x="0"
     y="0" />
  <g
     fill="#808080"
     id="g6"
     transform="matrix(43.529955,0,0,43.529955,-83.316323,-102.36253)"
     style="stroke-width:0.0229727">
    <path
       d="M 10.176,10.551 A 1.675,1.675 0 0 1 11.8498,12.2248 1.675,1.675 0 0 1 10.176,13.9006 1.675,1.675 0 0 1 8.5002,12.2248 1.675,1.675 0 0 1 10.176,10.551 Z"
       id="path1"
       style="stroke-width:0.0229727" />
    <path
       d="m 4.5898,10.086 a 4.04,4.04 0 0 0 2.7754,2.125 1.445,1.445 0 0 0 0.41016,0.06445 2.355,2.355 0 0 0 0.5,1.4004 5.5,5.5 0 0 1 -1.1855,-0.125 5.435,5.435 0 0 1 -3.9258,-3.291 2.415,2.415 0 0 0 1.4258,-0.17383 z"
       id="path2"
       style="stroke-width:0.0229727" />
    <path
       d="M 3.5898,6.2344 A 1.675,1.675 0 0 1 5.2656,7.9102 1.675,1.675 0 0 1 3.5898,9.586 1.675,1.675 0 0 1 1.914,7.9102 1.675,1.675 0 0 1 3.5898,6.2344 Z"
       id="path3"
       style="stroke-width:0.0229727" />
    <path
       d="M 12.775,5.1992 A 5.5,5.5 0 0 1 12.49961,11.6152 2.29,2.29 0 0 0 11.69883,10.375 4.04,4.04 0 0 0 12.22422,9.0742 4.11,4.11 0 0 0 11.83555,6.3008 2.425,2.425 0 0 0 12.775,5.1992 Z"
       id="path4"
       style="stroke-width:0.0229727" />
    <path
       d="m 8.1191,2.7402 a 5.5,5.5 0 0 1 0.51562,0.015625 2.315,2.315 0 0 0 -0.45898,0.97461 3.21,3.21 0 0 0 -0.050781,0.375 4.06,4.06 0 0 0 -3.2891,1.7598 2.42,2.42 0 0 0 -0.76172,-0.31445 2.325,2.325 0 0 0 -0.5,-0.050781 h -0.125 a 5.5,5.5 0 0 1 4.6699,-2.7598 z"
       id="path5"
       style="stroke-width:0.0229727" />
    <path
       d="M 10.551,2.5645 A 1.675,1.675 0 0 1 12.2248,4.2403 1.675,1.675 0 0 1 10.551,5.9141 1.675,1.675 0 0 1 8.8752,4.2403 1.675,1.675 0 0 1 10.551,2.5645 Z"
       id="path6"
       style="stroke-width:0.0229727" />
  </g>
  <path
     style="fill:none;stroke-width:1;stroke-linejoin:bevel;fill-opacity:1;stroke:#ff0000;stroke-opacity:1;stroke-dasharray:none"
     d="m 448.82867,0 0,512"
     id="path7"
     sodipodi:nodetypes="cc" />
  <path
     style="fill:none;fill-opacity:1;stroke:#ff0000;stroke-width:1;stroke-linejoin:bevel;stroke-dasharray:none;stroke-opacity:1"
     d="M 302.52073,0 V 512"
     id="path7-6"
     sodipodi:nodetypes="cc" />
  <path
     style="fill:none;fill-opacity:1;stroke:#ff0000;stroke-width:1;stroke-linejoin:bevel;stroke-dasharray:none;stroke-opacity:1"
     d="M 512,256 H 0"
     id="path8"
     sodipodi:nodetypes="cc" />
  <text
     xml:space="preserve"
     style="font-size:24px;line-height:18px;font-family:'DejaVu Sans';-inkscape-font-specification:'DejaVu Sans';text-align:center;text-anchor:middle;fill:none;fill-opacity:1;stroke:#ff0000;stroke-width:1;stroke-linejoin:bevel;stroke-dasharray:none;stroke-opacity:1"
     x="72.94751"
     y="241.96812"
     id="text9"><tspan
       sodipodi:role="line"
       id="tspan9"
       x="72.94751"
       y="241.96812"
       style="font-size:24px;line-height:18px;fill:#ffffff;fill-opacity:1;stroke:none">w: 145.895</tspan></text>
  <text
     xml:space="preserve"
     style="font-size:24px;line-height:18px;font-family:'DejaVu Sans';-inkscape-font-specification:'DejaVu Sans';text-align:center;text-anchor:middle;fill:#ffffff;fill-opacity:1;stroke:none;stroke-width:1;stroke-linejoin:bevel;stroke-dasharray:none;stroke-opacity:1"
     x="375.92471"
     y="82.174011"
     id="text10"><tspan
       sodipodi:role="line"
       id="tspan10"
       x="375.92471"
       y="82.174011">w: 145.808</tspan></text>
  <text
     xml:space="preserve"
     style="font-size:24px;line-height:18px;font-family:'DejaVu Sans';-inkscape-font-specification:'DejaVu Sans';text-align:center;text-anchor:middle;fill:#ffffff;fill-opacity:1;stroke:none;stroke-width:1;stroke-linejoin:bevel;stroke-dasharray:none;stroke-opacity:1"
     x="359.60098"
     y="429.82599"
     id="text11"><tspan
       sodipodi:role="line"
       id="tspan11"
       x="359.60098"
       y="429.82599">w: 145.808</tspan></text>
</svg>
