<?xml version="1.0" encoding="UTF-8" standalone="no"?>
<svg
   version="1.1"
   viewBox="0 0 520 512"
   id="svg6"
   width="520"
   height="512"
   sodipodi:docname="Presentation-Ubuntu-logo-v2022-resized.svg"
   inkscape:version="1.3.2 (1:1.3.2+202404261509+091e20ef0f)"
   xmlns:inkscape="http://www.inkscape.org/namespaces/inkscape"
   xmlns:sodipodi="http://sodipodi.sourceforge.net/DTD/sodipodi-0.dtd"
   xmlns="http://www.w3.org/2000/svg"
   xmlns:svg="http://www.w3.org/2000/svg">
  <sodipodi:namedview
     id="namedview1"
     pagecolor="#ffffff"
     bordercolor="#000000"
     borderopacity="0.25"
     inkscape:showpageshadow="2"
     inkscape:pageopacity="0.0"
     inkscape:pagecheckerboard="0"
     inkscape:deskcolor="#d1d1d1"
     inkscape:zoom="1.6884615"
     inkscape:cx="260"
     inkscape:cy="256.15034"
     inkscape:window-width="1920"
     inkscape:window-height="1011"
     inkscape:window-x="0"
     inkscape:window-y="0"
     inkscape:window-maximized="1"
     inkscape:current-layer="svg6" />
  <defs
     id="defs6" />
  <path
     d="m 359.6445,356.92203 a 72.912675,72.912675 0 0 1 72.86044,72.86043 72.912675,72.912675 0 0 1 -72.86044,72.9475 72.912675,72.912675 0 0 1 -72.9475,-72.9475 72.912675,72.912675 0 0 1 72.9475,-72.86043 z"
     id="path1"
     style="fill:#e95420;fill-opacity:1;stroke:none;stroke-width:0;stroke-dasharray:none" />
  <path
     d="m 116.47746,336.6806 a 175.86102,175.86102 0 0 0 120.81304,92.50115 62.900785,62.900785 0 0 0 17.85425,2.80551 102.51304,102.51304 0 0 0 21.76498,60.95935 239.41475,239.41475 0 0 1 -51.60477,-5.44125 236.58531,236.58531 0 0 1 -170.889894,-143.25708 105.12484,105.12484 0 0 0 62.065014,-7.56681 z"
     id="path2"
     style="fill:#e95420;fill-opacity:1;stroke:none;stroke-width:0;stroke-dasharray:none" />
  <path
     d="m 72.947509,169.02062 a 72.912675,72.912675 0 0 1 72.947501,72.9475 72.912675,72.912675 0 0 1 -72.947501,72.9475 A 72.912675,72.912675 0 0 1 1.087e-5,241.96812 72.912675,72.912675 0 0 1 72.947509,169.02062 Z"
     id="path3"
     style="fill:#e95420;fill-opacity:1;stroke:none;stroke-width:0;stroke-dasharray:none" />
  <path
     d="m 472.77885,123.95841 a 239.41475,239.41475 0 0 1 -11.98771,279.28819 99.683597,99.683597 0 0 0 -34.85792,-53.98585 175.86102,175.86102 0 0 0 22.8702,-56.62376 178.90812,178.90812 0 0 0 -16.91878,-120.72598 105.56014,105.56014 0 0 0 40.89421,-47.9526 z"
     id="path4"
     style="fill:#e95420;fill-opacity:1;stroke:none;stroke-width:0;stroke-dasharray:none" />
  <path
     d="m 270.10773,16.918253 a 239.41475,239.41475 0 0 1 22.44492,0.680155 100.77185,100.77185 0 0 0 -19.97938,42.42473 139.73116,139.73116 0 0 0 -2.21049,16.323733 A 176.73162,176.73162 0 0 0 127.1884,152.95089 105.34249,105.34249 0 0 0 94.030764,139.26289 101.20715,101.20715 0 0 0 72.265787,137.0524 H 66.824542 A 239.41475,239.41475 0 0 1 270.10508,16.918427 Z"
     id="path5"
     style="fill:#e95420;fill-opacity:1;stroke:none;stroke-width:0;stroke-dasharray:none" />
  <path
     d="M 375.96823,9.2700396 A 72.912675,72.912675 0 0 1 448.82867,82.217538 72.912675,72.912675 0 0 1 375.96823,155.07798 72.912675,72.912675 0 0 1 303.02073,82.217538 72.912675,72.912675 0 0 1 375.96823,9.2700396 Z"
     id="path6"
     style="fill:#e95420;fill-opacity:1;stroke:none;stroke-width:0;stroke-dasharray:none" />
</svg>
