<?xml version="1.0" encoding="UTF-8" standalone="no"?>
<!-- Created with Inkscape (http://www.inkscape.org/) -->

<svg
   width="16"
   height="16"
   viewBox="0 0 16 16"
   version="1.1"
   id="svg1"
   xml:space="preserve"
   xmlns="http://www.w3.org/2000/svg"
   xmlns:svg="http://www.w3.org/2000/svg"><defs
     id="defs1" /><path
     id="circle13"
     style="color:#000000;fill:#808080;fill-opacity:1;stroke:none;stroke-width:0;stroke-linejoin:bevel;stroke-dasharray:none"
     d="m 8.6153846,0.61538448 c -2.9332725,0 -5.4764048,1.72643222 -6.6664662,4.21466332 A 3.1999999,3.1999999 0 0 1 2.2153848,4.7999998 3.1999999,3.1999999 0 0 1 3.9201324,5.2934493 C 4.8530884,3.671705 6.6008496,2.5846152 8.6153846,2.5846152 c 0.00762,0 0.015103,5.098e-4 0.022716,5.409e-4 A 3.1999999,3.1999999 0 0 1 9.0441104,0.85745186 3.1999999,3.1999999 0 0 1 9.2037861,0.64104559 C 9.0094203,0.62557786 8.8136064,0.61538448 8.6153846,0.61538448 Z M 14.704687,3.8326921 A 3.1999999,3.1999999 0 0 1 14.586659,4.0574518 3.1999999,3.1999999 0 0 1 13.297656,5.270733 c 0.465644,0.8004073 0.733113,1.7319212 0.733113,2.7292667 0,0.9973455 -0.267469,1.9288593 -0.733113,2.7292663 a 3.1999999,3.1999999 0 0 1 1.289003,1.213282 3.1999999,3.1999999 0 0 1 0.118028,0.224759 C 15.520771,10.979718 16,9.5441698 16,7.9999997 16,6.4558296 15.520771,5.020281 14.704687,3.8326921 Z M 3.9107573,10.690264 A 3.1999999,3.1999999 0 0 1 2.2153848,11.2 3.1999999,3.1999999 0 0 1 1.9489184,11.169952 c 1.1900614,2.488231 3.7331937,4.214663 6.6664662,4.214663 0.1982218,0 0.3940357,-0.01019 0.5884015,-0.02566 A 3.1999999,3.1999999 0 0 1 9.0441104,15.142548 3.1999999,3.1999999 0 0 1 8.6381009,13.414843 c -0.00761,3.1e-5 -0.015096,5.41e-4 -0.022716,5.41e-4 -2.021279,0 -3.7740368,-1.094355 -4.7046276,-2.72512 z" /><circle
     style="fill:#808080;fill-opacity:1;stroke:none;stroke-width:0;stroke-linejoin:bevel;stroke-dasharray:none;stroke-opacity:1"
     id="circle15"
     cx="2.2153847"
     cy="7.9999995"
     r="2.2153845" /><circle
     style="fill:#808080;fill-opacity:1;stroke:none;stroke-width:0;stroke-linejoin:bevel;stroke-dasharray:none;stroke-opacity:1"
     id="circle17"
     cx="-3.7794883"
     cy="-11.46114"
     r="2.215384"
     transform="rotate(120)" /><circle
     style="fill:#808080;fill-opacity:1;stroke:none;stroke-width:0;stroke-linejoin:bevel;stroke-dasharray:none;stroke-opacity:1"
     id="circle19"
     cx="-17.635891"
     cy="3.4611411"
     r="2.215384"
     transform="rotate(-120)" /></svg>
