<?xml version="1.0" encoding="UTF-8" standalone="no"?>
<svg
   version="1.1"
   viewBox="0 0 16 16"
   id="svg6"
   sodipodi:docname="start-here-rev-symbolic.svg"
   inkscape:version="1.3.2 (1:1.3.2+202404261509+091e20ef0f)"
   xmlns:inkscape="http://www.inkscape.org/namespaces/inkscape"
   xmlns:sodipodi="http://sodipodi.sourceforge.net/DTD/sodipodi-0.dtd"
   xmlns="http://www.w3.org/2000/svg"
   xmlns:svg="http://www.w3.org/2000/svg">
  <defs
     id="defs6" />
  <sodipodi:namedview
     id="namedview6"
     pagecolor="#ffffff"
     bordercolor="#000000"
     borderopacity="0.25"
     inkscape:showpageshadow="2"
     inkscape:pageopacity="0.0"
     inkscape:pagecheckerboard="0"
     inkscape:deskcolor="#d1d1d1"
     showgrid="false"
     inkscape:zoom="50"
     inkscape:cx="7.99"
     inkscape:cy="7.99"
     inkscape:window-width="1920"
     inkscape:window-height="1011"
     inkscape:window-x="0"
     inkscape:window-y="0"
     inkscape:window-maximized="1"
     inkscape:current-layer="layer2">
    <inkscape:grid
       id="grid12"
       units="px"
       originx="0"
       originy="0"
       spacingx="1"
       spacingy="1"
       empcolor="#0099e5"
       empopacity="0.30196078"
       color="#0099e5"
       opacity="0.14901961"
       empspacing="4"
       dotted="false"
       gridanglex="30"
       gridanglez="30"
       visible="false" />
  </sodipodi:namedview>
  <g
     inkscape:groupmode="layer"
     id="layer2"
     inkscape:label="Layer 2"
     style="display:inline">
    <path
       id="path1"
       style="opacity:1;fill:#e5e5e5;stroke:none;stroke-width:0;stroke-linejoin:bevel;fill-opacity:1"
       d="M 8,0.5 A 7.5,7.5 0 0 0 0.5,8 7.5,7.5 0 0 0 8,15.5 7.5,7.5 0 0 0 15.5,8 7.5,7.5 0 0 0 8,0.5 Z m 2.5,1.4199219 a 1.7491643,1.7491643 0 0 1 0.875,0.234375 1.7491643,1.7491643 0 0 1 0.640625,2.390625 A 1.7491643,1.7491643 0 0 1 9.625,5.1855469 1.7491643,1.7491643 0 0 1 8.984375,2.7949219 1.7491643,1.7491643 0 0 1 10.5,1.9199219 Z M 8,2.25 c 0.1501168,0 0.298031,0.00813 0.4453125,0.019531 A 2.4988062,2.4988062 0 0 0 8.3339844,2.4199219 2.4988062,2.4988062 0 0 0 8.015625,3.75 C 8.010374,3.7499812 8.00526,3.75 8,3.75 6.4198361,3.75 5.0488808,4.6031426 4.3164062,5.875 A 2.4988062,2.4988062 0 0 0 3,5.5 2.4988062,2.4988062 0 0 0 2.8144531,5.5214844 C 3.7432531,3.5898908 5.7201735,2.25 8,2.25 Z m 4.748047,2.5136719 C 13.379767,5.686659 13.75,6.8013936 13.75,8 c 0,1.1986065 -0.370232,2.313341 -1.001953,3.236328 a 2.4988062,2.4988062 0 0 0 -0.08203,-0.15625 2.4988062,2.4988062 0 0 0 -0.990235,-0.939453 C 12.040875,9.5126974 12.25,8.7821962 12.25,8 12.25,7.2178037 12.040874,6.4873026 11.675781,5.859375 a 2.4988062,2.4988062 0 0 0 0.990235,-0.9394531 2.4988062,2.4988062 0 0 0 0.08203,-0.15625 z M 3,6.25 A 1.7491643,1.7491643 0 0 1 4.75,8 1.7491643,1.7491643 0 0 1 3,9.75 1.7491643,1.7491643 0 0 1 1.25,8 1.7491643,1.7491643 0 0 1 3,6.25 Z m 1.3164062,3.875 C 5.0488808,11.396858 6.4198361,12.25 8,12.25 c 0.00526,0 0.010375,1.9e-5 0.015625,0 a 2.4988062,2.4988062 0 0 0 0.3183594,1.330078 2.4988062,2.4988062 0 0 0 0.1113281,0.150391 C 8.298031,13.741899 8.1501168,13.75 8,13.75 5.7201735,13.75 3.7432531,12.410109 2.8144531,10.478516 A 2.4988062,2.4988062 0 0 0 3,10.5 2.4988062,2.4988062 0 0 0 4.3164062,10.125 Z M 10.5,10.580078 a 1.7491643,1.7491643 0 0 1 1.515625,0.875 A 1.7491643,1.7491643 0 0 1 11.375,13.845703 1.7491643,1.7491643 0 0 1 8.984375,13.205078 1.7491643,1.7491643 0 0 1 9.625,10.814453 1.7491643,1.7491643 0 0 1 10.5,10.580078 Z" />
  </g>
</svg>
