<?xml version="1.0" encoding="UTF-8" standalone="no"?>
<svg
   version="1.1"
   viewBox="0 0 16 16"
   id="svg6"
   sodipodi:docname="start-here-symbolic.svg"
   inkscape:version="1.3.2 (1:1.3.2+202404261509+091e20ef0f)"
   xmlns:inkscape="http://www.inkscape.org/namespaces/inkscape"
   xmlns:sodipodi="http://sodipodi.sourceforge.net/DTD/sodipodi-0.dtd"
   xmlns="http://www.w3.org/2000/svg"
   xmlns:svg="http://www.w3.org/2000/svg">
  <defs
     id="defs6" />
  <sodipodi:namedview
     id="namedview6"
     pagecolor="#ffffff"
     bordercolor="#000000"
     borderopacity="0.25"
     inkscape:showpageshadow="2"
     inkscape:pageopacity="0.0"
     inkscape:pagecheckerboard="0"
     inkscape:deskcolor="#d1d1d1"
     showgrid="false"
     inkscape:zoom="30.332903"
     inkscape:cx="10.071571"
     inkscape:cy="7.9946189"
     inkscape:window-width="1920"
     inkscape:window-height="1011"
     inkscape:window-x="0"
     inkscape:window-y="0"
     inkscape:window-maximized="1"
     inkscape:current-layer="layer2">
    <inkscape:grid
       id="grid12"
       units="px"
       originx="0"
       originy="0"
       spacingx="1"
       spacingy="1"
       empcolor="#0099e5"
       empopacity="0.30196078"
       color="#0099e5"
       opacity="0.14901961"
       empspacing="4"
       dotted="false"
       gridanglex="30"
       gridanglez="30"
       visible="false" />
  </sodipodi:namedview>
  <g
     inkscape:groupmode="layer"
     id="layer2"
     inkscape:label="Layer 2"
     style="display:inline">
    <g
       id="g19"
       style="fill:#e5e5e5;fill-opacity:1"
       transform="translate(0.49999995)">
      <path
         id="path13"
         style="color:#000000;opacity:1;fill:#e5e5e5;fill-opacity:1;stroke:none;stroke-width:0;stroke-linejoin:bevel;stroke-dasharray:none"
         d="M 8,2.25 C 5.7201712,2.25 3.7432541,3.5898889 2.8144531,5.5214844 A 2.4988062,2.4988062 0 0 1 3,5.5 2.4988062,2.4988062 0 0 1 4.3164062,5.875 C 5.0488816,4.6031413 6.4198346,3.75 8,3.75 c 0.00526,0 0.010374,-1.88e-5 0.015625,0 A 2.4988062,2.4988062 0 0 1 8.3339844,2.4199219 2.4988062,2.4988062 0 0 1 8.4453125,2.2695312 C 8.2980309,2.2581344 8.1501171,2.25 8,2.25 Z m 4.748047,2.5136719 a 2.4988062,2.4988062 0 0 1 -0.08203,0.15625 2.4988062,2.4988062 0 0 1 -0.990235,0.9394531 C 12.040875,6.4873032 12.25,7.2178029 12.25,8 c 0,0.782197 -0.209125,1.5126968 -0.574219,2.140625 a 2.4988062,2.4988062 0 0 1 0.990235,0.939453 2.4988062,2.4988062 0 0 1 0.08203,0.15625 C 13.379768,10.31334 13.75,9.1986077 13.75,8 13.75,6.8013924 13.379768,5.6866599 12.748047,4.7636719 Z M 4.3164062,10.125 A 2.4988062,2.4988062 0 0 1 3,10.5 2.4988062,2.4988062 0 0 1 2.8144531,10.478516 C 3.7432541,12.410111 5.7201712,13.75 8,13.75 c 0.1501171,0 0.2980309,-0.0081 0.4453125,-0.01953 A 2.4988062,2.4988062 0 0 1 8.3339844,13.580078 2.4988062,2.4988062 0 0 1 8.015625,12.25 c -0.00525,1.9e-5 -0.01037,0 -0.015625,0 -1.5801654,0 -2.9511184,-0.853141 -3.6835938,-2.125 z" />
      <path
         d="m 3.0000001,6.2500001 a 1.7491643,1.7491643 0 0 1 1.7499997,1.7499997 1.7491643,1.7491643 0 0 1 -1.7499997,1.75 1.7491643,1.7491643 0 0 1 -1.7499998,-1.75 1.7491643,1.7491643 0 0 1 1.7499998,-1.7499997 z"
         id="path9"
         style="opacity:1;fill:#e5e5e5;fill-opacity:1;stroke:none;stroke-width:0;stroke-dasharray:none" />
      <path
         d="M 12.015544,4.5448729 A 1.7491643,1.7491643 0 0 1 9.6250002,5.1854172 1.7491643,1.7491643 0 0 1 8.9844556,2.794873 1.7491643,1.7491643 0 0 1 11.375,2.1543287 1.7491643,1.7491643 0 0 1 12.015544,4.5448729 Z"
         id="path15"
         style="opacity:1;fill:#e5e5e5;fill-opacity:1;stroke:none;stroke-width:0;stroke-dasharray:none" />
      <path
         d="M 8.9844558,13.205127 A 1.7491643,1.7491643 0 0 1 9.6250001,10.814583 1.7491643,1.7491643 0 0 1 12.015544,11.455127 1.7491643,1.7491643 0 0 1 11.375,13.845671 1.7491643,1.7491643 0 0 1 8.9844558,13.205127 Z"
         id="path17"
         style="opacity:1;fill:#e5e5e5;fill-opacity:1;stroke:none;stroke-width:0;stroke-dasharray:none" />
    </g>
  </g>
</svg>
