<?xml version="1.0" encoding="UTF-8" standalone="no"?>
<svg
   version="1.1"
   viewBox="0 0 520 512"
   id="svg6"
   width="520"
   height="512"
   xmlns="http://www.w3.org/2000/svg"
   xmlns:svg="http://www.w3.org/2000/svg">
  <defs
     id="defs6" />
  <g
     id="layer2"
     style="display:inline">
    <path
       id="circle"
       style="color:#000000;fill:#e95420;fill-opacity:1;stroke:none;stroke-width:0;stroke-linejoin:bevel;stroke-dasharray:none"
       d="M 280,16 C 184.88188,16 102.37459,71.851819 63.587891,152.42773 66.370905,152.20219 69.160936,152 72,152 c 20.330511,0 39.2787,5.98369 55.33789,16.15234 C 157.64236,115.38184 214.47988,80 280,80 c 0.0858,0 0.17006,0.0057 0.25586,0.0059 -0.80411,-19.036599 3.4875,-38.488669 13.67773,-56.138671 1.42125,-2.461674 2.99309,-4.780109 4.58203,-7.080079 C 292.39687,16.315804 286.23588,16 280,16 Z m 197.84375,104.48047 c -1.18146,2.48409 -2.37918,4.96502 -3.77734,7.38672 -10.16488,17.60608 -24.81919,31.02429 -41.6543,39.84765 C 447.3967,193.6352 456,223.75833 456,256 c 0,32.24167 -8.6033,62.3648 -23.58789,88.28516 16.83511,8.82336 31.48942,22.24157 41.6543,39.84765 1.39816,2.4217 2.59588,4.90263 3.77734,7.38672 C 504.40128,352.90679 520,306.22156 520,256 520,205.77844 504.40128,159.09321 477.84375,120.48047 Z M 127.33789,343.84766 C 111.2787,354.01631 92.330511,360 72,360 69.160936,360 66.370905,359.79781 63.587891,359.57227 102.37459,440.14818 184.88188,496 280,496 c 6.23588,0 12.39687,-0.3158 18.51562,-0.78711 -1.58894,-2.29997 -3.16078,-4.6184 -4.58203,-7.08008 -10.19023,-17.65 -14.48184,-37.10207 -13.67773,-56.13867 C 280.17006,431.99426 280.08583,432 280,432 214.47988,432 157.64236,396.61816 127.33789,343.84766 Z" />
    <path
       style="color:#000000;fill:#e95420;fill-opacity:1;stroke:none;stroke-width:0;stroke-linejoin:bevel;stroke-dasharray:none"
       d="m 72,184 c 39.95398,0 72,32.04602 72,72 0,39.95398 -32.04602,72 -72,72 C 32.046024,328 0,295.95398 0,256 0,216.04602 32.046024,184 72,184 Z"
       id="head-270" />
    <path
       style="color:#000000;fill:#e95420;fill-opacity:1;stroke:none;stroke-width:0;stroke-linejoin:bevel;stroke-dasharray:none"
       d="M 321.64617,472.13328 C 301.66918,437.53212 313.39884,393.75644 348,373.77945 c 34.60116,-19.97699 78.37684,-8.24733 98.35383,26.35383 19.97699,34.60116 8.24733,78.37684 -26.35383,98.35383 -34.60116,19.97699 -78.37684,8.24733 -98.35383,-26.35383 z"
       id="head-150" />
    <path
       style="color:#000000;display:inline;fill:#e95420;fill-opacity:1;stroke:none;stroke-width:0;stroke-linejoin:bevel;stroke-dasharray:none"
       d="M 446.35383,111.86672 C 426.37684,146.46788 382.60116,158.19754 348,138.22055 313.39884,118.24356 301.66918,74.467878 321.64617,39.866716 341.62316,5.2655578 385.39884,-6.4641031 420,13.512887 c 34.60116,19.97699 46.33082,63.752671 26.35383,98.353833 z"
       id="head-30" />
  </g>
</svg>
