<?xml version="1.0" encoding="UTF-8" standalone="no"?>
<svg
   id="Layer_1"
   data-name="Layer 1"
   viewBox="0 0 248 87"
   version="1.1"
   xml:space="preserve"
   width="248"
   height="87"
   xmlns="http://www.w3.org/2000/svg"
   xmlns:svg="http://www.w3.org/2000/svg"><defs
     id="defs1"><style
       id="style1">
      .cls-1 {
        fill: none;
      }

      .cls-2 {
        fill: #e95420;
      }

      .cls-3 {
        fill: #fff;
      }
    </style></defs><path
     class="cls-3"
     d="m 83.05455,76.997175 c -2.542575,0 -4.7067,-0.38715 -6.492375,-1.159275 -1.78785,-0.7743 -3.23205,-1.842225 -4.33695,-3.20595 C 71.120325,71.2704 70.31775,69.676125 69.82185,67.8513 69.323775,66.02865 69.075825,64.0668 69.075825,61.96575 V 37.873275 h 3.7584 V 61.46985 c 0,2.098875 0.24795,3.915 0.746025,5.444025 0.498075,1.529025 1.18755,2.790525 2.072775,3.7845 0.885225,0.993975 1.95315,1.7313 3.20595,2.2098 1.2528,0.4785 2.6535,0.71775 4.199925,0.71775 1.546425,0 2.947125,-0.23925 4.199925,-0.71775 1.2528,-0.4785 2.320725,-1.215825 3.20595,-2.2098 C 91.35,69.7044 92.039475,68.4429 92.53755,66.913875 93.035625,65.38485 93.283575,63.5709 93.283575,61.46985 V 37.873275 h 3.7584 V 61.96575 c 0,2.10105 -0.24795,4.060725 -0.746025,5.88555 -0.498075,1.82265 -1.298475,3.416925 -2.403375,4.78065 -1.1049,1.363725 -2.551275,2.43165 -4.33695,3.20595 -1.78785,0.7743 -3.951975,1.159275 -6.492375,1.159275 z"
     id="path1" /><path
     class="cls-3"
     d="m 108.88268,49.313775 c 0.62639,-0.4785 1.62907,-0.985275 3.01237,-1.520325 1.38113,-0.532875 3.01238,-0.8004 4.8894,-0.8004 2.0619,0 3.89543,0.367575 5.4984,1.1049 1.60298,0.737325 2.95583,1.768275 4.06073,3.095025 1.1049,1.32675 1.94227,2.90145 2.51429,4.7241 0.56985,1.82265 0.85695,3.821475 0.85695,5.996475 0,2.320725 -0.34147,4.4022 -1.02225,6.244425 -0.68295,1.842225 -1.63995,3.408225 -2.87317,4.695825 -1.2354,1.289775 -2.70788,2.27505 -4.42178,2.955825 -1.7139,0.680775 -3.6192,1.02225 -5.72025,1.02225 -2.54257,0 -4.64145,-0.1653 -6.2988,-0.498075 -1.65735,-0.3306 -3.02107,-0.680775 -4.089,-1.050525 v -41.3337 L 108.8805,33.2862 v 16.0254 z m 0,23.48565 c 0.55245,0.184875 1.37242,0.358875 2.45992,0.524175 1.08532,0.1653 2.5143,0.24795 4.28258,0.24795 3.09502,0 5.58104,-1.002675 7.46024,-3.012375 1.8792,-2.007525 2.8188,-4.891575 2.8188,-8.6478 0,-1.5834 -0.16529,-3.08415 -0.49807,-4.504425 -0.3306,-1.4181 -0.86565,-2.6535 -1.60297,-3.70185 -0.73733,-1.050525 -1.7052,-1.8879 -2.90145,-2.5143 -1.19843,-0.6264 -2.67961,-0.9396 -4.44788,-0.9396 -0.84825,0 -1.65735,0.08265 -2.43165,0.24795 -0.7743,0.1653 -1.49205,0.37845 -2.15542,0.6351 -0.66338,0.258825 -1.2441,0.53505 -1.74,0.828675 -0.49808,0.2958 -0.91133,0.572025 -1.2441,0.828675 v 20.003475 z"
     id="path2" /><path
     class="cls-3"
     d="m 158.1138,75.174525 c -1.06792,0.2958 -2.5056,0.6264 -4.31085,0.993975 -1.80525,0.367575 -4.01505,0.55245 -6.63158,0.55245 -2.13802,0 -3.92369,-0.3132 -5.3592,-0.9396 -1.43767,-0.6264 -2.59695,-1.50945 -3.48217,-2.6535 -0.88305,-1.141875 -1.52033,-2.523 -1.9053,-4.143375 -0.38715,-1.620375 -0.58073,-3.408225 -0.58073,-5.3592 v -16.0254 h 3.59093 v 14.86395 c 0,2.0271 0.1479,3.738825 0.44152,5.139525 0.29363,1.4007 0.7743,2.533875 1.43768,3.39735 0.66337,0.86565 1.52032,1.49205 2.56867,1.8792 1.05053,0.38715 2.32943,0.580725 3.84105,0.580725 1.69433,0 3.1668,-0.09135 4.42178,-0.276225 1.2528,-0.184875 2.0445,-0.350175 2.3751,-0.498075 V 47.5977 h 3.59092 v 27.57465 z"
     id="path3" /><path
     class="cls-3"
     d="m 166.03515,48.596025 c 1.06792,-0.293625 2.5056,-0.6264 4.31085,-0.993975 1.80525,-0.367575 4.01505,-0.55245 6.63157,-0.55245 2.17283,0 3.98678,0.3132 5.44403,0.9396 1.45507,0.6264 2.61435,1.520325 3.48217,2.6796 0.86565,1.16145 1.48336,2.551275 1.85093,4.17165 0.36757,1.62255 0.55245,3.408225 0.55245,5.3592 V 76.1685 h -3.59093 V 61.358925 c 0,-2.024925 -0.1392,-3.738825 -0.41542,-5.139525 -0.27623,-1.4007 -0.73733,-2.542575 -1.38113,-3.425625 -0.6438,-0.885225 -1.49205,-1.520325 -2.54257,-1.907475 -1.05053,-0.38715 -2.3664,-0.580725 -3.95198,-0.580725 -1.69432,0 -3.16027,0.09135 -4.3935,0.276225 -1.2354,0.184875 -2.0358,0.350175 -2.40337,0.498075 v 25.08645 h -3.59093 v -27.57465 z"
     id="path4" /><path
     class="cls-3"
     d="m 199.36267,47.599875 h 11.38396 v 3.038475 h -11.38396 v 15.196725 c 0,1.62255 0.13703,2.938425 0.41543,3.951975 0.27622,1.01355 0.67207,1.79655 1.18755,2.349 0.51547,0.55245 1.14187,0.9222 1.8792,1.1049 0.73732,0.184875 1.54642,0.276225 2.43165,0.276225 1.50945,0 2.72527,-0.174 3.64747,-0.524175 0.92003,-0.350175 1.63778,-0.672075 2.15543,-0.967875 l 0.88522,2.9841 c -0.51547,0.3306 -1.4181,0.70905 -2.70787,1.133175 -1.28978,0.424125 -2.69048,0.6351 -4.19993,0.6351 -1.76827,0 -3.25162,-0.23055 -4.44787,-0.69165 -1.19843,-0.4611 -2.15543,-1.16145 -2.87318,-2.098875 -0.71775,-0.9396 -1.22452,-2.107575 -1.52032,-3.508275 -0.2958,-1.398525 -0.44153,-3.05805 -0.44153,-4.974225 V 39.2022 l 3.59093,-0.663375 v 9.063225 z"
     id="path5" /><path
     class="cls-3"
     d="m 238.032,75.174525 c -1.06793,0.2958 -2.5056,0.6264 -4.31085,0.993975 -1.80525,0.367575 -4.01505,0.55245 -6.63157,0.55245 -2.13803,0 -3.9237,-0.3132 -5.3592,-0.9396 -1.43768,-0.6264 -2.59695,-1.50945 -3.48218,-2.6535 -0.88305,-1.141875 -1.52032,-2.523 -1.9053,-4.143375 -0.38715,-1.620375 -0.58072,-3.408225 -0.58072,-5.3592 v -16.0254 h 3.59092 v 14.86395 c 0,2.0271 0.1479,3.738825 0.44153,5.139525 0.29362,1.4007 0.7743,2.533875 1.43767,3.39735 0.66338,0.86565 1.52033,1.49205 2.56868,1.8792 1.05052,0.38715 2.32942,0.580725 3.84105,0.580725 1.69432,0 3.1668,-0.09135 4.42177,-0.276225 1.2528,-0.184875 2.0445,-0.350175 2.3751,-0.498075 V 47.5977 h 3.59093 v 27.57465 z"
     id="path6" /><rect
     width="55.244999"
     height="87"
     id="rect-e95420ff"
     x="0"
     y="0"
     class="cls-2" /><path
     id="circle13"
     class="cls-3"
     d="m 29.21815,37.845 c -7.605464,0 -14.199363,4.476337 -17.284985,10.927887 a 8.2970423,8.2970423 0 0 1 0.690901,-0.07791 8.2970423,8.2970423 0 0 1 4.420114,1.279428 c 2.418992,-4.204901 6.950631,-7.023536 12.17397,-7.023536 0.01977,0 0.03916,0.0013 0.0589,0.0013 a 8.2970423,8.2970423 0 0 1 1.052713,-4.479636 8.2970423,8.2970423 0 0 1 0.414011,-0.561102 c -0.503957,-0.04 -1.01167,-0.06643 -1.525624,-0.06643 z m 15.788501,8.341917 a 8.2970423,8.2970423 0 0 1 -0.306027,0.582763 8.2970423,8.2970423 0 0 1 -3.342159,3.145826 c 1.207333,2.075318 1.900834,4.49057 1.900834,7.076515 0,2.585942 -0.693501,5.001195 -1.900834,7.076512 a 8.2970423,8.2970423 0 0 1 3.342159,3.145827 8.2970423,8.2970423 0 0 1 0.306027,0.582763 c 2.115964,-3.079211 3.35852,-6.801338 3.35852,-10.805102 0,-4.003764 -1.242556,-7.725892 -3.35852,-10.805104 z m -27.986779,17.78049 a 8.2970423,8.2970423 0 0 1 -4.395806,1.321656 8.2970423,8.2970423 0 0 1 -0.690901,-0.07791 c 3.085622,6.451551 9.679521,10.92789 17.284985,10.92789 0.513954,0 1.021667,-0.02643 1.525623,-0.06654 a 8.2970423,8.2970423 0 0 1 -0.414011,-0.561104 8.2970423,8.2970423 0 0 1 -1.052713,-4.479636 c -0.01973,8e-5 -0.03914,0.0013 -0.0589,0.0013 -5.240824,0 -9.78542,-2.837473 -12.198278,-7.065762 z" /><circle
     class="cls-3"
     id="circle15"
     cx="12.624066"
     cy="56.992023"
     r="5.7441063" /><circle
     class="cls-3"
     id="circle17"
     cx="18.153378"
     cy="-53.799671"
     r="5.7441063"
     transform="rotate(120)" /><circle
     class="cls-3"
     id="circle19"
     cx="-80.5597"
     cy="-3.1923504"
     r="5.7441063"
     transform="rotate(-120)" /></svg>
