<?xml version="1.0" encoding="UTF-8" standalone="no"?>
<svg
   version="1.1"
   viewBox="0 0 520 512"
   id="svg6"
   sodipodi:docname="Ubuntu-logo-v2024-source.svg"
   width="520"
   height="512"
   inkscape:version="1.3.2 (1:1.3.2+202404261509+091e20ef0f)"
   xmlns:inkscape="http://www.inkscape.org/namespaces/inkscape"
   xmlns:sodipodi="http://sodipodi.sourceforge.net/DTD/sodipodi-0.dtd"
   xmlns="http://www.w3.org/2000/svg"
   xmlns:svg="http://www.w3.org/2000/svg">
  <sodipodi:namedview
     id="namedview1"
     pagecolor="#ffffff"
     bordercolor="#000000"
     borderopacity="0.25"
     inkscape:showpageshadow="2"
     inkscape:pageopacity="0.0"
     inkscape:pagecheckerboard="0"
     inkscape:deskcolor="#d1d1d1"
     inkscape:zoom="1.6503906"
     inkscape:cx="256"
     inkscape:cy="256"
     inkscape:window-width="1920"
     inkscape:window-height="1011"
     inkscape:window-x="0"
     inkscape:window-y="0"
     inkscape:window-maximized="1"
     inkscape:current-layer="layer2"
     showgrid="true">
    <inkscape:grid
       id="grid1"
       units="px"
       originx="0"
       originy="0"
       spacingx="8"
       spacingy="8"
       empcolor="#0099e5"
       empopacity="0.30196078"
       color="#0099e5"
       opacity="0.14901961"
       empspacing="4"
       dotted="false"
       gridanglex="30"
       gridanglez="30"
       visible="true" />
  </sodipodi:namedview>
  <defs
     id="defs6" />
  <g
     inkscape:groupmode="layer"
     id="layer1"
     inkscape:label="v2022"
     style="display:none"
     sodipodi:insensitive="true">
    <text
       xml:space="preserve"
       style="font-size:10.6667px;line-height:13.3333px;font-family:'DejaVu Sans';-inkscape-font-specification:'DejaVu Sans';text-align:center;text-anchor:middle;display:inline;opacity:1;fill:#000000;fill-opacity:1;stroke:#ffffff;stroke-width:0;stroke-linejoin:bevel;stroke-dasharray:none;stroke-opacity:1"
       x="543.41144"
       y="40.104191"
       id="text11"><tspan
         sodipodi:role="line"
         id="tspan11"
         x="543.41144"
         y="40.104191"
         style="font-size:10.6667px;line-height:13.3333px;text-align:start;text-anchor:start;fill:#000000;fill-opacity:1;stroke:none">circle: 480 total width, 64 stroke width</tspan><tspan
         sodipodi:role="line"
         x="543.41144"
         y="53.437489"
         style="font-size:10.6667px;line-height:13.3333px;text-align:start;text-anchor:start;fill:#000000;fill-opacity:1;stroke:none"
         id="tspan12">head: 144 + (2x32) = 208 total width</tspan></text>
    <g
       fill="#808080"
       id="g6"
       transform="matrix(43.529955,0,0,43.529955,-83.316323,-102.36253)"
       style="opacity:0.25;fill:#ff0101;fill-opacity:1;stroke:none;stroke-width:0;stroke-dasharray:none">
      <path
         d="M 10.176,10.551 A 1.675,1.675 0 0 1 11.8498,12.2248 1.675,1.675 0 0 1 10.176,13.9006 1.675,1.675 0 0 1 8.5002,12.2248 1.675,1.675 0 0 1 10.176,10.551 Z"
         id="path1"
         style="fill:#ff0101;fill-opacity:1;stroke:none;stroke-width:0;stroke-dasharray:none" />
      <path
         d="m 4.5898,10.086 a 4.04,4.04 0 0 0 2.7754,2.125 1.445,1.445 0 0 0 0.41016,0.06445 2.355,2.355 0 0 0 0.5,1.4004 5.5,5.5 0 0 1 -1.1855,-0.125 5.435,5.435 0 0 1 -3.9258,-3.291 2.415,2.415 0 0 0 1.4258,-0.17383 z"
         id="path2"
         style="fill:#ff0101;fill-opacity:1;stroke:none;stroke-width:0;stroke-dasharray:none" />
      <path
         d="M 3.5898,6.2344 A 1.675,1.675 0 0 1 5.2656,7.9102 1.675,1.675 0 0 1 3.5898,9.586 1.675,1.675 0 0 1 1.914,7.9102 1.675,1.675 0 0 1 3.5898,6.2344 Z"
         id="path3"
         style="fill:#ff0101;fill-opacity:1;stroke:none;stroke-width:0;stroke-dasharray:none" />
      <path
         d="M 12.775,5.1992 A 5.5,5.5 0 0 1 12.49961,11.6152 2.29,2.29 0 0 0 11.69883,10.375 4.04,4.04 0 0 0 12.22422,9.0742 4.11,4.11 0 0 0 11.83555,6.3008 2.425,2.425 0 0 0 12.775,5.1992 Z"
         id="path4"
         style="fill:#ff0101;fill-opacity:1;stroke:none;stroke-width:0;stroke-dasharray:none" />
      <path
         d="m 8.1191,2.7402 a 5.5,5.5 0 0 1 0.51562,0.015625 2.315,2.315 0 0 0 -0.45898,0.97461 3.21,3.21 0 0 0 -0.050781,0.375 4.06,4.06 0 0 0 -3.2891,1.7598 2.42,2.42 0 0 0 -0.76172,-0.31445 2.325,2.325 0 0 0 -0.5,-0.050781 h -0.125 a 5.5,5.5 0 0 1 4.6699,-2.7598 z"
         id="path5"
         style="fill:#ff0101;fill-opacity:1;stroke:none;stroke-width:0;stroke-dasharray:none" />
      <path
         d="M 10.551,2.5645 A 1.675,1.675 0 0 1 12.2248,4.2403 1.675,1.675 0 0 1 10.551,5.9141 1.675,1.675 0 0 1 8.8752,4.2403 1.675,1.675 0 0 1 10.551,2.5645 Z"
         id="path6"
         style="fill:#ff0101;fill-opacity:1;stroke:none;stroke-width:0;stroke-dasharray:none" />
    </g>
  </g>
  <g
     inkscape:groupmode="layer"
     id="layer2"
     inkscape:label="v2024"
     style="display:inline"
     sodipodi:insensitive="true">
    <g
       id="Circle-of-Friends"
       transform="translate(6)"
       style="opacity:1;fill:#0080ff;fill-opacity:1;stroke:none;stroke-width:0;stroke-dasharray:none">
      <path
         id="circle"
         style="color:#000000;fill:#0080ff;fill-opacity:1;stroke:none;stroke-width:0;stroke-linejoin:bevel;stroke-dasharray:none"
         d="M 274,16 C 178.88188,16 96.374587,71.851819 57.587891,152.42773 60.370905,152.20219 63.160936,152 66,152 c 20.330511,0 39.2787,5.98369 55.33789,16.15234 C 151.64236,115.38184 208.47988,80 274,80 c 0.0858,0 0.17006,0.0057 0.25586,0.0059 -0.80411,-19.036599 3.4875,-38.488669 13.67773,-56.138671 1.42125,-2.461674 2.99309,-4.780109 4.58203,-7.080079 C 286.39687,16.315804 280.23588,16 274,16 Z m 197.84375,104.48047 c -1.18146,2.48409 -2.37918,4.96502 -3.77734,7.38672 -10.16488,17.60608 -24.81919,31.02429 -41.6543,39.84765 C 441.3967,193.6352 450,223.75833 450,256 c 0,32.24167 -8.6033,62.3648 -23.58789,88.28516 16.83511,8.82336 31.48942,22.24157 41.6543,39.84765 1.39816,2.4217 2.59588,4.90263 3.77734,7.38672 C 498.40128,352.90679 514,306.22156 514,256 514,205.77844 498.40128,159.09321 471.84375,120.48047 Z M 121.33789,343.84766 C 105.2787,354.01631 86.330511,360 66,360 63.160936,360 60.370905,359.79781 57.587891,359.57227 96.374587,440.14818 178.88188,496 274,496 c 6.23588,0 12.39687,-0.3158 18.51562,-0.78711 -1.58894,-2.29997 -3.16078,-4.6184 -4.58203,-7.08008 -10.19023,-17.65 -14.48184,-37.10207 -13.67773,-56.13867 C 274.17006,431.99426 274.08583,432 274,432 208.47988,432 151.64236,396.61816 121.33789,343.84766 Z" />
      <path
         style="color:#000000;fill:#0080ff;fill-opacity:1;stroke:none;stroke-width:0;stroke-linejoin:bevel;stroke-dasharray:none"
         d="m 66,184 c 39.95398,0 72,32.04602 72,72 0,39.95398 -32.04602,72 -72,72 -39.953976,0 -72,-32.04602 -72,-72 0,-39.95398 32.046024,-72 72,-72 z"
         id="head-270" />
      <path
         style="color:#000000;fill:#0080ff;fill-opacity:1;stroke:none;stroke-width:0;stroke-linejoin:bevel;stroke-dasharray:none"
         d="M 315.64617,472.13328 C 295.66918,437.53212 307.39884,393.75644 342,373.77945 c 34.60116,-19.97699 78.37684,-8.24733 98.35383,26.35383 19.97699,34.60116 8.24733,78.37684 -26.35383,98.35383 -34.60116,19.97699 -78.37684,8.24733 -98.35383,-26.35383 z"
         id="head-150" />
      <path
         style="color:#000000;display:inline;fill:#0080ff;fill-opacity:1;stroke:none;stroke-width:0;stroke-linejoin:bevel;stroke-dasharray:none"
         d="M 440.35383,111.86672 C 420.37684,146.46788 376.60116,158.19754 342,138.22055 307.39884,118.24356 295.66918,74.467878 315.64617,39.866716 335.62316,5.2655578 379.39884,-6.4641031 414,13.512887 c 34.60116,19.97699 46.33082,63.752671 26.35383,98.353833 z"
         id="head-30" />
    </g>
  </g>
</svg>
