<?xml version="1.0" encoding="UTF-8" standalone="no"?>
<svg
   id="Layer_1"
   data-name="Layer 1"
   viewBox="0 0 248 87"
   version="1.1"
   sodipodi:docname="ubuntu-logo-v2024-plymouth.svg"
   width="248"
   height="87"
   inkscape:version="1.3.2 (1:1.3.2+202404261509+091e20ef0f)"
   xml:space="preserve"
   inkscape:export-filename="ubuntu-logo-v2024-plymouth-2.png"
   inkscape:export-xdpi="96"
   inkscape:export-ydpi="96"
   xmlns:inkscape="http://www.inkscape.org/namespaces/inkscape"
   xmlns:sodipodi="http://sodipodi.sourceforge.net/DTD/sodipodi-0.dtd"
   xmlns="http://www.w3.org/2000/svg"
   xmlns:svg="http://www.w3.org/2000/svg"><sodipodi:namedview
     id="namedview19"
     pagecolor="#808080"
     bordercolor="#000000"
     borderopacity="0.25"
     inkscape:showpageshadow="2"
     inkscape:pageopacity="0.0"
     inkscape:pagecheckerboard="0"
     inkscape:deskcolor="#d1d1d1"
     inkscape:zoom="4.3548387"
     inkscape:cx="124"
     inkscape:cy="43.514815"
     inkscape:window-width="1920"
     inkscape:window-height="1011"
     inkscape:window-x="0"
     inkscape:window-y="0"
     inkscape:window-maximized="1"
     inkscape:current-layer="Layer_1"
     showguides="true" /><defs
     id="defs1"><style
       id="style1">
      .cls-1 {
        fill: none;
      }

      .cls-2 {
        fill: #e95420;
      }

      .cls-3 {
        fill: #fff;
      }
    </style></defs><g
     id="Ubuntu"
     transform="matrix(0.2175,0,0,0.2175,9.5214844e-6,-0.02828)"
     style="stroke-width:4.5977"><path
       class="cls-3"
       d="m 381.86,354.01 c -11.69,0 -21.64,-1.78 -29.85,-5.33 -8.22,-3.56 -14.86,-8.47 -19.94,-14.74 -5.08,-6.26 -8.77,-13.59 -11.05,-21.98 -2.29,-8.38 -3.43,-17.4 -3.43,-27.06 V 174.13 h 17.28 v 108.49 c 0,9.65 1.14,18 3.43,25.03 2.29,7.03 5.46,12.83 9.53,17.4 4.07,4.57 8.98,7.96 14.74,10.16 5.76,2.2 12.2,3.3 19.31,3.3 7.11,0 13.55,-1.1 19.31,-3.3 5.76,-2.2 10.67,-5.59 14.74,-10.16 4.07,-4.57 7.24,-10.37 9.53,-17.4 2.29,-7.03 3.43,-15.37 3.43,-25.03 V 174.13 h 17.28 V 284.9 c 0,9.66 -1.14,18.67 -3.43,27.06 -2.29,8.38 -5.97,15.71 -11.05,21.98 -5.08,6.27 -11.73,11.18 -19.94,14.74 -8.22,3.56 -18.17,5.33 -29.85,5.33 z"
       id="path1"
       style="stroke-width:4.5977" /><path
       class="cls-3"
       d="m 500.61,226.73 c 2.88,-2.2 7.49,-4.53 13.85,-6.99 6.35,-2.45 13.85,-3.68 22.48,-3.68 9.48,0 17.91,1.69 25.28,5.08 7.37,3.39 13.59,8.13 18.67,14.23 5.08,6.1 8.93,13.34 11.56,21.72 2.62,8.38 3.94,17.57 3.94,27.57 0,10.67 -1.57,20.24 -4.7,28.71 -3.14,8.47 -7.54,15.67 -13.21,21.59 -5.68,5.93 -12.45,10.46 -20.33,13.59 -7.88,3.13 -16.64,4.7 -26.3,4.7 -11.69,0 -21.34,-0.76 -28.96,-2.29 -7.62,-1.52 -13.89,-3.13 -18.8,-4.83 V 156.09 l 16.51,-3.05 v 73.68 z m 0,107.98 c 2.54,0.85 6.31,1.65 11.31,2.41 4.99,0.76 11.56,1.14 19.69,1.14 14.23,0 25.66,-4.61 34.3,-13.85 8.64,-9.23 12.96,-22.49 12.96,-39.76 0,-7.28 -0.76,-14.18 -2.29,-20.71 -1.52,-6.52 -3.98,-12.2 -7.37,-17.02 -3.39,-4.83 -7.84,-8.68 -13.34,-11.56 -5.51,-2.88 -12.32,-4.32 -20.45,-4.32 -3.9,0 -7.62,0.38 -11.18,1.14 -3.56,0.76 -6.86,1.74 -9.91,2.92 -3.05,1.19 -5.72,2.46 -8,3.81 -2.29,1.36 -4.19,2.63 -5.72,3.81 v 91.97 z"
       id="path2"
       style="stroke-width:4.5977" /><path
       class="cls-3"
       d="m 726.96,345.63 c -4.91,1.36 -11.52,2.88 -19.82,4.57 -8.3,1.69 -18.46,2.54 -30.49,2.54 -9.83,0 -18.04,-1.44 -24.64,-4.32 -6.61,-2.88 -11.94,-6.94 -16.01,-12.2 -4.06,-5.25 -6.99,-11.6 -8.76,-19.05 -1.78,-7.45 -2.67,-15.67 -2.67,-24.64 v -73.68 h 16.51 v 68.34 c 0,9.32 0.68,17.19 2.03,23.63 1.35,6.44 3.56,11.65 6.61,15.62 3.05,3.98 6.99,6.86 11.81,8.64 4.83,1.78 10.71,2.67 17.66,2.67 7.79,0 14.56,-0.42 20.33,-1.27 5.76,-0.85 9.4,-1.61 10.92,-2.29 V 218.84 h 16.51 v 126.78 z"
       id="path3"
       style="stroke-width:4.5977" /><path
       class="cls-3"
       d="m 763.38,223.43 c 4.91,-1.35 11.52,-2.88 19.82,-4.57 8.3,-1.69 18.46,-2.54 30.49,-2.54 9.99,0 18.33,1.44 25.03,4.32 6.69,2.88 12.02,6.99 16.01,12.32 3.98,5.34 6.82,11.73 8.51,19.18 1.69,7.46 2.54,15.67 2.54,24.64 v 73.42 h -16.51 v -68.09 c 0,-9.31 -0.64,-17.19 -1.91,-23.63 -1.27,-6.44 -3.39,-11.69 -6.35,-15.75 -2.96,-4.07 -6.86,-6.99 -11.69,-8.77 -4.83,-1.78 -10.88,-2.67 -18.17,-2.67 -7.79,0 -14.53,0.42 -20.2,1.27 -5.68,0.85 -9.36,1.61 -11.05,2.29 V 350.19 H 763.39 V 223.41 Z"
       id="path4"
       style="stroke-width:4.5977" /><path
       class="cls-3"
       d="m 916.61,218.85 h 52.34 v 13.97 h -52.34 v 69.87 c 0,7.46 0.63,13.51 1.91,18.17 1.27,4.66 3.09,8.26 5.46,10.8 2.37,2.54 5.25,4.24 8.64,5.08 3.39,0.85 7.11,1.27 11.18,1.27 6.94,0 12.53,-0.8 16.77,-2.41 4.23,-1.61 7.53,-3.09 9.91,-4.45 l 4.07,13.72 c -2.37,1.52 -6.52,3.26 -12.45,5.21 -5.93,1.95 -12.37,2.92 -19.31,2.92 -8.13,0 -14.95,-1.06 -20.45,-3.18 -5.51,-2.12 -9.91,-5.34 -13.21,-9.65 -3.3,-4.32 -5.63,-9.69 -6.99,-16.13 -1.36,-6.43 -2.03,-14.06 -2.03,-22.87 V 180.24 l 16.51,-3.05 v 41.67 z"
       id="path5"
       style="stroke-width:4.5977" /><path
       class="cls-3"
       d="m 1094.4,345.63 c -4.91,1.36 -11.52,2.88 -19.82,4.57 -8.3,1.69 -18.46,2.54 -30.49,2.54 -9.83,0 -18.04,-1.44 -24.64,-4.32 -6.61,-2.88 -11.94,-6.94 -16.01,-12.2 -4.06,-5.25 -6.99,-11.6 -8.76,-19.05 -1.78,-7.45 -2.67,-15.67 -2.67,-24.64 v -73.68 h 16.51 v 68.34 c 0,9.32 0.68,17.19 2.03,23.63 1.35,6.44 3.56,11.65 6.61,15.62 3.05,3.98 6.99,6.86 11.81,8.64 4.83,1.78 10.71,2.67 17.66,2.67 7.79,0 14.56,-0.42 20.33,-1.27 5.76,-0.85 9.4,-1.61 10.92,-2.29 V 218.84 h 16.51 v 126.78 z"
       id="path6"
       style="stroke-width:4.5977" /></g><rect
     class="cls-2"
     width="55.244999"
     height="87"
     id="rect-e95420ff"
     x="0"
     y="0"
     style="fill:#e95420;fill-opacity:1;stroke-width:1" /><path
     id="circle13"
     style="color:#000000;fill:#ffffff;fill-opacity:1;stroke:none;stroke-width:0;stroke-linejoin:bevel;stroke-dasharray:none"
     d="m 29.21816,37.845 c -7.60546,0 -14.19936,4.47634 -17.28498,10.92789 a 8.2970423,8.2970423 0 0 1 0.6909,-0.0779 8.2970423,8.2970423 0 0 1 4.42011,1.27943 c 2.41899,-4.2049 6.95063,-7.02354 12.17397,-7.02354 0.0198,0 0.0392,0.001 0.0589,0.001 a 8.2970423,8.2970423 0 0 1 1.05271,-4.47964 8.2970423,8.2970423 0 0 1 0.41401,-0.5611 c -0.50395,-0.04 -1.01167,-0.0664 -1.52562,-0.0664 z m 15.7885,8.34192 a 8.2970423,8.2970423 0 0 1 -0.30603,0.58276 8.2970423,8.2970423 0 0 1 -3.34216,3.14583 c 1.20734,2.07531 1.90084,4.49057 1.90084,7.07651 0,2.58594 -0.6935,5.0012 -1.90084,7.07651 a 8.2970423,8.2970423 0 0 1 3.34216,3.14583 8.2970423,8.2970423 0 0 1 0.30603,0.58276 c 2.11596,-3.07921 3.35852,-6.80134 3.35852,-10.8051 0,-4.00376 -1.24256,-7.72589 -3.35852,-10.8051 z M 17.01988,63.96741 a 8.2970423,8.2970423 0 0 1 -4.3958,1.32165 8.2970423,8.2970423 0 0 1 -0.6909,-0.0779 c 3.08562,6.45155 9.67952,10.92789 17.28498,10.92789 0.51395,0 1.02167,-0.0264 1.52562,-0.0665 a 8.2970423,8.2970423 0 0 1 -0.41401,-0.56111 8.2970423,8.2970423 0 0 1 -1.05271,-4.47963 c -0.0197,8e-5 -0.0391,0.001 -0.0589,0.001 -5.24082,0 -9.78542,-2.83747 -12.19828,-7.06576 z" /><circle
     style="fill:#ffffff;fill-opacity:1;stroke:none;stroke-width:0;stroke-linejoin:bevel;stroke-dasharray:none;stroke-opacity:1"
     id="circle15"
     cx="12.624084"
     cy="56.99202"
     r="5.7441063" /><circle
     style="fill:#ffffff;fill-opacity:1;stroke:none;stroke-width:0;stroke-linejoin:bevel;stroke-dasharray:none;stroke-opacity:1"
     id="circle17"
     cx="18.153379"
     cy="-53.799675"
     r="5.7441063"
     transform="rotate(120)" /><circle
     style="fill:#ffffff;fill-opacity:1;stroke:none;stroke-width:0;stroke-linejoin:bevel;stroke-dasharray:none;stroke-opacity:1"
     id="circle19"
     cx="-80.559692"
     cy="-3.1923282"
     r="5.7441063"
     transform="rotate(-120)" /></svg>
