<?xml version="1.0" encoding="UTF-8" standalone="no"?>
<svg
   id="Layer_1"
   data-name="Layer 1"
   viewBox="0 0 248 87"
   version="1.1"
   xml:space="preserve"
   width="248"
   height="87"
   xmlns:xlink="http://www.w3.org/1999/xlink"
   xmlns="http://www.w3.org/2000/svg"
   xmlns:svg="http://www.w3.org/2000/svg"><defs
   id="defs1"><style
   id="style1">
      .cls-1 {
        fill: none;
      }

      .cls-2 {
        fill: #e95420;
      }

      .cls-3 {
        fill: #fff;
      }
    </style>
  </defs>
  <g
   id="g6"
   transform="matrix(0.2175,0,0,0.2175,9.5214844e-6,0)">
    <path
   class="cls-3"
   d="m 381.86,354.01 c -11.69,0 -21.64,-1.78 -29.85,-5.33 -8.22,-3.56 -14.86,-8.47 -19.94,-14.74 -5.08,-6.26 -8.77,-13.59 -11.05,-21.98 -2.29,-8.38 -3.43,-17.4 -3.43,-27.06 V 174.13 h 17.28 v 108.49 c 0,9.65 1.14,18 3.43,25.03 2.29,7.03 5.46,12.83 9.53,17.4 4.07,4.57 8.98,7.96 14.74,10.16 5.76,2.2 12.2,3.3 19.31,3.3 7.11,0 13.55,-1.1 19.31,-3.3 5.76,-2.2 10.67,-5.59 14.74,-10.16 4.07,-4.57 7.24,-10.37 9.53,-17.4 2.29,-7.03 3.43,-15.37 3.43,-25.03 V 174.13 h 17.28 V 284.9 c 0,9.66 -1.14,18.67 -3.43,27.06 -2.29,8.38 -5.97,15.71 -11.05,21.98 -5.08,6.27 -11.73,11.18 -19.94,14.74 -8.22,3.56 -18.17,5.33 -29.85,5.33 z"
   id="path1" />
    <path
   class="cls-3"
   d="m 500.61,226.73 c 2.88,-2.2 7.49,-4.53 13.85,-6.99 6.35,-2.45 13.85,-3.68 22.48,-3.68 9.48,0 17.91,1.69 25.28,5.08 7.37,3.39 13.59,8.13 18.67,14.23 5.08,6.1 8.93,13.34 11.56,21.72 2.62,8.38 3.94,17.57 3.94,27.57 0,10.67 -1.57,20.24 -4.7,28.71 -3.14,8.47 -7.54,15.67 -13.21,21.59 -5.68,5.93 -12.45,10.46 -20.33,13.59 -7.88,3.13 -16.64,4.7 -26.3,4.7 -11.69,0 -21.34,-0.76 -28.96,-2.29 -7.62,-1.52 -13.89,-3.13 -18.8,-4.83 V 156.09 l 16.51,-3.05 v 73.68 z m 0,107.98 c 2.54,0.85 6.31,1.65 11.31,2.41 4.99,0.76 11.56,1.14 19.69,1.14 14.23,0 25.66,-4.61 34.3,-13.85 8.64,-9.23 12.96,-22.49 12.96,-39.76 0,-7.28 -0.76,-14.18 -2.29,-20.71 -1.52,-6.52 -3.98,-12.2 -7.37,-17.02 -3.39,-4.83 -7.84,-8.68 -13.34,-11.56 -5.51,-2.88 -12.32,-4.32 -20.45,-4.32 -3.9,0 -7.62,0.38 -11.18,1.14 -3.56,0.76 -6.86,1.74 -9.91,2.92 -3.05,1.19 -5.72,2.46 -8,3.81 -2.29,1.36 -4.19,2.63 -5.72,3.81 v 91.97 z"
   id="path2" />
    <path
   class="cls-3"
   d="m 726.96,345.63 c -4.91,1.36 -11.52,2.88 -19.82,4.57 -8.3,1.69 -18.46,2.54 -30.49,2.54 -9.83,0 -18.04,-1.44 -24.64,-4.32 -6.61,-2.88 -11.94,-6.94 -16.01,-12.2 -4.06,-5.25 -6.99,-11.6 -8.76,-19.05 -1.78,-7.45 -2.67,-15.67 -2.67,-24.64 v -73.68 h 16.51 v 68.34 c 0,9.32 0.68,17.19 2.03,23.63 1.35,6.44 3.56,11.65 6.61,15.62 3.05,3.98 6.99,6.86 11.81,8.64 4.83,1.78 10.71,2.67 17.66,2.67 7.79,0 14.56,-0.42 20.33,-1.27 5.76,-0.85 9.4,-1.61 10.92,-2.29 V 218.84 h 16.51 v 126.78 z"
   id="path3" />
    <path
   class="cls-3"
   d="m 763.38,223.43 c 4.91,-1.35 11.52,-2.88 19.82,-4.57 8.3,-1.69 18.46,-2.54 30.49,-2.54 9.99,0 18.33,1.44 25.03,4.32 6.69,2.88 12.02,6.99 16.01,12.32 3.98,5.34 6.82,11.73 8.51,19.18 1.69,7.46 2.54,15.67 2.54,24.64 v 73.42 h -16.51 v -68.09 c 0,-9.31 -0.64,-17.19 -1.91,-23.63 -1.27,-6.44 -3.39,-11.69 -6.35,-15.75 -2.96,-4.07 -6.86,-6.99 -11.69,-8.77 -4.83,-1.78 -10.88,-2.67 -18.17,-2.67 -7.79,0 -14.53,0.42 -20.2,1.27 -5.68,0.85 -9.36,1.61 -11.05,2.29 V 350.19 H 763.39 V 223.41 Z"
   id="path4" />
    <path
   class="cls-3"
   d="m 916.61,218.85 h 52.34 v 13.97 h -52.34 v 69.87 c 0,7.46 0.63,13.51 1.91,18.17 1.27,4.66 3.09,8.26 5.46,10.8 2.37,2.54 5.25,4.24 8.64,5.08 3.39,0.85 7.11,1.27 11.18,1.27 6.94,0 12.53,-0.8 16.77,-2.41 4.23,-1.61 7.53,-3.09 9.91,-4.45 l 4.07,13.72 c -2.37,1.52 -6.52,3.26 -12.45,5.21 -5.93,1.95 -12.37,2.92 -19.31,2.92 -8.13,0 -14.95,-1.06 -20.45,-3.18 -5.51,-2.12 -9.91,-5.34 -13.21,-9.65 -3.3,-4.32 -5.63,-9.69 -6.99,-16.13 -1.36,-6.43 -2.03,-14.06 -2.03,-22.87 V 180.24 l 16.51,-3.05 v 41.67 z"
   id="path5" />
    <path
   class="cls-3"
   d="m 1094.4,345.63 c -4.91,1.36 -11.52,2.88 -19.82,4.57 -8.3,1.69 -18.46,2.54 -30.49,2.54 -9.83,0 -18.04,-1.44 -24.64,-4.32 -6.61,-2.88 -11.94,-6.94 -16.01,-12.2 -4.06,-5.25 -6.99,-11.6 -8.76,-19.05 -1.78,-7.45 -2.67,-15.67 -2.67,-24.64 v -73.68 h 16.51 v 68.34 c 0,9.32 0.68,17.19 2.03,23.63 1.35,6.44 3.56,11.65 6.61,15.62 3.05,3.98 6.99,6.86 11.81,8.64 4.83,1.78 10.71,2.67 17.66,2.67 7.79,0 14.56,-0.42 20.33,-1.27 5.76,-0.85 9.4,-1.61 10.92,-2.29 V 218.84 h 16.51 v 126.78 z"
   id="path6" />
  </g>
  <rect
   class="cls-2"
   width="55.244999"
   height="87"
   id="rect15"
   x="0"
   y="0" /><g
   id="CoF"
   transform="matrix(0.07947115,0,0,0.07947115,6.9600095,36.75081)"><path
     id="circle"
     class="cls-3"
     d="M 280,16 C 184.66864,16 102.01684,72.109047 63.339844,152.97656 A 104,104 0 0 1 72,152 104,104 0 0 1 127.09961,168.56641 C 157.3438,115.56655 214.30843,80 280,80 c 0.24767,0 0.49086,0.01657 0.73828,0.01758 a 104,104 0 0 1 13.19531,-56.15039 104,104 0 0 1 5.18946,-7.033204 C 292.80616,16.331285 286.44221,16 280,16 Z m 197.90234,104.5625 a 104,104 0 0 1 -3.83593,7.30469 104,104 0 0 1 -41.89258,39.43164 C 447.30725,193.31207 456,223.58627 456,256 c 0,32.41373 -8.69275,62.68793 -23.82617,88.70117 a 104,104 0 0 1 41.89258,39.43164 104,104 0 0 1 3.83593,7.30469 C 504.42506,352.84086 520,306.18553 520,256 520,205.81447 504.42506,159.15914 477.90234,120.5625 Z M 127.4043,343.96289 A 104,104 0 0 1 72,360 104,104 0 0 1 63.339844,359.02344 C 102.01684,439.89095 184.66864,496 280,496 c 6.44221,0 12.80616,-0.33128 19.12305,-0.83398 a 104,104 0 0 1 -5.18946,-7.03321 104,104 0 0 1 -13.19531,-56.15039 C 280.49086,431.98343 280.24767,432 280,432 214.52761,432 157.72537,396.66958 127.4043,343.96289 Z" /><circle
     class="cls-3"
     id="head"
     cx="72"
     cy="256"
     r="72" /><use
     x="0"
     y="0"
     xlink:href="#head"
     id="use3"
     transform="rotate(120,280,256)" /><use
     x="0"
     y="0"
     xlink:href="#head"
     id="use4"
     transform="rotate(-120,280,256)" /></g></svg>
