<?xml version="1.0" encoding="UTF-8" standalone="no"?>
<svg
   version="1.1"
   viewBox="0 0 1660 830"
   id="svg6"
   width="1660"
   height="830"
   sodipodi:docname="Presentation-Ubuntu-logo-v2022-vs-v2025.svg"
   xml:space="preserve"
   inkscape:version="1.4 (1:1.4+202410161351+e7c3feb100)"
   inkscape:export-filename="Presentation-Ubuntu-logo-v2022-vs-v2025.png"
   inkscape:export-xdpi="96"
   inkscape:export-ydpi="96"
   xmlns:inkscape="http://www.inkscape.org/namespaces/inkscape"
   xmlns:sodipodi="http://sodipodi.sourceforge.net/DTD/sodipodi-0.dtd"
   xmlns:xlink="http://www.w3.org/1999/xlink"
   xmlns="http://www.w3.org/2000/svg"
   xmlns:svg="http://www.w3.org/2000/svg"><sodipodi:namedview
     id="namedview1"
     pagecolor="#ffffff"
     bordercolor="#000000"
     borderopacity="0.25"
     inkscape:showpageshadow="2"
     inkscape:pageopacity="0.0"
     inkscape:pagecheckerboard="0"
     inkscape:deskcolor="#d1d1d1"
     inkscape:zoom="0.77349398"
     inkscape:cx="830.64641"
     inkscape:cy="383.97196"
     inkscape:window-width="1920"
     inkscape:window-height="1011"
     inkscape:window-x="0"
     inkscape:window-y="0"
     inkscape:window-maximized="1"
     inkscape:current-layer="svg6" /><defs
     id="defs6"><style
       id="style1">
         .cls-1 { fill: none; }
         .cls-2 { fill: #e95420; }
         .cls-3 { fill: #fff; }
</style></defs><rect
     style="fill:#5e2750;fill-opacity:1;stroke-width:0"
     id="rect3"
     width="830"
     height="770"
     x="0"
     y="0" /><rect
     style="fill:#5e2750;fill-opacity:1;stroke-width:0"
     id="rect4"
     width="830"
     height="770"
     x="830"
     y="0" /><g
     id="g4"
     transform="translate(0,62)"><rect
       style="fill:#5e2750;fill-opacity:1;stroke-width:0;stroke-linejoin:bevel"
       id="rect2"
       width="1660"
       height="60"
       x="0"
       y="708"
       inkscape:label="rect1" /><text
       xml:space="preserve"
       style="font-size:32px;line-height:39.9999px;font-family:'DejaVu Sans';-inkscape-font-specification:'DejaVu Sans';fill:#ffffff;fill-opacity:1;stroke:none;stroke-width:0;stroke-linejoin:bevel;stroke-dasharray:none;stroke-opacity:1"
       x="414.95312"
       y="746.82812"
       id="text1"
       inkscape:label="text1"><tspan
         sodipodi:role="line"
         id="tspan7"
         x="414.95312"
         y="746.82812"
         style="font-size:32px;line-height:39.9999px;text-align:center;text-anchor:middle;fill:#ffffff;fill-opacity:1;stroke:none;stroke-width:0;stroke-dasharray:none;stroke-opacity:1">Current version from 2022: approximate</tspan></text><text
       xml:space="preserve"
       style="font-size:32px;line-height:39.9999px;font-family:'DejaVu Sans';-inkscape-font-specification:'DejaVu Sans';fill:#ffffff;fill-opacity:1;stroke:none;stroke-width:0;stroke-linejoin:bevel;stroke-dasharray:none;stroke-opacity:1"
       x="1243.8125"
       y="746.82812"
       id="text2"
       inkscape:label="text2"><tspan
         sodipodi:role="line"
         id="tspan7-5"
         x="1243.8125"
         y="746.82812"
         style="font-size:32px;line-height:39.9999px;text-align:center;text-anchor:middle;fill:#ffffff;fill-opacity:1;stroke:none;stroke-width:0;stroke-dasharray:none;stroke-opacity:1">Proposed new 2025 version: perfect</tspan></text></g><g
     inkscape:label="v2022"
     id="v2022"
     transform="matrix(1.77,0,0,1.77,-1342.9905,-592.95)"><rect
       class="cls-2"
       y="335"
       width="252.42999"
       height="400"
       id="rect9"
       x="867"
       style="fill:#e95420" /><circle
       class="cls-3"
       cx="924.71997"
       cy="589.27002"
       r="26.129999"
       id="circle10"
       style="fill:#ffffff" /><circle
       class="cls-3"
       cx="1033.5601"
       cy="531.96997"
       r="26.129999"
       id="circle11"
       style="fill:#ffffff" /><circle
       class="cls-3"
       cx="1027.67"
       cy="656.67999"
       r="26.129999"
       id="circle12"
       style="fill:#ffffff" /><path
       class="cls-3"
       d="m 983.66,656.53 c -18.82,-4.03 -34.56,-16.06 -43.4,-33.1 -6.97,3.17 -14.8,4.14 -22.34,2.75 10.7,26.28 33.4,45.37 61.25,51.34 6.11,1.31 12.35,1.95 18.56,1.91 -4.8,-6.31 -7.47,-13.92 -7.65,-21.85 -2.15,-0.24 -4.3,-0.59 -6.41,-1.04 z"
       id="path11"
       style="fill:#ffffff" /><path
       class="cls-3"
       d="m 1064.03,647.08 c 8.13,-10.24 13.85,-22.35 16.61,-35.23 4.81,-22.44 0.32,-45.99 -12.32,-65.09 -3.01,7.09 -8.12,13.09 -14.7,17.21 7.05,13.29 9.2,28.63 6.04,43.39 -1.55,7.22 -4.28,14.03 -8.13,20.25 6.15,5.04 10.49,11.83 12.51,19.47 z"
       id="path12"
       style="fill:#ffffff" /><path
       class="cls-3"
       d="m 922.7,551.8 c 0.66,-0.04 1.33,-0.05 1.99,-0.05 2.64,0 5.28,0.28 7.89,0.84 4.26,0.91 8.27,2.53 11.93,4.8 11.77,-16.92 30.75,-27.08 51.32,-27.45 0.11,-1.97 0.37,-3.95 0.79,-5.88 1.2,-5.6 3.65,-10.83 7.14,-15.31 -32.86,-2.6 -64.8,14.36 -81.06,43.05 z"
       id="path13"
       style="fill:#ffffff" /></g><g
     id="v2025"
     transform="translate(1020)"
     inkscape:label="v2025"><rect
       style="fill:#e95420;fill-opacity:1;stroke:#e95420;stroke-width:0;stroke-opacity:1"
       id="rect1"
       width="450"
       height="708"
       x="0"
       y="0" /><circle
       style="fill:none;fill-opacity:1;stroke:#ffffff;stroke-width:40;stroke-linejoin:bevel;stroke-dasharray:none;stroke-opacity:1"
       id="circle"
       cx="233"
       cy="465"
       r="130" /><circle
       style="fill:#e95420;fill-opacity:1;stroke:none;stroke-width:0;stroke-linejoin:bevel;stroke-dasharray:none;stroke-opacity:1"
       id="aura"
       cx="103"
       cy="465"
       r="65" /><circle
       style="fill:#ffffff;fill-opacity:1;stroke:none;stroke-width:0;stroke-linejoin:bevel;stroke-dasharray:none;stroke-opacity:1"
       id="head"
       cx="103"
       cy="465"
       r="45" /><use
       x="0"
       y="0"
       xlink:href="#aura"
       id="use1"
       transform="rotate(120,233,465)" /><use
       x="0"
       y="0"
       xlink:href="#aura"
       id="use2"
       transform="rotate(-120,233,465)" /><use
       x="0"
       y="0"
       xlink:href="#head"
       id="use3"
       transform="rotate(120,233,465)" /><use
       x="0"
       y="0"
       xlink:href="#head"
       id="use4"
       transform="rotate(-120,233,465)" /></g></svg>
