<?xml version="1.0" encoding="UTF-8" standalone="no"?>
<svg
   version="1.1"
   viewBox="0 0 1660 700"
   id="svg6"
   width="1660"
   height="700"
   sodipodi:docname="Presentation-Ubuntu-logo-v2022-vs-v2024.svg"
   xml:space="preserve"
   inkscape:version="1.4 (1:1.4+202410161351+e7c3feb100)"
   inkscape:export-filename="Presentation-Ubuntu-logo-v2022-vs-v2024.png"
   inkscape:export-xdpi="96"
   inkscape:export-ydpi="96"
   xmlns:inkscape="http://www.inkscape.org/namespaces/inkscape"
   xmlns:sodipodi="http://sodipodi.sourceforge.net/DTD/sodipodi-0.dtd"
   xmlns:xlink="http://www.w3.org/1999/xlink"
   xmlns="http://www.w3.org/2000/svg"
   xmlns:svg="http://www.w3.org/2000/svg"><sodipodi:namedview
     id="namedview1"
     pagecolor="#ffffff"
     bordercolor="#000000"
     borderopacity="0.25"
     inkscape:showpageshadow="2"
     inkscape:pageopacity="0.0"
     inkscape:pagecheckerboard="0"
     inkscape:deskcolor="#d1d1d1"
     inkscape:zoom="0.77349398"
     inkscape:cx="830"
     inkscape:cy="350.35826"
     inkscape:window-width="1920"
     inkscape:window-height="1011"
     inkscape:window-x="0"
     inkscape:window-y="0"
     inkscape:window-maximized="1"
     inkscape:current-layer="svg6" /><defs
     id="defs6"><style
       id="style1">
         .cls-1 { fill: none; }
         .cls-2 { fill: #e95420; }
         .cls-3 { fill: #fff; }
</style></defs><rect
     style="fill:#e95420;fill-opacity:1;stroke-width:0;stroke-linejoin:bevel"
     id="rect1"
     width="1660"
     height="650"
     x="0"
     y="0" /><rect
     style="fill:#77216f;fill-opacity:1;stroke-width:0;stroke-linejoin:bevel"
     id="rect2"
     width="1660"
     height="50"
     x="0"
     y="650" /><path
     d="m 560.06637,420.92203 a 72.912675,72.912675 0 0 1 72.86045,72.86043 72.912675,72.912675 0 0 1 -72.86044,72.9475 72.912675,72.912675 0 0 1 -72.9475,-72.9475 72.912675,72.912675 0 0 1 72.94749,-72.86043 z"
     id="path1"
     style="fill:#ffffff;fill-opacity:1;stroke:none;stroke-width:0;stroke-dasharray:none" /><path
     d="m 316.89933,400.6806 a 175.86102,175.86102 0 0 0 120.81304,92.50115 62.900785,62.900785 0 0 0 17.85425,2.80551 102.51304,102.51304 0 0 0 21.76498,60.95935 239.41475,239.41475 0 0 1 -51.60477,-5.44125 236.58531,236.58531 0 0 1 -170.88989,-143.25708 105.12484,105.12484 0 0 0 62.06501,-7.56681 z"
     id="path2"
     style="fill:#ffffff;fill-opacity:1;stroke:none;stroke-width:0;stroke-dasharray:none" /><path
     d="m 273.36938,233.02062 a 72.912675,72.912675 0 0 1 72.94751,72.9475 72.912675,72.912675 0 0 1 -72.9475,72.9475 72.912675,72.912675 0 0 1 -72.9475,-72.9475 72.912675,72.912675 0 0 1 72.94749,-72.9475 z"
     id="path3"
     style="fill:#ffffff;fill-opacity:1;stroke:none;stroke-width:0;stroke-dasharray:none" /><path
     d="m 673.20073,187.95841 a 239.41475,239.41475 0 0 1 -11.98771,279.28819 99.683597,99.683597 0 0 0 -34.85793,-53.98585 175.86102,175.86102 0 0 0 22.8702,-56.62376 178.90812,178.90812 0 0 0 -16.91878,-120.72598 105.56014,105.56014 0 0 0 40.89422,-47.9526 z"
     id="path4"
     style="fill:#ffffff;fill-opacity:1;stroke:none;stroke-width:0;stroke-dasharray:none" /><path
     d="m 470.5296,80.918253 a 239.41475,239.41475 0 0 1 22.44493,0.680155 100.77185,100.77185 0 0 0 -19.97938,42.424732 139.73116,139.73116 0 0 0 -2.21049,16.32373 176.73162,176.73162 0 0 0 -143.17439,76.60402 105.34249,105.34249 0 0 0 -33.15764,-13.688 101.20715,101.20715 0 0 0 -21.76497,-2.21049 h -5.44125 A 239.41475,239.41475 0 0 1 470.52695,80.918427 Z"
     id="path5"
     style="fill:#ffffff;fill-opacity:1;stroke:none;stroke-width:0;stroke-dasharray:none" /><path
     d="m 576.3901,73.27004 a 72.912675,72.912675 0 0 1 72.86044,72.9475 72.912675,72.912675 0 0 1 -72.86044,72.86044 72.912675,72.912675 0 0 1 -72.94749,-72.86044 72.912675,72.912675 0 0 1 72.94749,-72.9475 z"
     id="path6"
     style="fill:#ffffff;fill-opacity:1;stroke:none;stroke-width:0;stroke-dasharray:none" /><text
     xml:space="preserve"
     style="font-size:32px;line-height:39.9999px;font-family:'DejaVu Sans';-inkscape-font-specification:'DejaVu Sans';fill:#ffffff;fill-opacity:1;stroke:none;stroke-width:0;stroke-linejoin:bevel;stroke-dasharray:none;stroke-opacity:1"
     x="456.85156"
     y="683.75"
     id="text7"><tspan
       sodipodi:role="line"
       id="tspan7"
       x="456.85156"
       y="683.75"
       style="font-size:32px;line-height:39.9999px;text-align:center;text-anchor:middle;fill:#ffffff;fill-opacity:1;stroke:none;stroke-width:0;stroke-dasharray:none;stroke-opacity:1">Current version from 2022: approximate</tspan></text><text
     xml:space="preserve"
     style="font-size:32px;line-height:39.9999px;font-family:'DejaVu Sans';-inkscape-font-specification:'DejaVu Sans';fill:#ffffff;fill-opacity:1;stroke:none;stroke-width:0;stroke-linejoin:bevel;stroke-dasharray:none;stroke-opacity:1"
     x="1236.6484"
     y="683.75"
     id="text7-3"><tspan
       sodipodi:role="line"
       id="tspan7-5"
       x="1236.6484"
       y="683.75"
       style="font-size:32px;line-height:39.9999px;text-align:center;text-anchor:middle;fill:#ffffff;fill-opacity:1;stroke:none;stroke-width:0;stroke-dasharray:none;stroke-opacity:1">Proposed new 2024 version: perfect</tspan></text><g
     id="CoF"
     transform="translate(976.922,64.000284)"
     style="fill:#ffffff;fill-opacity:1"><path
       id="circle"
       d="M 280,16 C 184.66864,16 102.01684,72.109047 63.339844,152.97656 A 104,104 0 0 1 72,152 104,104 0 0 1 127.09961,168.56641 C 157.3438,115.56655 214.30843,80 280,80 c 0.24767,0 0.49086,0.01657 0.73828,0.01758 a 104,104 0 0 1 13.19531,-56.15039 104,104 0 0 1 5.18946,-7.033204 C 292.80616,16.331285 286.44221,16 280,16 Z m 197.90234,104.5625 a 104,104 0 0 1 -3.83593,7.30469 104,104 0 0 1 -41.89258,39.43164 C 447.30725,193.31207 456,223.58627 456,256 c 0,32.41373 -8.69275,62.68793 -23.82617,88.70117 a 104,104 0 0 1 41.89258,39.43164 104,104 0 0 1 3.83593,7.30469 C 504.42506,352.84086 520,306.18553 520,256 520,205.81447 504.42506,159.15914 477.90234,120.5625 Z M 127.4043,343.96289 A 104,104 0 0 1 72,360 104,104 0 0 1 63.339844,359.02344 C 102.01684,439.89095 184.66864,496 280,496 c 6.44221,0 12.80616,-0.33128 19.12305,-0.83398 a 104,104 0 0 1 -5.18946,-7.03321 104,104 0 0 1 -13.19531,-56.15039 C 280.49086,431.98343 280.24767,432 280,432 214.52761,432 157.72537,396.66958 127.4043,343.96289 Z"
       class="cls-2"
       style="fill:#ffffff;fill-opacity:1" /><circle
       class="cls-2"
       id="head"
       cx="72"
       cy="256"
       r="72"
       style="fill:#ffffff;fill-opacity:1" /><use
       x="0"
       y="0"
       xlink:href="#head"
       id="use3"
       transform="rotate(120,280,256)"
       style="fill:#ffffff;fill-opacity:1" /><use
       x="0"
       y="0"
       xlink:href="#head"
       id="use4"
       transform="rotate(-120,280,256)"
       style="fill:#ffffff;fill-opacity:1" /></g></svg>
