<?xml version="1.0" encoding="UTF-8" standalone="no"?>
<svg
   version="1.1"
   viewBox="0 0 1660 700"
   id="svg6"
   width="1660"
   height="700"
   sodipodi:docname="Presentation-Ubuntu-logo-v2022-vs-v2024.svg"
   xml:space="preserve"
   inkscape:version="1.3.2 (1:1.3.2+202404261509+091e20ef0f)"
   inkscape:export-filename="Presentation-Ubuntu-logo-v2022-vs-v2024.png"
   inkscape:export-xdpi="96"
   inkscape:export-ydpi="96"
   xmlns:inkscape="http://www.inkscape.org/namespaces/inkscape"
   xmlns:sodipodi="http://sodipodi.sourceforge.net/DTD/sodipodi-0.dtd"
   xmlns="http://www.w3.org/2000/svg"
   xmlns:svg="http://www.w3.org/2000/svg"><sodipodi:namedview
     id="namedview1"
     pagecolor="#ffffff"
     bordercolor="#000000"
     borderopacity="0.25"
     inkscape:showpageshadow="2"
     inkscape:pageopacity="0.0"
     inkscape:pagecheckerboard="0"
     inkscape:deskcolor="#d1d1d1"
     inkscape:zoom="1"
     inkscape:cx="830.5"
     inkscape:cy="350.5"
     inkscape:window-width="1920"
     inkscape:window-height="1011"
     inkscape:window-x="0"
     inkscape:window-y="0"
     inkscape:window-maximized="1"
     inkscape:current-layer="svg6" /><defs
     id="defs6" /><rect
     style="fill:#ffffff;fill-opacity:1;stroke-width:0;stroke-linejoin:bevel"
     id="rect1"
     width="1660"
     height="630"
     x="0"
     y="20" /><g
     id="g9"><rect
       style="fill:#f2f2f2;fill-opacity:1;stroke-width:0;stroke-linejoin:bevel"
       id="rect2"
       width="1660"
       height="50"
       x="0"
       y="650" /><rect
       style="fill:#f2f2f2;fill-opacity:1;stroke:none;stroke-width:0;stroke-linejoin:bevel"
       id="rect3"
       width="1660"
       height="20"
       x="0"
       y="0" /><path
       style="fill:none;fill-opacity:1;stroke:#f2f2f2;stroke-width:2;stroke-linejoin:bevel;stroke-dasharray:none;stroke-opacity:1"
       d="M 1,0 V 700"
       id="path9" /><path
       style="fill:none;fill-opacity:1;stroke:#f2f2f2;stroke-width:2;stroke-linejoin:bevel;stroke-dasharray:none;stroke-opacity:1"
       d="M 1659,0 V 700"
       id="path9-7" /></g><path
     d="m 560.06637,420.92203 a 72.912675,72.912675 0 0 1 72.86045,72.86043 72.912675,72.912675 0 0 1 -72.86044,72.9475 72.912675,72.912675 0 0 1 -72.9475,-72.9475 72.912675,72.912675 0 0 1 72.94749,-72.86043 z"
     id="path1"
     style="fill:#e95420;fill-opacity:1;stroke:none;stroke-width:0;stroke-dasharray:none" /><path
     d="m 316.89933,400.6806 a 175.86102,175.86102 0 0 0 120.81304,92.50115 62.900785,62.900785 0 0 0 17.85425,2.80551 102.51304,102.51304 0 0 0 21.76498,60.95935 239.41475,239.41475 0 0 1 -51.60477,-5.44125 236.58531,236.58531 0 0 1 -170.88989,-143.25708 105.12484,105.12484 0 0 0 62.06501,-7.56681 z"
     id="path2"
     style="fill:#e95420;fill-opacity:1;stroke:none;stroke-width:0;stroke-dasharray:none" /><path
     d="m 273.36938,233.02062 a 72.912675,72.912675 0 0 1 72.94751,72.9475 72.912675,72.912675 0 0 1 -72.9475,72.9475 72.912675,72.912675 0 0 1 -72.9475,-72.9475 72.912675,72.912675 0 0 1 72.94749,-72.9475 z"
     id="path3"
     style="fill:#e95420;fill-opacity:1;stroke:none;stroke-width:0;stroke-dasharray:none" /><path
     d="m 673.20073,187.95841 a 239.41475,239.41475 0 0 1 -11.98771,279.28819 99.683597,99.683597 0 0 0 -34.85793,-53.98585 175.86102,175.86102 0 0 0 22.8702,-56.62376 178.90812,178.90812 0 0 0 -16.91878,-120.72598 105.56014,105.56014 0 0 0 40.89422,-47.9526 z"
     id="path4"
     style="fill:#e95420;fill-opacity:1;stroke:none;stroke-width:0;stroke-dasharray:none" /><path
     d="m 470.5296,80.918253 a 239.41475,239.41475 0 0 1 22.44493,0.680155 100.77185,100.77185 0 0 0 -19.97938,42.424732 139.73116,139.73116 0 0 0 -2.21049,16.32373 176.73162,176.73162 0 0 0 -143.17439,76.60402 105.34249,105.34249 0 0 0 -33.15764,-13.688 101.20715,101.20715 0 0 0 -21.76497,-2.21049 h -5.44125 A 239.41475,239.41475 0 0 1 470.52695,80.918427 Z"
     id="path5"
     style="fill:#e95420;fill-opacity:1;stroke:none;stroke-width:0;stroke-dasharray:none" /><path
     d="m 576.3901,73.27004 a 72.912675,72.912675 0 0 1 72.86044,72.9475 72.912675,72.912675 0 0 1 -72.86044,72.86044 72.912675,72.912675 0 0 1 -72.94749,-72.86044 72.912675,72.912675 0 0 1 72.94749,-72.9475 z"
     id="path6"
     style="fill:#e95420;fill-opacity:1;stroke:none;stroke-width:0;stroke-dasharray:none" /><text
     xml:space="preserve"
     style="font-size:32px;line-height:39.9999px;font-family:'DejaVu Sans';-inkscape-font-specification:'DejaVu Sans';fill:#808080;fill-opacity:1;stroke:none;stroke-width:0;stroke-linejoin:bevel;stroke-dasharray:none;stroke-opacity:1"
     x="456.85156"
     y="683.75"
     id="text7"><tspan
       sodipodi:role="line"
       id="tspan7"
       x="456.85156"
       y="683.75"
       style="font-size:32px;line-height:39.9999px;text-align:center;text-anchor:middle;fill:#808080;fill-opacity:1;stroke:none;stroke-width:0;stroke-dasharray:none;stroke-opacity:1">Current version from 2022: approximate</tspan></text><text
     xml:space="preserve"
     style="font-size:32px;line-height:39.9999px;font-family:'DejaVu Sans';-inkscape-font-specification:'DejaVu Sans';fill:#808080;fill-opacity:1;stroke:none;stroke-width:0;stroke-linejoin:bevel;stroke-dasharray:none;stroke-opacity:1"
     x="1236.6484"
     y="683.75"
     id="text7-3"><tspan
       sodipodi:role="line"
       id="tspan7-5"
       x="1236.6484"
       y="683.75"
       style="font-size:32px;line-height:39.9999px;text-align:center;text-anchor:middle;fill:#808080;fill-opacity:1;stroke:none;stroke-width:0;stroke-dasharray:none;stroke-opacity:1">Proposed new 2024 version: perfect</tspan></text><path
     id="circle13"
     style="color:#000000;fill:#e95420;fill-opacity:1;stroke:none;stroke-width:0;stroke-linejoin:bevel;stroke-dasharray:none"
     d="m 1256.9219,79.999991 c -95.3314,0 -177.9832,56.109049 -216.6602,136.976559 a 104,104 0 0 1 8.6602,-0.97656 104,104 0 0 1 55.4043,16.03711 c 30.3211,-52.70669 87.1233,-88.03711 152.5957,-88.03711 0.2477,0 0.4909,0.0166 0.7383,0.0176 a 104,104 0 0 1 13.1953,-56.150389 104,104 0 0 1 5.1895,-7.033204 c -6.3169,-0.502721 -12.6809,-0.834006 -19.1231,-0.834006 z m 197.9023,104.562499 a 104,104 0 0 1 -3.8359,7.30469 104,104 0 0 1 -41.8926,39.43164 c 15.1335,26.01324 23.8262,56.28744 23.8262,88.70117 0,32.41373 -8.6927,62.68793 -23.8262,88.70117 a 104,104 0 0 1 41.8926,39.43164 104,104 0 0 1 3.8359,7.30469 c 26.5228,-38.59664 42.0977,-85.25197 42.0977,-135.4375 0,-50.18553 -15.5749,-96.84086 -42.0977,-135.4375 z m -350.8027,222.87109 a 104,104 0 0 1 -55.0996,16.56641 104,104 0 0 1 -8.6602,-0.97656 c 38.677,80.86751 121.3288,136.97656 216.6602,136.97656 6.4422,0 12.8062,-0.33128 19.1231,-0.83398 a 104,104 0 0 1 -5.1895,-7.03321 104,104 0 0 1 -13.1953,-56.15039 c -0.2474,10e-4 -0.4906,0.0176 -0.7383,0.0176 -65.6916,0 -122.6562,-35.56655 -152.9004,-88.56641 z" /><circle
     style="fill:#e95420;fill-opacity:1;stroke:none;stroke-width:0;stroke-linejoin:bevel;stroke-dasharray:none;stroke-opacity:1"
     id="circle15"
     cx="1048.9219"
     cy="320"
     r="72" /><circle
     style="fill:#e95420;fill-opacity:1;stroke:none;stroke-width:0;stroke-linejoin:bevel;stroke-dasharray:none;stroke-opacity:1"
     id="circle17"
     cx="-559.33282"
     cy="-1248.5262"
     r="72"
     transform="rotate(120)" /><circle
     style="fill:#e95420;fill-opacity:1;stroke:none;stroke-width:0;stroke-linejoin:bevel;stroke-dasharray:none;stroke-opacity:1"
     id="circle19"
     cx="-1113.5891"
     cy="928.52631"
     r="72"
     transform="rotate(-120)" /></svg>
