<?xml version="1.0" encoding="UTF-8" standalone="no"?>
<!-- Created with Inkscape (http://www.inkscape.org/) -->

<svg
   width="1660"
   height="128"
   viewBox="0 0 1660 128"
   version="1.1"
   id="svg1"
   inkscape:version="1.3.2 (1:1.3.2+202404261509+091e20ef0f)"
   xml:space="preserve"
   sodipodi:docname="Presentation-Dash-preview.svg"
   xmlns:inkscape="http://www.inkscape.org/namespaces/inkscape"
   xmlns:sodipodi="http://sodipodi.sourceforge.net/DTD/sodipodi-0.dtd"
   xmlns="http://www.w3.org/2000/svg"
   xmlns:svg="http://www.w3.org/2000/svg"><sodipodi:namedview
     id="namedview1"
     pagecolor="#ffffff"
     bordercolor="#000000"
     borderopacity="0.25"
     inkscape:showpageshadow="2"
     inkscape:pageopacity="0.0"
     inkscape:pagecheckerboard="0"
     inkscape:deskcolor="#d1d1d1"
     inkscape:document-units="px"
     inkscape:zoom="0.79759036"
     inkscape:cx="830"
     inkscape:cy="64.569486"
     inkscape:window-width="1920"
     inkscape:window-height="1011"
     inkscape:window-x="0"
     inkscape:window-y="0"
     inkscape:window-maximized="1"
     inkscape:current-layer="layer1" /><defs
     id="defs1" /><g
     inkscape:label="Layer 1"
     inkscape:groupmode="layer"
     id="layer1"><rect
       style="fill:#772953;fill-opacity:1;stroke:none;stroke-width:0;stroke-linejoin:bevel"
       id="rect4"
       width="1660"
       height="128"
       x="0"
       y="0"
       sodipodi:insensitive="true" /><g
       id="g2"
       transform="matrix(6,0,0,6,638.19611,16.00001)"><circle
         style="fill:#ffffff;fill-opacity:1;stroke:none;stroke-width:0;stroke-linejoin:bevel"
         id="path1-6"
         cx="8.6153841"
         cy="8"
         r="7.3846159" /><path
         id="circle13-2"
         style="color:#000000;fill:#e95420;fill-opacity:1;stroke:none;stroke-width:0;stroke-linejoin:bevel;stroke-dasharray:none"
         d="m 8.6153846,0.61538479 c -2.9332726,0 -5.4764048,1.72643221 -6.6664662,4.21466331 a 3.1999999,3.1999999 0 0 1 0.2664663,-0.030048 3.1999999,3.1999999 0 0 1 1.7047477,0.4934495 c 0.932956,-1.6217443 2.6807171,-2.7088341 4.6952522,-2.7088341 0.00762,0 0.015103,5.099e-4 0.022716,5.409e-4 A 3.1999999,3.1999999 0 0 1 9.0441104,0.85745217 3.1999999,3.1999999 0 0 1 9.2037861,0.6410459 C 9.0094203,0.62557817 8.8136064,0.61538479 8.6153846,0.61538479 Z M 14.704687,3.8326924 A 3.1999999,3.1999999 0 0 1 14.586659,4.0574521 3.1999999,3.1999999 0 0 1 13.297656,5.2707333 C 13.7633,6.0711407 14.030769,7.0026545 14.030769,8 c 0,0.9973455 -0.267469,1.9288593 -0.733113,2.729267 a 3.1999999,3.1999999 0 0 1 1.289003,1.213281 3.1999999,3.1999999 0 0 1 0.118028,0.22476 C 15.520771,10.979719 16,9.5441701 16,8 16,6.4558299 15.520771,5.0202813 14.704687,3.8326924 Z M 3.9107573,10.690264 A 3.1999999,3.1999999 0 0 1 2.2153847,11.2 3.1999999,3.1999999 0 0 1 1.9489184,11.169952 c 1.1900614,2.488231 3.7331936,4.214663 6.6664662,4.214663 0.1982218,0 0.3940357,-0.01019 0.5884015,-0.02566 A 3.1999999,3.1999999 0 0 1 9.0441104,15.142548 3.1999999,3.1999999 0 0 1 8.6381009,13.414844 c -0.00761,3.1e-5 -0.015096,5.4e-4 -0.022716,5.4e-4 -2.0212791,0 -3.7740369,-1.094355 -4.7046276,-2.72512 z" /><circle
         style="fill:#e95420;fill-opacity:1;stroke:none;stroke-width:0;stroke-linejoin:bevel;stroke-dasharray:none;stroke-opacity:1"
         id="circle15-9"
         cx="2.2153847"
         cy="8"
         r="2.2153845" /><circle
         style="fill:#e95420;fill-opacity:1;stroke:none;stroke-width:0;stroke-linejoin:bevel;stroke-dasharray:none;stroke-opacity:1"
         id="circle17-1"
         cx="-3.7794878"
         cy="-11.46114"
         r="2.215384"
         transform="rotate(120)" /><circle
         style="fill:#e95420;fill-opacity:1;stroke:none;stroke-width:0;stroke-linejoin:bevel;stroke-dasharray:none;stroke-opacity:1"
         id="circle19-2"
         cx="-17.635891"
         cy="3.4611409"
         r="2.215384"
         transform="rotate(-120)" /></g><g
       id="g3"
       transform="matrix(6,0,0,6,926.1961,15.999992)"><circle
         style="fill:#ffffff;fill-opacity:1;stroke:#e95420;stroke-width:1.73913;stroke-linejoin:bevel;stroke-dasharray:none;stroke-opacity:1"
         id="circle"
         cx="8.978261"
         cy="7.9999995"
         r="5.652173" /><circle
         style="fill:#ffffff;fill-opacity:1;stroke:none;stroke-width:0;stroke-linejoin:bevel;stroke-dasharray:none;stroke-opacity:1"
         id="aura"
         cx="3.3260875"
         cy="7.9999995"
         r="2.8260865" /><circle
         style="fill:#e95420;fill-opacity:1;stroke:none;stroke-width:0;stroke-linejoin:bevel;stroke-dasharray:none;stroke-opacity:1"
         id="head"
         cx="3.3260875"
         cy="7.9999995"
         r="1.9565215" /><circle
         style="fill:#ffffff;fill-opacity:1;stroke:none;stroke-width:0;stroke-linejoin:bevel;stroke-dasharray:none;stroke-opacity:1"
         id="circle9"
         cx="-3.2130964"
         cy="-11.775403"
         r="2.8260868"
         transform="rotate(119.99999)" /><circle
         style="fill:#e95420;fill-opacity:1;stroke:none;stroke-width:0;stroke-linejoin:bevel;stroke-dasharray:none;stroke-opacity:1"
         id="circle10"
         cx="-3.2130964"
         cy="-11.775403"
         r="1.9565215"
         transform="rotate(119.99999)" /><circle
         style="fill:#ffffff;fill-opacity:1;stroke:none;stroke-width:0;stroke-linejoin:bevel;stroke-dasharray:none;stroke-opacity:1"
         id="circle11"
         cx="-17.069508"
         cy="3.7754061"
         r="2.8260868"
         transform="rotate(-119.99999)" /><circle
         style="fill:#e95420;fill-opacity:1;stroke:none;stroke-width:0;stroke-linejoin:bevel;stroke-dasharray:none;stroke-opacity:1"
         id="circle12"
         cx="-17.069508"
         cy="3.7754066"
         r="1.9565215"
         transform="rotate(-119.99999)" /></g><g
       id="g4"
       transform="matrix(6,0,0,6,350.19611,16.000012)"><path
         id="circle13-1"
         style="color:#000000;fill:#ffffff;fill-opacity:1;stroke:none;stroke-width:0;stroke-linejoin:bevel;stroke-dasharray:none"
         d="m 8.6153846,0.61538448 c -2.9332725,0 -5.4764048,1.72643222 -6.6664662,4.21466332 A 3.1999999,3.1999999 0 0 1 2.2153848,4.7999998 3.1999999,3.1999999 0 0 1 3.9201324,5.2934493 C 4.8530884,3.671705 6.6008496,2.5846152 8.6153846,2.5846152 c 0.00762,0 0.015103,5.098e-4 0.022716,5.409e-4 A 3.1999999,3.1999999 0 0 1 9.0441104,0.85745186 3.1999999,3.1999999 0 0 1 9.2037861,0.64104559 C 9.0094203,0.62557786 8.8136064,0.61538448 8.6153846,0.61538448 Z M 14.704687,3.8326921 A 3.1999999,3.1999999 0 0 1 14.586659,4.0574518 3.1999999,3.1999999 0 0 1 13.297656,5.270733 c 0.465644,0.8004073 0.733113,1.7319212 0.733113,2.7292667 0,0.9973455 -0.267469,1.9288593 -0.733113,2.7292663 a 3.1999999,3.1999999 0 0 1 1.289003,1.213282 3.1999999,3.1999999 0 0 1 0.118028,0.224759 C 15.520771,10.979718 16,9.5441698 16,7.9999997 16,6.4558296 15.520771,5.020281 14.704687,3.8326921 Z M 3.9107573,10.690264 A 3.1999999,3.1999999 0 0 1 2.2153848,11.2 3.1999999,3.1999999 0 0 1 1.9489184,11.169952 c 1.1900614,2.488231 3.7331937,4.214663 6.6664662,4.214663 0.1982218,0 0.3940357,-0.01019 0.5884015,-0.02566 A 3.1999999,3.1999999 0 0 1 9.0441104,15.142548 3.1999999,3.1999999 0 0 1 8.6381009,13.414843 c -0.00761,3.1e-5 -0.015096,5.41e-4 -0.022716,5.41e-4 -2.021279,0 -3.7740368,-1.094355 -4.7046276,-2.72512 z" /><circle
         style="fill:#ffffff;fill-opacity:1;stroke:none;stroke-width:0;stroke-linejoin:bevel;stroke-dasharray:none;stroke-opacity:1"
         id="circle15-8"
         cx="2.2153847"
         cy="7.9999995"
         r="2.2153845" /><circle
         style="fill:#ffffff;fill-opacity:1;stroke:none;stroke-width:0;stroke-linejoin:bevel;stroke-dasharray:none;stroke-opacity:1"
         id="circle17-7"
         cx="-3.7794883"
         cy="-11.46114"
         r="2.215384"
         transform="rotate(120)" /><circle
         style="fill:#ffffff;fill-opacity:1;stroke:none;stroke-width:0;stroke-linejoin:bevel;stroke-dasharray:none;stroke-opacity:1"
         id="circle19-9"
         cx="-17.635891"
         cy="3.4611411"
         r="2.215384"
         transform="rotate(-120)" /></g><g
       id="g5"
       transform="matrix(6,0,0,6,1214.1961,16.000003)"><circle
         style="fill:#ffffff;fill-opacity:1;stroke:none;stroke-width:0;stroke-linejoin:bevel;stroke-dasharray:none;stroke-opacity:1"
         id="circle1"
         cx="8.5436306"
         cy="7.9999981"
         r="7.3909998" /><circle
         style="fill:#ffffff;fill-opacity:1;stroke:#e95420;stroke-width:1.73913;stroke-linejoin:bevel;stroke-dasharray:none;stroke-opacity:1"
         id="circle-6"
         cx="8.5436306"
         cy="7.9999981"
         r="5.652173" /><circle
         style="fill:#ffffff;fill-opacity:1;stroke:none;stroke-width:0;stroke-linejoin:bevel;stroke-dasharray:none;stroke-opacity:1"
         id="aura-7"
         cx="2.8914566"
         cy="7.9999981"
         r="2.8260865" /><circle
         style="fill:#e95420;fill-opacity:1;stroke:none;stroke-width:0;stroke-linejoin:bevel;stroke-dasharray:none;stroke-opacity:1"
         id="head-5"
         cx="2.8914566"
         cy="7.9999981"
         r="1.9565215" /><circle
         style="fill:#ffffff;fill-opacity:1;stroke:none;stroke-width:0;stroke-linejoin:bevel;stroke-dasharray:none;stroke-opacity:1"
         id="circle9-3"
         cx="-2.9957821"
         cy="-11.399001"
         r="2.8260868"
         transform="rotate(119.99999)" /><circle
         style="fill:#e95420;fill-opacity:1;stroke:none;stroke-width:0;stroke-linejoin:bevel;stroke-dasharray:none;stroke-opacity:1"
         id="circle10-5"
         cx="-2.9957821"
         cy="-11.399001"
         r="1.9565215"
         transform="rotate(119.99999)" /><circle
         style="fill:#ffffff;fill-opacity:1;stroke:none;stroke-width:0;stroke-linejoin:bevel;stroke-dasharray:none;stroke-opacity:1"
         id="circle11-6"
         cx="-16.85219"
         cy="3.3990054"
         r="2.8260868"
         transform="rotate(-119.99999)" /><circle
         style="fill:#e95420;fill-opacity:1;stroke:none;stroke-width:0;stroke-linejoin:bevel;stroke-dasharray:none;stroke-opacity:1"
         id="circle12-2"
         cx="-16.85219"
         cy="3.3990059"
         r="1.9565215"
         transform="rotate(-119.99999)" /></g></g></svg>
