<?xml version="1.0" encoding="UTF-8" standalone="no"?>
<svg
   version="1.1"
   viewBox="0 0 1560 700"
   id="svg6"
   width="1560"
   height="700"
   sodipodi:docname="Presentation-Ubuntu-logo-v2022-vs-v2024.svg"
   xml:space="preserve"
   inkscape:version="1.3.2 (1:1.3.2+202404261509+091e20ef0f)"
   xmlns:inkscape="http://www.inkscape.org/namespaces/inkscape"
   xmlns:sodipodi="http://sodipodi.sourceforge.net/DTD/sodipodi-0.dtd"
   xmlns="http://www.w3.org/2000/svg"
   xmlns:svg="http://www.w3.org/2000/svg"><sodipodi:namedview
     id="namedview1"
     pagecolor="#ffffff"
     bordercolor="#000000"
     borderopacity="0.25"
     inkscape:showpageshadow="2"
     inkscape:pageopacity="0.0"
     inkscape:pagecheckerboard="0"
     inkscape:deskcolor="#d1d1d1"
     inkscape:zoom="0.86410256"
     inkscape:cx="780"
     inkscape:cy="350.07419"
     inkscape:window-width="1920"
     inkscape:window-height="1011"
     inkscape:window-x="0"
     inkscape:window-y="0"
     inkscape:window-maximized="1"
     inkscape:current-layer="svg6" /><defs
     id="defs6" /><rect
     style="fill:#ffffff;stroke-width:0;stroke-linejoin:bevel;fill-opacity:1"
     id="rect1"
     width="1560"
     height="700"
     x="0"
     y="0" /><g
     id="g9"><rect
       style="fill:#f2f2f2;fill-opacity:1;stroke-width:0;stroke-linejoin:bevel"
       id="rect2"
       width="1560"
       height="50"
       x="0"
       y="650" /><rect
       style="fill:#f2f2f2;fill-opacity:1;stroke:none;stroke-width:0;stroke-linejoin:bevel"
       id="rect3"
       width="1560"
       height="20"
       x="0"
       y="0" /><path
       style="fill:none;fill-opacity:1;stroke:#f2f2f2;stroke-width:2;stroke-linejoin:bevel;stroke-dasharray:none;stroke-opacity:1"
       d="M 1,0 V 700"
       id="path9" /><path
       style="fill:none;fill-opacity:1;stroke:#f2f2f2;stroke-width:2;stroke-linejoin:bevel;stroke-dasharray:none;stroke-opacity:1"
       d="M 1559,0 V 700"
       id="path9-7" /></g><path
     d="m 493.1445,420.92203 a 72.912675,72.912675 0 0 1 72.86044,72.86043 72.912675,72.912675 0 0 1 -72.86044,72.9475 72.912675,72.912675 0 0 1 -72.9475,-72.9475 72.912675,72.912675 0 0 1 72.9475,-72.86043 z"
     id="path1"
     style="fill:#e95420;fill-opacity:1;stroke:none;stroke-width:0;stroke-dasharray:none" /><path
     d="m 249.97746,400.6806 a 175.86102,175.86102 0 0 0 120.81304,92.50115 62.900785,62.900785 0 0 0 17.85425,2.80551 102.51304,102.51304 0 0 0 21.76498,60.95935 239.41475,239.41475 0 0 1 -51.60477,-5.44125 236.58531,236.58531 0 0 1 -170.88989,-143.25708 105.12484,105.12484 0 0 0 62.06501,-7.56681 z"
     id="path2"
     style="fill:#e95420;fill-opacity:1;stroke:none;stroke-width:0;stroke-dasharray:none" /><path
     d="m 206.44751,233.02062 a 72.912675,72.912675 0 0 1 72.9475,72.9475 72.912675,72.912675 0 0 1 -72.9475,72.9475 72.912675,72.912675 0 0 1 -72.9475,-72.9475 72.912675,72.912675 0 0 1 72.9475,-72.9475 z"
     id="path3"
     style="fill:#e95420;fill-opacity:1;stroke:none;stroke-width:0;stroke-dasharray:none" /><path
     d="m 606.27885,187.95841 a 239.41475,239.41475 0 0 1 -11.98771,279.28819 99.683597,99.683597 0 0 0 -34.85792,-53.98585 175.86102,175.86102 0 0 0 22.8702,-56.62376 178.90812,178.90812 0 0 0 -16.91878,-120.72598 105.56014,105.56014 0 0 0 40.89421,-47.9526 z"
     id="path4"
     style="fill:#e95420;fill-opacity:1;stroke:none;stroke-width:0;stroke-dasharray:none" /><path
     d="m 403.60773,80.918253 a 239.41475,239.41475 0 0 1 22.44492,0.680155 100.77185,100.77185 0 0 0 -19.97938,42.424732 139.73116,139.73116 0 0 0 -2.21049,16.32373 176.73162,176.73162 0 0 0 -143.17438,76.60402 105.34249,105.34249 0 0 0 -33.15764,-13.688 101.20715,101.20715 0 0 0 -21.76497,-2.21049 h -5.44125 A 239.41475,239.41475 0 0 1 403.60508,80.918427 Z"
     id="path5"
     style="fill:#e95420;fill-opacity:1;stroke:none;stroke-width:0;stroke-dasharray:none" /><path
     d="m 509.46823,73.27004 a 72.912675,72.912675 0 0 1 72.86044,72.9475 72.912675,72.912675 0 0 1 -72.86044,72.86044 72.912675,72.912675 0 0 1 -72.9475,-72.86044 72.912675,72.912675 0 0 1 72.9475,-72.9475 z"
     id="path6"
     style="fill:#e95420;fill-opacity:1;stroke:none;stroke-width:0;stroke-dasharray:none" /><text
     xml:space="preserve"
     style="font-size:32px;line-height:39.9999px;font-family:'DejaVu Sans';-inkscape-font-specification:'DejaVu Sans';fill:#808080;fill-opacity:1;stroke:none;stroke-width:0;stroke-linejoin:bevel;stroke-dasharray:none;stroke-opacity:1"
     x="389.92969"
     y="683.75"
     id="text7"><tspan
       sodipodi:role="line"
       id="tspan7"
       x="389.92969"
       y="683.75"
       style="font-size:32px;line-height:39.9999px;text-align:center;text-anchor:middle;fill:#808080;fill-opacity:1;stroke:none;stroke-width:0;stroke-dasharray:none;stroke-opacity:1">Current version from 2022: approximate</tspan></text><text
     xml:space="preserve"
     style="font-size:32px;line-height:39.9999px;font-family:'DejaVu Sans';-inkscape-font-specification:'DejaVu Sans';fill:#808080;fill-opacity:1;stroke:none;stroke-width:0;stroke-linejoin:bevel;stroke-dasharray:none;stroke-opacity:1"
     x="1169.7266"
     y="683.75"
     id="text7-3"><tspan
       sodipodi:role="line"
       id="tspan7-5"
       x="1169.7266"
       y="683.75"
       style="font-size:32px;line-height:39.9999px;text-align:center;text-anchor:middle;fill:#808080;fill-opacity:1;stroke:none;stroke-width:0;stroke-dasharray:none;stroke-opacity:1">Proposed new 2024 version: perfect</tspan></text><path
     id="circle13"
     style="color:#000000;fill:#e95420;fill-opacity:1;stroke:none;stroke-width:0;stroke-linejoin:bevel;stroke-dasharray:none"
     d="m 1190,79.999991 c -95.3314,0 -177.9832,56.109049 -216.66016,136.976559 A 104,104 0 0 1 982,215.99999 a 104,104 0 0 1 55.4043,16.03711 c 30.3211,-52.70669 87.1233,-88.03711 152.5957,-88.03711 0.2477,0 0.4909,0.0166 0.7383,0.0176 a 104,104 0 0 1 13.1953,-56.150389 104,104 0 0 1 5.1895,-7.033204 C 1202.8062,80.331276 1196.4422,79.999991 1190,79.999991 Z m 197.9023,104.562499 a 104,104 0 0 1 -3.8359,7.30469 104,104 0 0 1 -41.8926,39.43164 c 15.1335,26.01324 23.8262,56.28744 23.8262,88.70117 0,32.41373 -8.6927,62.68793 -23.8262,88.70117 a 104,104 0 0 1 41.8926,39.43164 104,104 0 0 1 3.8359,7.30469 C 1414.4251,416.84085 1430,370.18552 1430,319.99999 c 0,-50.18553 -15.5749,-96.84086 -42.0977,-135.4375 z M 1037.0996,407.43358 A 104,104 0 0 1 982,423.99999 104,104 0 0 1 973.33984,423.02343 C 1012.0168,503.89094 1094.6686,559.99999 1190,559.99999 c 6.4422,0 12.8062,-0.33128 19.1231,-0.83398 a 104,104 0 0 1 -5.1895,-7.03321 104,104 0 0 1 -13.1953,-56.15039 c -0.2474,0.001 -0.4906,0.0176 -0.7383,0.0176 -65.6916,0 -122.6562,-35.56655 -152.9004,-88.56641 z" /><circle
     style="fill:#e95420;fill-opacity:1;stroke:none;stroke-width:0;stroke-linejoin:bevel;stroke-dasharray:none;stroke-opacity:1"
     id="circle15"
     cx="982"
     cy="320"
     r="72" /><circle
     style="fill:#e95420;fill-opacity:1;stroke:none;stroke-width:0;stroke-linejoin:bevel;stroke-dasharray:none;stroke-opacity:1"
     id="circle17"
     cx="-525.87189"
     cy="-1190.5702"
     r="72"
     transform="rotate(120)" /><circle
     style="fill:#e95420;fill-opacity:1;stroke:none;stroke-width:0;stroke-linejoin:bevel;stroke-dasharray:none;stroke-opacity:1"
     id="circle19"
     cx="-1080.1282"
     cy="870.57025"
     r="72"
     transform="rotate(-120)" /></svg>
