<?xml version="1.0" encoding="UTF-8" standalone="no"?>
<!-- Created with Inkscape (http://www.inkscape.org/) -->

<svg
   width="16"
   height="16"
   viewBox="0 0 16 16"
   version="1.1"
   id="svg1"
   xml:space="preserve"
   xmlns="http://www.w3.org/2000/svg"
   xmlns:svg="http://www.w3.org/2000/svg"><defs
     id="defs1" /><path
     id="path1"
     style="fill:#808080;stroke-width:0;stroke-linejoin:bevel;stroke:none;fill-opacity:1"
     d="M 8 0 A 8 8 0 0 0 0 8 A 2.057143 2.057143 0 0 1 2.0566406 5.9433594 A 2.057143 2.057143 0 0 1 4.1152344 8 A 2.057143 2.057143 0 0 1 2.0566406 10.056641 A 2.057143 2.057143 0 0 1 0 8 A 8 8 0 0 0 8 16 A 8 8 0 0 0 11.849609 14.990234 A 2.0571425 2.0571425 0 0 1 9.1894531 14.175781 A 2.0571425 2.0571425 0 0 1 9.9433594 11.365234 A 2.0571425 2.0571425 0 0 1 12.753906 12.117188 A 2.0571425 2.0571425 0 0 1 12.185547 14.806641 A 8 8 0 0 0 16 8 A 8 8 0 0 0 12.033203 1.09375 A 2.0571425 2.0571425 0 0 1 12.753906 3.8828125 A 2.0571425 2.0571425 0 0 1 9.9433594 4.6347656 A 2.0571425 2.0571425 0 0 1 9.1894531 1.8242188 A 2.0571425 2.0571425 0 0 1 11.984375 1.0664062 A 8 8 0 0 0 8 0 z M 8 1.1425781 C 8.1840631 1.1425781 8.3663901 1.151649 8.546875 1.1660156 A 2.9714287 2.9714287 0 0 0 8.3984375 1.3671875 A 2.9714287 2.9714287 0 0 0 8.0214844 2.9726562 C 8.0144137 2.9726255 8.0070787 2.9707039 8 2.9707031 C 6.1293597 2.9706991 4.5069405 3.9804244 3.640625 5.4863281 A 2.9714287 2.9714287 0 0 0 2.0566406 5.0292969 A 2.9714287 2.9714287 0 0 0 1.8105469 5.0566406 C 2.9156029 2.7461424 5.2762494 1.1425781 8 1.1425781 z M 13.654297 4.1308594 C 14.412088 5.2336193 14.857422 6.566129 14.857422 8 C 14.857422 9.433871 14.412088 10.766381 13.654297 11.869141 A 2.9714287 2.9714287 0 0 0 13.544922 11.660156 A 2.9714287 2.9714287 0 0 0 12.347656 10.535156 C 12.780039 9.7919219 13.029297 8.9261058 13.029297 8 C 13.029297 7.0738951 12.780041 6.2080767 12.347656 5.4648438 A 2.9714287 2.9714287 0 0 0 13.544922 4.3398438 A 2.9714287 2.9714287 0 0 0 13.654297 4.1308594 z M 3.6308594 10.498047 C 4.4949778 12.012327 6.1230998 13.029297 8 13.029297 C 8.0070627 13.029272 8.0144196 13.027381 8.0214844 13.027344 A 2.9714287 2.9714287 0 0 0 8.3984375 14.632812 A 2.9714287 2.9714287 0 0 0 8.546875 14.833984 C 8.3663927 14.848314 8.1840622 14.85742 8 14.857422 C 5.2762498 14.857422 2.9156028 13.253858 1.8105469 10.943359 A 2.9714287 2.9714287 0 0 0 2.0566406 10.970703 A 2.9714287 2.9714287 0 0 0 3.6308594 10.498047 z " /></svg>
