<?xml version="1.0" encoding="UTF-8" standalone="no"?>
<svg
   version="1.1"
   viewBox="0 0 16 16"
   id="svg6"
   width="16"
   height="16"
   xmlns:xlink="http://www.w3.org/1999/xlink"
   xmlns="http://www.w3.org/2000/svg"
   xmlns:svg="http://www.w3.org/2000/svg">
  <defs
     id="defs1">
    <style
       id="style1">
       .cls-1 { fill: none; }
       .cls-2 { fill: #e95420; }
       .cls-3 { fill: #fff; }
    </style>
  </defs>
  <circle
     class="cls-3"
     id="halo"
     cx="2.9385002"
     cy="8.0004997"
     r="2.9385002" />
  <use
     x="0"
     y="0"
     xlink:href="#halo"
     id="use2"
     transform="rotate(120,8.5385,8)" />
  <use
     x="0"
     y="0"
     xlink:href="#halo"
     id="use5"
     transform="rotate(-120,8.5385,8)" />
  <circle
     id="circle-outline"
     cx="8.5385"
     cy="8"
     r="7.4615002"
     class="cls-3" />
  <circle
     class="cls-2"
     id="head"
     cx="2.9384611"
     cy="8"
     r="1.9384618" />
  <use
     x="0"
     y="0"
     xlink:href="#head"
     id="use3"
     transform="rotate(120,8.5385,8)" />
  <use
     x="0"
     y="0"
     xlink:href="#head"
     id="use4"
     transform="rotate(-120,8.5385,8)" />
  <path
     id="circle"
     class="cls-2"
     d="m 8.5384616,1.5384608 c -2.5666138,0 -4.7918549,1.5106283 -5.8331587,3.6878309 A 2.8000003,2.8000003 0 0 1 2.938461,5.1999997 2.8000003,2.8000003 0 0 1 4.4219122,5.6460184 c 0.8142667,-1.4269194 2.34793,-2.3844805 4.1165494,-2.3844805 0.00667,0 0.013215,4.461e-4 0.019877,4.733e-4 A 2.8000003,2.8000003 0 0 1 8.9135968,1.7502698 2.8000003,2.8000003 0 0 1 9.053313,1.5609143 C 8.8832429,1.54738 8.7119057,1.5384608 8.5384616,1.5384608 Z M 13.866602,4.3536053 A 2.8000003,2.8000003 0 0 1 13.763327,4.5502701 2.8000003,2.8000003 0 0 1 12.63545,5.6118913 C 13.042888,6.3122478 13.276924,7.1273225 13.276924,8 c 0,0.8726774 -0.234036,1.6877521 -0.641474,2.388109 a 2.8000003,2.8000003 0 0 1 1.127877,1.061621 2.8000003,2.8000003 0 0 1 0.103275,0.196665 C 14.580675,10.607254 15.000001,9.351149 15.000001,8 c 0,-1.3511491 -0.419326,-2.6072542 -1.133399,-3.6463947 z M 4.4301154,10.368232 A 2.8000003,2.8000003 0 0 1 2.938461,10.8 2.8000003,2.8000003 0 0 1 2.7053029,10.773708 c 1.0413038,2.177203 3.2665449,3.687831 5.8331587,3.687831 0.1734441,0 0.3447813,-0.0089 0.5148514,-0.02245 A 2.8000003,2.8000003 0 0 1 8.9135968,14.24973 2.8000003,2.8000003 0 0 1 8.5583384,12.737989 c -0.00666,2.7e-5 -0.013209,4.73e-4 -0.019877,4.73e-4 -1.7627184,0 -3.2920096,-0.951204 -4.108346,-2.37023 z" />
</svg>
