<?xml version="1.0" encoding="UTF-8" standalone="no"?>
<svg
   version="1.1"
   viewBox="0 0 16 16"
   id="svg6"
   width="16"
   height="16"
   xml:space="preserve"
   xmlns:xlink="http://www.w3.org/1999/xlink"
   xmlns="http://www.w3.org/2000/svg"
   xmlns:svg="http://www.w3.org/2000/svg"><defs
     id="defs1" /><path
     id="circle"
     style="fill:#808080;stroke:none;stroke-width:0"
     d="m 8.6153694,0.61536945 c -2.9342502,0 -5.4783354,1.72651075 -6.667913,4.21598495 A 3.2001135,3.2001135 0 0 1 2.215948,4.8002894 3.2001135,3.2001135 0 0 1 3.9200935,5.2928939 c 0.9332728,-1.6219066 2.6807509,-2.709325 4.6952759,-2.709325 0.00744,0 0.014754,-2.97e-5 0.022189,0 A 3.2001135,3.2001135 0 0 1 9.0436247,0.85723382 3.2001135,3.2001135 0 0 1 9.2033884,0.63977781 C 9.0090608,0.62431735 8.813552,0.61536945 8.6153694,0.61536945 Z M 14.704139,3.8350506 a 3.2001135,3.2001135 0 0 1 -0.117604,0.221894 3.2001135,3.2001135 0 0 1 -1.286984,1.2137598 C 13.765029,6.0710787 14.0318,7.0029535 14.0318,8 c 0,0.9970463 -0.266771,1.9289213 -0.732249,2.729296 a 3.2001135,3.2001135 0 0 1 1.286984,1.213759 3.2001135,3.2001135 0 0 1 0.117604,0.221895 C 15.519753,10.977573 16,9.5437367 16,8 16,6.4562635 15.519753,5.022427 14.704139,3.8350506 Z M 3.9200935,10.707106 A 3.2001135,3.2001135 0 0 1 2.215948,11.19971 3.2001135,3.2001135 0 0 1 1.9474564,11.168645 c 1.1895776,2.489475 3.7336628,4.215986 6.667913,4.215986 0.1981826,0 0.3936914,-0.0089 0.588019,-0.02441 A 3.2001135,3.2001135 0 0 1 9.0436247,15.142766 3.2001135,3.2001135 0 0 1 8.6375588,13.416431 c -0.00744,3e-5 -0.014747,0 -0.022189,0 -2.014525,0 -3.7620031,-1.087419 -4.6952763,-2.709325 z" /><circle
     style="fill:#808080;stroke:none;stroke-width:0"
     id="head"
     cx="2.2154632"
     cy="8"
     r="2.2154632" /><use
     x="0"
     y="0"
     xlink:href="#head"
     id="use3"
     transform="rotate(120,8.6153694,8)" /><use
     x="0"
     y="0"
     xlink:href="#head"
     id="use4"
     transform="rotate(-120,8.6153694,8)" /></svg>
