<?xml version="1.0" encoding="UTF-8" standalone="no"?>
<svg
   version="1.1"
   viewBox="0 0 16 16"
   id="svg6"
   width="16"
   height="16"
   xml:space="preserve"
   xmlns:xlink="http://www.w3.org/1999/xlink"
   xmlns="http://www.w3.org/2000/svg"
   xmlns:svg="http://www.w3.org/2000/svg"><defs
     id="defs1"><style
       id="style1">
       .cls-1 { fill: none; }
       .cls-2 { fill: #333333; }
       .cls-3 { fill: #fff; }
    </style></defs><path
     id="circle"
     style="fill:#808080;stroke-linejoin:bevel;stroke-width:0;stroke-dasharray:none;stroke:none;fill-opacity:1"
     d="M 8.5 1.5 C 5.9172538 1.5 3.6779334 3.019686 2.6308594 5.2109375 A 2.8167608 2.8167608 0 0 1 2.8671875 5.1835938 A 2.8167608 2.8167608 0 0 1 4.3671875 5.6171875 C 5.1886603 4.1895747 6.7268019 3.2324219 8.5 3.2324219 C 8.5065512 3.2324219 8.5129864 3.2323958 8.5195312 3.2324219 A 2.8167608 2.8167608 0 0 1 8.8769531 1.7128906 A 2.8167608 2.8167608 0 0 1 9.0175781 1.5214844 C 8.8465297 1.507876 8.6744416 1.5 8.5 1.5 z M 13.859375 4.3339844 A 2.8167608 2.8167608 0 0 1 13.755859 4.5292969 A 2.8167608 2.8167608 0 0 1 12.623047 5.5976562 C 13.032764 6.3021509 13.267578 7.1223932 13.267578 8 C 13.267578 8.8776067 13.032764 9.6978491 12.623047 10.402344 A 2.8167608 2.8167608 0 0 1 13.755859 11.470703 A 2.8167608 2.8167608 0 0 1 13.859375 11.666016 C 14.577284 10.620879 15 9.3588071 15 8 C 15 6.6411931 14.577284 5.3791208 13.859375 4.3339844 z M 4.3671875 10.382812 A 2.8167608 2.8167608 0 0 1 2.8671875 10.816406 A 2.8167608 2.8167608 0 0 1 2.6308594 10.789062 C 3.6779334 12.980314 5.9172538 14.5 8.5 14.5 C 8.6744416 14.5 8.8465297 14.492124 9.0175781 14.478516 A 2.8167608 2.8167608 0 0 1 8.8769531 14.287109 A 2.8167608 2.8167608 0 0 1 8.5195312 12.767578 C 8.5129864 12.767604 8.5065512 12.767578 8.5 12.767578 C 6.7268019 12.767578 5.1886603 11.810425 4.3671875 10.382812 z " /><circle
     style="fill:#808080;fill-opacity:1;stroke:none;stroke-width:0;stroke-linejoin:bevel;stroke-dasharray:none;stroke-opacity:1"
     id="head"
     cx="2.8667607"
     cy="8"
     r="1.9500651" /><use
     x="0"
     y="0"
     xlink:href="#head"
     id="use3"
     transform="rotate(120,8.5002822,8.0000001)" /><use
     x="0"
     y="0"
     xlink:href="#head"
     id="use4"
     transform="rotate(-120,8.5002822,8.0000001)" /></svg>
