<?xml version="1.0" encoding="UTF-8" standalone="no"?>
<svg
   id="Layer_1"
   data-name="Layer 1"
   viewBox="0 0 1579.82 400"
   version="1.1"
   sodipodi:docname="Canonical-Kubernetes.svg"
   inkscape:version="1.3.2 (1:1.3.2+202404261509+091e20ef0f)"
   xmlns:inkscape="http://www.inkscape.org/namespaces/inkscape"
   xmlns:sodipodi="http://sodipodi.sourceforge.net/DTD/sodipodi-0.dtd"
   xmlns="http://www.w3.org/2000/svg"
   xmlns:svg="http://www.w3.org/2000/svg">
  <sodipodi:namedview
     id="namedview23"
     pagecolor="#ffffff"
     bordercolor="#000000"
     borderopacity="0.25"
     inkscape:showpageshadow="2"
     inkscape:pageopacity="0.0"
     inkscape:pagecheckerboard="0"
     inkscape:deskcolor="#d1d1d1"
     inkscape:zoom="0.68425519"
     inkscape:cx="656.91865"
     inkscape:cy="199.48698"
     inkscape:window-width="1920"
     inkscape:window-height="1011"
     inkscape:window-x="0"
     inkscape:window-y="0"
     inkscape:window-maximized="1"
     inkscape:current-layer="Layer_1" />
  <defs
     id="defs1">
    <style
       id="style1">
      .cls-1 {
        fill: none;
      }

      .cls-2 {
        fill: #e95420;
      }

      .cls-3 {
        fill: #fff;
      }
    </style>
  </defs>
  <g
     id="g10">
    <path
       d="m425.82,350.2c-5.76-8.82-12.24-17.55-19.44-26.2-7.2-8.65-14.78-16.79-22.74-24.43-7.96-7.63-16.05-14.59-24.26-20.86-8.22-6.28-16.13-11.54-23.75-15.78v87.27h-17.28v-176.07h17.28v81.94c6.44-5.75,13.6-12.39,21.48-19.91,7.88-7.53,15.68-15.09,23.39-22.7s14.96-14.88,21.74-21.82c6.78-6.93,12.2-12.77,16.27-17.5h20.83c-4.92,5.24-10.85,11.46-17.8,18.65-6.95,7.19-14.33,14.59-22.12,22.2-7.8,7.61-15.55,15.09-23.26,22.45-7.71,7.36-14.62,13.82-20.72,19.4,4.91,3.06,10.2,6.83,15.88,11.32,5.67,4.49,11.43,9.41,17.28,14.76,5.84,5.34,11.6,10.94,17.28,16.79,5.67,5.85,11.01,11.75,16.01,17.68,4.99,5.94,9.48,11.7,13.46,17.3,3.98,5.6,7.24,10.77,9.78,15.52h-19.31Z"
       id="path1" />
    <path
       d="m559.71,345.63c-4.91,1.36-11.52,2.88-19.82,4.57-8.3,1.69-18.46,2.54-30.49,2.54-9.83,0-18.04-1.44-24.64-4.32s-11.94-6.94-16.01-12.2c-4.07-5.25-6.99-11.6-8.77-19.05-1.78-7.45-2.67-15.66-2.67-24.64v-73.68h16.51v68.34c0,9.32.67,17.19,2.03,23.63,1.35,6.44,3.56,11.65,6.61,15.62,3.05,3.98,6.99,6.86,11.81,8.64s10.71,2.67,17.66,2.67c7.79,0,14.57-.42,20.33-1.27,5.76-.85,9.4-1.61,10.92-2.29v-115.34h16.51v126.78Z"
       id="path2" />
    <path
       d="m612.65,226.73c2.88-2.2,7.5-4.53,13.85-6.99,6.35-2.45,13.85-3.68,22.48-3.68,9.48,0,17.91,1.69,25.28,5.08,7.37,3.39,13.59,8.13,18.67,14.23,5.08,6.1,8.93,13.34,11.56,21.72,2.62,8.38,3.94,17.57,3.94,27.57,0,10.67-1.57,20.24-4.7,28.71-3.14,8.47-7.54,15.67-13.21,21.6-5.68,5.93-12.45,10.46-20.33,13.59-7.88,3.13-16.64,4.7-26.29,4.7-11.69,0-21.34-.76-28.96-2.29-7.62-1.52-13.89-3.13-18.8-4.83v-190.04l16.51-3.05v73.68Zm0,107.98c2.54.85,6.31,1.65,11.31,2.41,4.99.76,11.56,1.14,19.69,1.14,14.23,0,25.66-4.61,34.3-13.85,8.64-9.23,12.96-22.48,12.96-39.76,0-7.28-.76-14.18-2.29-20.71-1.52-6.52-3.98-12.19-7.37-17.02-3.39-4.83-7.84-8.68-13.34-11.56-5.51-2.88-12.32-4.32-20.45-4.32-3.9,0-7.62.38-11.18,1.14s-6.86,1.74-9.91,2.92c-3.05,1.19-5.72,2.46-8,3.81-2.29,1.36-4.19,2.63-5.72,3.81v91.97Z"
       id="path3" />
    <path
       d="m731.02,284.4c0-11.52,1.65-21.55,4.95-30.11,3.3-8.55,7.62-15.71,12.96-21.47,5.33-5.76,11.43-10.04,18.29-12.83,6.86-2.79,13.93-4.19,21.21-4.19,16.09,0,28.92,5.25,38.49,15.75,9.57,10.5,14.35,26.68,14.35,48.53,0,1.36-.04,2.71-.13,4.06-.09,1.36-.21,2.63-.38,3.81h-92.22c.51,16.09,4.49,28.45,11.94,37.09,7.45,8.64,19.31,12.96,35.57,12.96,8.98,0,16.09-.85,21.34-2.54,5.25-1.69,9.06-3.13,11.43-4.32l3.05,14.23c-2.37,1.36-6.82,2.97-13.34,4.83-6.52,1.86-14.19,2.79-22.99,2.79-11.52,0-21.34-1.7-29.47-5.08s-14.82-8.13-20.07-14.23c-5.25-6.1-9.06-13.34-11.43-21.72-2.37-8.38-3.56-17.57-3.56-27.57Zm93.24-10.42c-.34-13.72-3.56-24.39-9.66-32.01-6.1-7.62-14.74-11.43-25.91-11.43-5.93,0-11.22,1.19-15.88,3.56-4.66,2.37-8.73,5.55-12.2,9.53-3.47,3.98-6.18,8.6-8.13,13.85-1.95,5.25-3.09,10.76-3.43,16.51h75.2Z"
       id="path4" />
    <path
       d="m914.95,216.31c5.42,0,10.54.42,15.37,1.27,4.83.85,8.17,1.69,10.04,2.54l-3.3,14.23c-1.36-.67-4.11-1.4-8.26-2.16-4.15-.76-9.62-1.14-16.39-1.14-7.11,0-12.83.51-17.15,1.52-4.32,1.02-7.16,1.87-8.51,2.54v115.09h-16.51v-125.25c4.23-1.86,10.08-3.77,17.53-5.72,7.45-1.95,16.51-2.92,27.18-2.92Z"
       id="path5" />
    <path
       d="m961.6,223.42c4.91-1.35,11.52-2.88,19.82-4.57,8.3-1.69,18.46-2.54,30.49-2.54,9.99,0,18.33,1.44,25.03,4.32,6.69,2.88,12.02,6.99,16.01,12.32,3.98,5.34,6.82,11.73,8.51,19.18,1.69,7.46,2.54,15.67,2.54,24.64v73.42h-16.51v-68.09c0-9.31-.64-17.19-1.91-23.63-1.27-6.43-3.39-11.69-6.35-15.75-2.97-4.07-6.86-6.99-11.69-8.77-4.83-1.78-10.88-2.67-18.17-2.67-7.79,0-14.53.42-20.2,1.27-5.68.85-9.36,1.61-11.05,2.29v115.34h-16.51v-126.78Z"
       id="path6" />
    <path
       d="m1092.28,284.4c0-11.52,1.65-21.55,4.95-30.11,3.3-8.55,7.62-15.71,12.96-21.47,5.33-5.76,11.43-10.04,18.29-12.83,6.86-2.79,13.93-4.19,21.21-4.19,16.09,0,28.92,5.25,38.49,15.75,9.57,10.5,14.35,26.68,14.35,48.53,0,1.36-.04,2.71-.13,4.06-.09,1.36-.21,2.63-.38,3.81h-92.22c.51,16.09,4.49,28.45,11.94,37.09,7.45,8.64,19.31,12.96,35.57,12.96,8.98,0,16.09-.85,21.34-2.54,5.25-1.69,9.06-3.13,11.43-4.32l3.05,14.23c-2.37,1.36-6.82,2.97-13.34,4.83-6.52,1.86-14.19,2.79-22.99,2.79-11.52,0-21.34-1.7-29.47-5.08s-14.82-8.13-20.07-14.23c-5.25-6.1-9.06-13.34-11.43-21.72-2.37-8.38-3.56-17.57-3.56-27.57Zm93.24-10.42c-.34-13.72-3.56-24.39-9.66-32.01-6.1-7.62-14.74-11.43-25.91-11.43-5.93,0-11.22,1.19-15.88,3.56-4.66,2.37-8.73,5.55-12.2,9.53-3.47,3.98-6.18,8.6-8.13,13.85-1.95,5.25-3.09,10.76-3.43,16.51h75.2Z"
       id="path7" />
    <path
       d="m1247.06,218.85h52.34v13.97h-52.34v69.87c0,7.46.63,13.51,1.91,18.17,1.27,4.66,3.09,8.26,5.46,10.8,2.37,2.54,5.25,4.24,8.64,5.08,3.39.85,7.11,1.27,11.18,1.27,6.94,0,12.53-.8,16.77-2.41,4.23-1.61,7.54-3.09,9.91-4.45l4.07,13.72c-2.37,1.52-6.52,3.26-12.45,5.21-5.93,1.95-12.37,2.92-19.31,2.92-8.13,0-14.95-1.06-20.45-3.18-5.51-2.12-9.91-5.34-13.21-9.65-3.3-4.32-5.63-9.69-6.99-16.13-1.36-6.44-2.03-14.06-2.03-22.87v-120.93l16.51-3.05v41.67Z"
       id="path8" />
    <path
       d="m1315.12,284.4c0-11.52,1.65-21.55,4.95-30.11,3.3-8.55,7.62-15.71,12.96-21.47,5.33-5.76,11.43-10.04,18.29-12.83,6.86-2.79,13.93-4.19,21.21-4.19,16.09,0,28.92,5.25,38.49,15.75,9.57,10.5,14.35,26.68,14.35,48.53,0,1.36-.04,2.71-.13,4.06-.09,1.36-.21,2.63-.38,3.81h-92.22c.51,16.09,4.49,28.45,11.94,37.09,7.45,8.64,19.31,12.96,35.57,12.96,8.98,0,16.09-.85,21.34-2.54,5.25-1.69,9.06-3.13,11.43-4.32l3.05,14.23c-2.37,1.36-6.82,2.97-13.34,4.83-6.52,1.86-14.19,2.79-22.99,2.79-11.52,0-21.34-1.7-29.47-5.08s-14.82-8.13-20.07-14.23c-5.25-6.1-9.06-13.34-11.43-21.72-2.37-8.38-3.56-17.57-3.56-27.57Zm93.24-10.42c-.34-13.72-3.56-24.39-9.66-32.01-6.1-7.62-14.74-11.43-25.91-11.43-5.93,0-11.22,1.19-15.88,3.56-4.66,2.37-8.73,5.55-12.2,9.53-3.47,3.98-6.18,8.6-8.13,13.85-1.95,5.25-3.09,10.76-3.43,16.51h75.2Z"
       id="path9" />
    <path
       d="m1483.51,338.51c9.48,0,17.32-1.56,23.5-4.7,6.18-3.13,9.27-8.42,9.27-15.88,0-3.56-.55-6.61-1.65-9.15-1.1-2.54-2.92-4.83-5.46-6.86-2.54-2.03-5.89-3.98-10.04-5.84-4.15-1.86-9.27-4.06-15.37-6.61-4.92-2.03-9.57-4.1-13.97-6.22-4.41-2.12-8.3-4.57-11.69-7.37-3.39-2.79-6.1-6.14-8.13-10.04-2.03-3.89-3.05-8.64-3.05-14.23,0-10.67,4.02-19.31,12.07-25.91,8.04-6.61,19.09-9.91,33.16-9.91,8.98,0,16.39.76,22.23,2.29,5.84,1.52,9.95,2.88,12.32,4.07l-3.81,14.74c-2.03-1.02-5.46-2.37-10.29-4.06-4.83-1.69-11.9-2.54-21.21-2.54-3.73,0-7.24.38-10.54,1.15s-6.22,1.95-8.76,3.56c-2.54,1.61-4.57,3.65-6.1,6.11-1.52,2.46-2.29,5.47-2.29,9.04s.67,6.62,2.03,9.17c1.35,2.55,3.34,4.8,5.97,6.75,2.62,1.95,5.84,3.77,9.65,5.45,3.81,1.69,8.17,3.54,13.08,5.57,5.08,2.02,9.95,4.09,14.61,6.2,4.66,2.11,8.76,4.64,12.32,7.61,3.56,2.97,6.43,6.52,8.64,10.67,2.2,4.15,3.3,9.36,3.3,15.62,0,11.86-4.45,20.83-13.34,26.93-8.89,6.1-21.05,9.15-36.46,9.15-11.52,0-20.33-.98-26.42-2.92s-10.16-3.43-12.2-4.45l4.32-14.99c.51.34,1.61.89,3.3,1.65,1.69.76,3.98,1.61,6.86,2.54,2.88.93,6.31,1.74,10.29,2.41,3.98.68,8.59,1.02,13.85,1.02Z"
       id="path10" />
  </g>
  <g
     id="g19">
    <path
       d="m346.66,131.24c-4.32,0-8.34-.77-12.05-2.32-3.71-1.55-6.94-3.81-9.68-6.77-2.74-2.97-4.9-6.63-6.48-10.99-1.58-4.36-2.37-9.34-2.37-14.95s.85-10.6,2.56-14.95c1.71-4.36,3.98-8.02,6.82-10.99,2.84-2.97,6.13-5.21,9.87-6.73,3.74-1.52,7.65-2.27,11.71-2.27,2.52,0,4.81.16,6.87.48,2.06.32,3.87.73,5.42,1.21,1.55.48,2.87.97,3.97,1.45,1.1.48,1.94.92,2.52,1.31l-2.13,5.71c-1.61-.97-3.66-1.92-6.15-2.85-2.49-.93-5.57-1.4-9.24-1.4-4.2,0-7.86.71-10.99,2.13-3.13,1.42-5.76,3.42-7.89,6-2.13,2.58-3.73,5.65-4.79,9.19-1.06,3.55-1.6,7.49-1.6,11.81s.53,8.47,1.6,12.05,2.63,6.63,4.69,9.15c2.06,2.52,4.6,4.45,7.6,5.81,3,1.35,6.44,2.03,10.31,2.03,4.26,0,7.82-.4,10.69-1.21,2.87-.81,5.05-1.63,6.53-2.47l1.84,5.61c-.45.32-1.23.69-2.32,1.11-1.1.42-2.49.86-4.16,1.31-1.68.45-3.61.82-5.81,1.11-2.19.29-4.65.44-7.36.44Z"
       id="path11" />
    <path
       d="m391.44,78.59c3.29,0,6.08.47,8.37,1.4,2.29.94,4.15,2.23,5.57,3.87,1.42,1.65,2.45,3.6,3.1,5.86.64,2.26.97,4.71.97,7.36v31.55c-.65.19-1.58.4-2.81.63-1.23.23-2.65.47-4.26.73-1.61.26-3.4.47-5.37.63-1.97.16-3.98.24-6.05.24-2.65,0-5.08-.29-7.31-.87-2.23-.58-4.16-1.5-5.81-2.76-1.65-1.26-2.94-2.87-3.87-4.84-.94-1.97-1.4-4.37-1.4-7.21s.52-5.03,1.55-6.97c1.03-1.94,2.48-3.53,4.36-4.79,1.87-1.26,4.1-2.18,6.68-2.76,2.58-.58,5.39-.87,8.42-.87.9,0,1.85.05,2.85.15,1,.1,1.97.23,2.9.39.93.16,1.74.32,2.42.48.68.16,1.15.31,1.4.44v-3.1c0-1.74-.13-3.44-.39-5.08-.26-1.65-.82-3.13-1.69-4.45-.87-1.32-2.1-2.39-3.68-3.19-1.58-.81-3.66-1.21-6.24-1.21-3.68,0-6.42.26-8.23.77-1.81.52-3.13.94-3.97,1.26l-.87-5.52c1.1-.52,2.79-1,5.08-1.45,2.29-.45,5.05-.68,8.27-.68Zm.58,46.65c2.45,0,4.6-.08,6.44-.24,1.84-.16,3.4-.37,4.69-.63v-17.62c-.71-.32-1.84-.66-3.39-1.02-1.55-.35-3.68-.53-6.39-.53-1.55,0-3.16.11-4.84.34-1.68.23-3.23.71-4.65,1.45-1.42.74-2.58,1.76-3.48,3.05-.9,1.29-1.36,3-1.36,5.13,0,1.87.31,3.45.92,4.74.61,1.29,1.48,2.32,2.61,3.1,1.13.77,2.48,1.34,4.07,1.69,1.58.35,3.37.53,5.37.53Z"
       id="path12" />
    <path
       d="m423.03,81.49c1.87-.52,4.39-1.1,7.55-1.74,3.16-.64,7.03-.97,11.61-.97,3.81,0,6.98.55,9.53,1.65,2.55,1.1,4.58,2.66,6.1,4.69,1.52,2.03,2.6,4.47,3.24,7.31.64,2.84.97,5.97.97,9.39v27.97h-6.29v-25.94c0-3.55-.24-6.55-.73-9-.48-2.45-1.29-4.45-2.42-6-1.13-1.55-2.61-2.66-4.45-3.34-1.84-.68-4.15-1.02-6.92-1.02-2.97,0-5.53.16-7.69.48-2.16.32-3.57.61-4.21.87v43.94h-6.29v-48.3Z"
       id="path13" />
    <path
       d="m518.5,104.82c0,3.94-.57,7.52-1.69,10.74-1.13,3.23-2.71,5.97-4.74,8.23-2.03,2.26-4.44,4.02-7.21,5.27-2.78,1.26-5.84,1.89-9.19,1.89s-6.42-.63-9.2-1.89c-2.77-1.26-5.18-3.02-7.21-5.27-2.03-2.26-3.61-5-4.74-8.23-1.13-3.23-1.69-6.81-1.69-10.74s.56-7.52,1.69-10.74c1.13-3.23,2.71-5.98,4.74-8.28,2.03-2.29,4.44-4.06,7.21-5.32,2.77-1.26,5.84-1.89,9.2-1.89s6.42.63,9.19,1.89c2.77,1.26,5.18,3.03,7.21,5.32,2.03,2.29,3.61,5.05,4.74,8.28,1.13,3.23,1.69,6.81,1.69,10.74Zm-6.68,0c0-6.26-1.45-11.24-4.36-14.95-2.9-3.71-6.84-5.56-11.81-5.56s-8.9,1.86-11.81,5.56c-2.9,3.71-4.36,8.7-4.36,14.95s1.45,11.23,4.36,14.9c2.9,3.68,6.84,5.52,11.81,5.52s8.9-1.84,11.81-5.52c2.9-3.68,4.36-8.65,4.36-14.9Z"
       id="path14" />
    <path
       d="m529.83,81.49c1.87-.52,4.39-1.1,7.55-1.74,3.16-.64,7.03-.97,11.61-.97,3.81,0,6.98.55,9.53,1.65,2.55,1.1,4.58,2.66,6.1,4.69,1.52,2.03,2.6,4.47,3.24,7.31.64,2.84.97,5.97.97,9.39v27.97h-6.29v-25.94c0-3.55-.24-6.55-.73-9-.48-2.45-1.29-4.45-2.42-6-1.13-1.55-2.61-2.66-4.45-3.34-1.84-.68-4.15-1.02-6.92-1.02-2.97,0-5.53.16-7.69.48-2.16.32-3.57.61-4.21.87v43.94h-6.29v-48.3Z"
       id="path15" />
    <path
       d="m589.9,64.65c0,1.48-.45,2.66-1.35,3.53-.91.87-2,1.31-3.29,1.31s-2.39-.44-3.29-1.31c-.9-.87-1.35-2.05-1.35-3.53s.45-2.66,1.35-3.53c.9-.87,2-1.31,3.29-1.31s2.39.44,3.29,1.31c.9.87,1.35,2.05,1.35,3.53Zm-1.45,65.14h-6.29v-50.04h6.29v50.04Z"
       id="path16" />
    <path
       d="m623.21,130.85c-3.87,0-7.29-.61-10.26-1.84-2.97-1.22-5.44-2.98-7.4-5.27-1.97-2.29-3.47-5.03-4.5-8.23-1.03-3.19-1.55-6.73-1.55-10.6s.53-7.52,1.6-10.74c1.06-3.23,2.6-6,4.6-8.32,2-2.32,4.42-4.11,7.26-5.37,2.84-1.26,6.03-1.89,9.58-1.89,2.71,0,5.24.23,7.6.68,2.35.45,4.18,1.03,5.47,1.74l-1.64,5.42c-1.29-.64-2.74-1.16-4.36-1.55-1.61-.39-3.77-.58-6.49-.58-5.55,0-9.76,1.79-12.63,5.37-2.87,3.58-4.31,8.66-4.31,15.24,0,2.97.32,5.7.97,8.18.64,2.48,1.69,4.61,3.15,6.39,1.45,1.78,3.32,3.16,5.61,4.16,2.29,1,5.08,1.5,8.37,1.5,2.71,0,4.98-.31,6.82-.92,1.84-.61,3.18-1.15,4.02-1.6l1.35,5.42c-1.16.65-2.98,1.27-5.47,1.89-2.48.61-5.08.92-7.79.92Z"
       id="path17" />
    <path
       d="m661.08,78.59c3.29,0,6.08.47,8.37,1.4,2.29.94,4.15,2.23,5.57,3.87,1.42,1.65,2.45,3.6,3.1,5.86.64,2.26.97,4.71.97,7.36v31.55c-.65.19-1.58.4-2.81.63-1.23.23-2.65.47-4.26.73-1.61.26-3.4.47-5.37.63-1.97.16-3.98.24-6.05.24-2.65,0-5.08-.29-7.31-.87-2.23-.58-4.16-1.5-5.81-2.76-1.65-1.26-2.94-2.87-3.87-4.84-.94-1.97-1.4-4.37-1.4-7.21s.52-5.03,1.55-6.97c1.03-1.94,2.48-3.53,4.36-4.79,1.87-1.26,4.1-2.18,6.68-2.76,2.58-.58,5.39-.87,8.42-.87.9,0,1.85.05,2.85.15,1,.1,1.97.23,2.9.39.93.16,1.74.32,2.42.48.68.16,1.15.31,1.4.44v-3.1c0-1.74-.13-3.44-.39-5.08-.26-1.65-.82-3.13-1.69-4.45-.87-1.32-2.1-2.39-3.68-3.19-1.58-.81-3.66-1.21-6.24-1.21-3.68,0-6.42.26-8.23.77-1.81.52-3.13.94-3.97,1.26l-.87-5.52c1.1-.52,2.79-1,5.08-1.45,2.29-.45,5.05-.68,8.27-.68Zm.58,46.65c2.45,0,4.6-.08,6.44-.24,1.84-.16,3.4-.37,4.69-.63v-17.62c-.71-.32-1.84-.66-3.39-1.02-1.55-.35-3.68-.53-6.39-.53-1.55,0-3.16.11-4.84.34-1.68.23-3.23.71-4.65,1.45-1.42.74-2.58,1.76-3.48,3.05-.9,1.29-1.36,3-1.36,5.13,0,1.87.31,3.45.92,4.74.61,1.29,1.48,2.32,2.61,3.1,1.13.77,2.48,1.34,4.07,1.69,1.58.35,3.37.53,5.37.53Z"
       id="path18" />
    <path
       d="m705.22,130.66c-2.13-.06-3.99-.34-5.57-.82-1.58-.48-2.9-1.23-3.97-2.23-1.06-1-1.87-2.29-2.42-3.87-.55-1.58-.82-3.56-.82-5.95v-61.94l6.29-1.16v62.91c0,1.55.15,2.79.44,3.73.29.94.73,1.68,1.31,2.23.58.55,1.34.95,2.27,1.21.93.26,2.05.48,3.34.68l-.87,5.23Z"
       id="path19" />
  </g>
</svg>
