<?xml version="1.0" encoding="UTF-8" standalone="no"?>
<svg
   id="Layer_1"
   data-name="Layer 1"
   viewBox="0 0 1400 400"
   version="1.1"
   xml:space="preserve"
   xmlns="http://www.w3.org/2000/svg"
   xmlns:svg="http://www.w3.org/2000/svg"><defs
     id="defs1"><style
       id="style1">
      .cls-1 {
        fill: none;
      }

      .cls-2 {
        fill: #e95420;
      }

      .cls-3 {
        fill: #fff;
      }
    </style></defs><g
     id="Canonical"
     transform="translate(2)"><path
       class="cls-3"
       d="m 391.55,354.31 c -11.28,0 -21.75,-2.02 -31.43,-6.06 -9.68,-4.04 -18.09,-9.93 -25.24,-17.67 -7.15,-7.74 -12.79,-17.29 -16.91,-28.65 -4.13,-11.36 -6.18,-24.36 -6.18,-39 0,-14.64 2.23,-27.64 6.69,-39 4.46,-11.36 10.39,-20.91 17.8,-28.65 7.4,-7.74 15.99,-13.59 25.75,-17.54 9.76,-3.95 19.94,-5.93 30.54,-5.93 6.56,0 12.53,0.42 17.92,1.26 5.38,0.84 10.1,1.89 14.14,3.16 4.04,1.26 7.49,2.52 10.35,3.79 2.86,1.26 5.05,2.4 6.56,3.41 l -5.55,14.89 c -4.21,-2.52 -9.55,-5 -16.03,-7.45 -6.48,-2.44 -14.51,-3.66 -24.11,-3.66 -10.94,0 -20.49,1.85 -28.65,5.55 -8.16,3.7 -15.02,8.92 -20.57,15.65 -5.55,6.73 -9.72,14.73 -12.5,23.98 -2.78,9.26 -4.17,19.52 -4.17,30.8 0,11.28 1.39,22.09 4.17,31.43 2.78,9.34 6.86,17.29 12.24,23.86 5.38,6.56 11.99,11.61 19.82,15.15 7.83,3.53 16.79,5.3 26.88,5.3 11.11,0 20.4,-1.05 27.89,-3.16 7.49,-2.1 13.17,-4.25 17.04,-6.44 l 4.8,14.64 c -1.18,0.84 -3.2,1.81 -6.06,2.9 -2.86,1.1 -6.48,2.23 -10.85,3.41 -4.38,1.18 -9.43,2.15 -15.15,2.9 -5.72,0.76 -12.12,1.14 -19.19,1.14 z"
       id="path1" /><path
       class="cls-3"
       d="m 508.35,216.99 c 8.58,0 15.86,1.22 21.84,3.66 5.97,2.44 10.81,5.81 14.51,10.1 3.7,4.29 6.39,9.38 8.08,15.27 1.68,5.89 2.52,12.29 2.52,19.18 v 82.29 c -1.68,0.5 -4.13,1.05 -7.32,1.64 -3.2,0.59 -6.9,1.22 -11.11,1.89 -4.21,0.67 -8.88,1.22 -14.01,1.64 -5.14,0.42 -10.39,0.63 -15.78,0.63 -6.9,0 -13.25,-0.76 -19.06,-2.27 -5.81,-1.51 -10.85,-3.91 -15.15,-7.19 -4.29,-3.28 -7.66,-7.49 -10.1,-12.62 -2.44,-5.13 -3.66,-11.4 -3.66,-18.81 0,-7.41 1.35,-13.13 4.04,-18.17 2.69,-5.05 6.48,-9.21 11.36,-12.5 4.88,-3.28 10.69,-5.68 17.42,-7.19 6.73,-1.51 14.05,-2.27 21.96,-2.27 2.35,0 4.84,0.13 7.45,0.38 2.61,0.25 5.13,0.59 7.57,1.01 2.44,0.42 4.54,0.84 6.31,1.26 1.77,0.42 2.99,0.8 3.66,1.14 v -8.08 c 0,-4.54 -0.34,-8.96 -1.01,-13.25 -0.67,-4.29 -2.15,-8.16 -4.42,-11.61 -2.27,-3.45 -5.47,-6.22 -9.59,-8.33 -4.13,-2.1 -9.55,-3.16 -16.28,-3.16 -9.59,0 -16.75,0.67 -21.46,2.02 -4.71,1.35 -8.16,2.44 -10.35,3.28 l -2.27,-14.39 c 2.86,-1.34 7.28,-2.61 13.25,-3.79 5.97,-1.17 13.17,-1.77 21.58,-1.77 z m 1.51,121.67 c 6.39,0 11.99,-0.21 16.79,-0.63 4.8,-0.42 8.87,-0.97 12.24,-1.64 v -45.94 c -1.85,-0.84 -4.8,-1.72 -8.84,-2.65 -4.04,-0.92 -9.59,-1.39 -16.66,-1.39 -4.04,0 -8.25,0.3 -12.62,0.88 -4.38,0.59 -8.42,1.85 -12.12,3.79 -3.7,1.94 -6.73,4.59 -9.09,7.95 -2.36,3.37 -3.53,7.83 -3.53,13.38 0,4.88 0.8,9 2.4,12.37 1.6,3.37 3.87,6.06 6.82,8.08 2.94,2.02 6.48,3.5 10.6,4.42 4.12,0.93 8.79,1.39 14.01,1.39 z"
       id="path2" /><path
       class="cls-3"
       d="m 590.74,224.56 c 4.88,-1.34 11.44,-2.86 19.69,-4.54 8.24,-1.68 18.34,-2.52 30.29,-2.52 9.93,0 18.21,1.43 24.86,4.29 6.65,2.86 11.95,6.94 15.9,12.24 3.95,5.3 6.77,11.66 8.46,19.06 1.68,7.41 2.52,15.57 2.52,24.49 v 72.95 h -16.41 v -67.65 c 0,-9.25 -0.63,-17.08 -1.89,-23.48 -1.26,-6.39 -3.37,-11.61 -6.31,-15.65 -2.95,-4.04 -6.82,-6.94 -11.61,-8.71 -4.8,-1.77 -10.81,-2.65 -18.05,-2.65 -7.74,0 -14.43,0.42 -20.07,1.26 -5.64,0.84 -9.3,1.6 -10.98,2.27 v 114.6 H 590.73 V 224.56 Z"
       id="path3" /><path
       class="cls-3"
       d="m 839.74,285.4 c 0,10.27 -1.47,19.61 -4.42,28.02 -2.95,8.42 -7.07,15.57 -12.37,21.46 -5.3,5.89 -11.57,10.48 -18.81,13.76 -7.24,3.28 -15.23,4.92 -23.98,4.92 -8.75,0 -16.75,-1.64 -23.98,-4.92 -7.24,-3.28 -13.5,-7.86 -18.81,-13.76 -5.3,-5.89 -9.43,-13.04 -12.37,-21.46 -2.95,-8.41 -4.42,-17.75 -4.42,-28.02 0,-10.27 1.47,-19.6 4.42,-28.02 2.94,-8.41 7.07,-15.61 12.37,-21.58 5.3,-5.97 11.57,-10.6 18.81,-13.88 7.23,-3.28 15.23,-4.92 23.98,-4.92 8.75,0 16.74,1.64 23.98,4.92 7.23,3.28 13.5,7.91 18.81,13.88 5.3,5.98 9.42,13.17 12.37,21.58 2.94,8.42 4.42,17.76 4.42,28.02 z m -17.42,0 c 0,-16.32 -3.79,-29.32 -11.36,-39 -7.57,-9.68 -17.84,-14.51 -30.8,-14.51 -12.96,0 -23.22,4.84 -30.8,14.51 -7.57,9.68 -11.36,22.68 -11.36,39 0,16.32 3.79,29.28 11.36,38.88 7.57,9.59 17.84,14.39 30.8,14.39 12.96,0 23.22,-4.8 30.8,-14.39 7.57,-9.59 11.36,-22.55 11.36,-38.88 z"
       id="path4" /><path
       class="cls-3"
       d="m 869.29,224.56 c 4.88,-1.34 11.44,-2.86 19.69,-4.54 8.24,-1.68 18.34,-2.52 30.29,-2.52 9.93,0 18.21,1.43 24.86,4.29 6.65,2.86 11.95,6.94 15.9,12.24 3.95,5.3 6.77,11.66 8.46,19.06 1.68,7.41 2.52,15.57 2.52,24.49 v 72.95 H 954.6 v -67.65 c 0,-9.25 -0.63,-17.08 -1.89,-23.48 -1.26,-6.39 -3.37,-11.61 -6.31,-15.65 -2.95,-4.04 -6.82,-6.94 -11.61,-8.71 -4.8,-1.77 -10.81,-2.65 -18.05,-2.65 -7.74,0 -14.43,0.42 -20.07,1.26 -5.64,0.84 -9.3,1.6 -10.98,2.27 v 114.6 H 869.28 V 224.56 Z"
       id="path5" /><path
       class="cls-3"
       d="m 1025.97,180.64 c 0,3.87 -1.18,6.94 -3.53,9.21 -2.36,2.27 -5.22,3.41 -8.58,3.41 -3.36,0 -6.23,-1.14 -8.58,-3.41 -2.36,-2.27 -3.53,-5.34 -3.53,-9.21 0,-3.87 1.18,-6.94 3.53,-9.21 2.35,-2.27 5.21,-3.41 8.58,-3.41 3.37,0 6.22,1.14 8.58,3.41 2.36,2.27 3.53,5.34 3.53,9.21 z m -3.79,169.89 h -16.41 V 220.02 h 16.41 z"
       id="path6" /><path
       class="cls-3"
       d="m 1112.84,353.3 c -10.1,0 -19.02,-1.6 -26.76,-4.8 -7.74,-3.2 -14.18,-7.78 -19.31,-13.76 -5.14,-5.97 -9.05,-13.13 -11.74,-21.46 -2.69,-8.33 -4.04,-17.54 -4.04,-27.64 0,-10.1 1.39,-19.6 4.17,-28.02 2.78,-8.41 6.77,-15.65 11.99,-21.71 5.21,-6.06 11.53,-10.73 18.93,-14.01 7.4,-3.28 15.73,-4.92 24.99,-4.92 7.07,0 13.67,0.59 19.82,1.77 6.14,1.18 10.89,2.69 14.26,4.54 l -4.29,14.14 c -3.37,-1.68 -7.15,-3.03 -11.36,-4.04 -4.21,-1.01 -9.84,-1.51 -16.91,-1.51 -14.47,0 -25.46,4.67 -32.94,14.01 -7.49,9.34 -11.23,22.59 -11.23,39.76 0,7.74 0.84,14.85 2.52,21.33 1.68,6.48 4.42,12.03 8.2,16.66 3.79,4.63 8.67,8.25 14.64,10.85 5.97,2.61 13.25,3.91 21.83,3.91 7.07,0 13,-0.8 17.8,-2.4 4.8,-1.6 8.29,-2.99 10.48,-4.17 l 3.53,14.14 c -3.03,1.68 -7.79,3.33 -14.26,4.92 -6.48,1.6 -13.25,2.4 -20.32,2.4 z"
       id="path7" /><path
       class="cls-3"
       d="m 1211.61,216.99 c 8.58,0 15.86,1.22 21.83,3.66 5.97,2.44 10.81,5.81 14.52,10.1 3.7,4.29 6.39,9.38 8.08,15.27 1.68,5.89 2.52,12.29 2.52,19.18 v 82.29 c -1.68,0.5 -4.13,1.05 -7.32,1.64 -3.2,0.59 -6.9,1.22 -11.11,1.89 -4.21,0.67 -8.88,1.22 -14.01,1.64 -5.13,0.42 -10.39,0.63 -15.78,0.63 -6.9,0 -13.25,-0.76 -19.06,-2.27 -5.81,-1.51 -10.85,-3.91 -15.15,-7.19 -4.29,-3.28 -7.66,-7.49 -10.1,-12.62 -2.44,-5.13 -3.66,-11.4 -3.66,-18.81 0,-7.41 1.34,-13.13 4.04,-18.17 2.69,-5.05 6.48,-9.21 11.36,-12.5 4.88,-3.28 10.69,-5.68 17.42,-7.19 6.73,-1.51 14.05,-2.27 21.96,-2.27 2.35,0 4.83,0.13 7.45,0.38 2.61,0.25 5.13,0.59 7.57,1.01 2.44,0.42 4.54,0.84 6.31,1.26 1.77,0.42 2.99,0.8 3.66,1.14 v -8.08 c 0,-4.54 -0.34,-8.96 -1.01,-13.25 -0.67,-4.29 -2.15,-8.16 -4.42,-11.61 -2.27,-3.45 -5.47,-6.22 -9.59,-8.33 -4.13,-2.1 -9.55,-3.16 -16.28,-3.16 -9.59,0 -16.75,0.67 -21.46,2.02 -4.71,1.35 -8.17,2.44 -10.35,3.28 l -2.27,-14.39 c 2.86,-1.34 7.28,-2.61 13.25,-3.79 5.97,-1.17 13.17,-1.77 21.58,-1.77 z m 1.51,121.67 c 6.39,0 11.99,-0.21 16.79,-0.63 4.8,-0.42 8.87,-0.97 12.24,-1.64 v -45.94 c -1.85,-0.84 -4.8,-1.72 -8.83,-2.65 -4.04,-0.92 -9.59,-1.39 -16.66,-1.39 -4.04,0 -8.25,0.3 -12.62,0.88 -4.38,0.59 -8.42,1.85 -12.12,3.79 -3.7,1.94 -6.73,4.59 -9.09,7.95 -2.36,3.37 -3.53,7.83 -3.53,13.38 0,4.88 0.8,9 2.4,12.37 1.6,3.37 3.87,6.06 6.82,8.08 2.94,2.02 6.48,3.5 10.6,4.42 4.12,0.93 8.79,1.39 14.01,1.39 z"
       id="path8" /><path
       class="cls-3"
       d="m 1326.74,352.8 c -5.55,-0.17 -10.39,-0.88 -14.51,-2.15 -4.13,-1.26 -7.57,-3.2 -10.35,-5.81 -2.78,-2.61 -4.88,-5.97 -6.31,-10.1 -1.43,-4.12 -2.15,-9.3 -2.15,-15.52 V 157.66 l 16.41,-3.03 v 164.08 c 0,4.04 0.38,7.28 1.14,9.72 0.76,2.44 1.89,4.38 3.41,5.81 1.51,1.43 3.49,2.49 5.93,3.16 2.44,0.67 5.34,1.26 8.71,1.77 l -2.27,13.63 z"
       id="path9" /></g><g
     id="logo"><rect
       width="254"
       height="400"
       id="rect-e95420ff"
       x="0"
       y="0"
       style="fill:#e95420;fill-opacity:1;stroke-width:1" /><path
       id="circle13"
       style="color:#000000;fill:#ffffff;fill-opacity:1;stroke:none;stroke-width:0;stroke-linejoin:bevel;stroke-dasharray:none"
       d="m 134.33632,174 c -34.967649,0 -65.284426,20.58086 -79.471193,50.24316 a 38.147321,38.147321 0 0 1 3.176556,-0.3582 38.147321,38.147321 0 0 1 20.322361,5.88243 c 11.121804,-19.33288 31.956926,-32.29212 55.972276,-32.29212 0.0909,0 0.18005,0.006 0.2708,0.006 a 38.147321,38.147321 0 0 1 4.84006,-20.59603 38.147321,38.147321 0 0 1 1.9035,-2.57978 C 139.03364,174.12151 136.69933,174 134.33632,174 Z m 72.59081,38.35364 a 38.147321,38.147321 0 0 1 -1.40702,2.67937 38.147321,38.147321 0 0 1 -15.36625,14.46357 c 5.55096,9.54169 8.73947,20.6463 8.73947,32.5357 0,11.88939 -3.18851,22.994 -8.73947,32.53569 a 38.147321,38.147321 0 0 1 15.36625,14.46357 38.147321,38.147321 0 0 1 1.40702,2.67937 c 9.72857,-14.15729 15.44147,-31.27052 15.44147,-49.67863 0,-18.40811 -5.7129,-35.52134 -15.44147,-49.67864 z M 78.252283,294.10302 a 38.147321,38.147321 0 0 1 -20.2106,6.07658 38.147321,38.147321 0 0 1 -3.176556,-0.35821 c 14.186767,29.6623 44.503544,50.24317 79.471193,50.24317 2.36301,0 4.69732,-0.12152 7.01436,-0.30591 a 38.147321,38.147321 0 0 1 -1.9035,-2.57979 38.147321,38.147321 0 0 1 -4.84006,-20.59603 c -0.0907,3.7e-4 -0.17995,0.006 -0.2708,0.006 -24.09574,0 -44.990433,-13.04585 -56.084037,-32.48626 z" /><circle
       style="fill:#ffffff;fill-opacity:1;stroke:none;stroke-width:0;stroke-linejoin:bevel;stroke-dasharray:none;stroke-opacity:1"
       id="circle15"
       cx="58.041683"
       cy="262.03229"
       r="26.409683" /><circle
       style="fill:#ffffff;fill-opacity:1;stroke:none;stroke-width:0;stroke-linejoin:bevel;stroke-dasharray:none;stroke-opacity:1"
       id="circle17"
       cx="83.463806"
       cy="-247.35481"
       r="26.409683"
       transform="rotate(120)" /><circle
       style="fill:#ffffff;fill-opacity:1;stroke:none;stroke-width:0;stroke-linejoin:bevel;stroke-dasharray:none;stroke-opacity:1"
       id="circle19"
       cx="-370.3894"
       cy="-14.677473"
       r="26.409683"
       transform="rotate(-120)" /></g></svg>
