<?xml version="1.0" encoding="UTF-8" standalone="no"?>
<svg
   id="Layer_1"
   data-name="Layer 1"
   viewBox="0 0 254 400"
   version="1.1"
   width="254"
   height="400"
   xml:space="preserve"
   xmlns="http://www.w3.org/2000/svg"
   xmlns:svg="http://www.w3.org/2000/svg"><defs
     id="defs1"><style
       id="style1">
      .cls-1 {
        fill: none;
      }

      .cls-2 {
        fill: #e95420;
      }

      .cls-3 {
        fill: #fff;
      }
    </style></defs><rect
     class="cls-2"
     width="254"
     height="400"
     id="rect-e95420ff"
     x="0"
     y="0"
     style="fill:#e95420;fill-opacity:1;stroke-width:1" /><path
     id="circle13"
     style="color:#000000;fill:#ffffff;fill-opacity:1;stroke:none;stroke-width:0;stroke-linejoin:bevel;stroke-dasharray:none"
     d="m 134.33632,174 c -34.967649,0 -65.284426,20.58086 -79.471193,50.24316 a 38.147321,38.147321 0 0 1 3.176556,-0.3582 38.147321,38.147321 0 0 1 20.322361,5.88243 c 11.121804,-19.33288 31.956926,-32.29212 55.972276,-32.29212 0.0909,0 0.18005,0.006 0.2708,0.006 a 38.147321,38.147321 0 0 1 4.84006,-20.59603 38.147321,38.147321 0 0 1 1.9035,-2.57978 C 139.03364,174.12151 136.69933,174 134.33632,174 Z m 72.59081,38.35364 a 38.147321,38.147321 0 0 1 -1.40702,2.67937 38.147321,38.147321 0 0 1 -15.36625,14.46357 c 5.55096,9.54169 8.73947,20.6463 8.73947,32.5357 0,11.88939 -3.18851,22.994 -8.73947,32.53569 a 38.147321,38.147321 0 0 1 15.36625,14.46357 38.147321,38.147321 0 0 1 1.40702,2.67937 c 9.72857,-14.15729 15.44147,-31.27052 15.44147,-49.67863 0,-18.40811 -5.7129,-35.52134 -15.44147,-49.67864 z M 78.252283,294.10302 a 38.147321,38.147321 0 0 1 -20.2106,6.07658 38.147321,38.147321 0 0 1 -3.176556,-0.35821 c 14.186767,29.6623 44.503544,50.24317 79.471193,50.24317 2.36301,0 4.69732,-0.12152 7.01436,-0.30591 a 38.147321,38.147321 0 0 1 -1.9035,-2.57979 38.147321,38.147321 0 0 1 -4.84006,-20.59603 c -0.0907,3.7e-4 -0.17995,0.006 -0.2708,0.006 -24.09574,0 -44.990433,-13.04585 -56.084037,-32.48626 z" /><circle
     style="fill:#ffffff;fill-opacity:1;stroke:none;stroke-width:0;stroke-linejoin:bevel;stroke-dasharray:none;stroke-opacity:1"
     id="circle15"
     cx="58.041683"
     cy="262.03229"
     r="26.409683" /><circle
     style="fill:#ffffff;fill-opacity:1;stroke:none;stroke-width:0;stroke-linejoin:bevel;stroke-dasharray:none;stroke-opacity:1"
     id="circle17"
     cx="83.463806"
     cy="-247.35481"
     r="26.409683"
     transform="rotate(120)" /><circle
     style="fill:#ffffff;fill-opacity:1;stroke:none;stroke-width:0;stroke-linejoin:bevel;stroke-dasharray:none;stroke-opacity:1"
     id="circle19"
     cx="-370.3894"
     cy="-14.677473"
     r="26.409683"
     transform="rotate(-120)" /></svg>
